<svg width="22" height="16" viewBox="0 0 22 16" fill="none" xmlns="http://www.w3.org/2000/svg">
<g clip-path="url(#clip0_21229_10845)">
<path d="M17.9589 1.42418C16.6591 0.820131 15.2654 0.375099 13.8081 0.12021C13.7816 0.115291 13.7551 0.127584 13.7414 0.152172C13.5621 0.475084 13.3636 0.89635 13.2246 1.22746C11.6572 0.98979 10.0978 0.98979 8.56259 1.22746C8.42352 0.88899 8.21776 0.475084 8.03771 0.152172C8.02404 0.128404 7.99753 0.116111 7.97099 0.12021C6.51453 0.374284 5.12077 0.819317 3.82024 1.42418C3.80898 1.42909 3.79933 1.43729 3.79292 1.44794C1.14925 5.44835 0.425041 9.35043 0.780316 13.2041C0.781923 13.223 0.792372 13.241 0.806841 13.2525C2.55106 14.5499 4.24063 15.3375 5.89883 15.8596C5.92537 15.8678 5.95349 15.858 5.97038 15.8358C6.36262 15.2933 6.71228 14.7212 7.01207 14.1196C7.02976 14.0844 7.01287 14.0426 6.97671 14.0286C6.4221 13.8155 5.89401 13.5557 5.38601 13.2607C5.34583 13.2369 5.34261 13.1787 5.37958 13.1508C5.48648 13.0697 5.59341 12.9853 5.69548 12.9C5.71395 12.8845 5.73969 12.8812 5.7614 12.891C9.09871 14.4343 12.7117 14.4343 16.0097 12.891C16.0314 12.8804 16.0571 12.8837 16.0764 12.8992C16.1785 12.9845 16.2854 13.0697 16.3931 13.1508C16.4301 13.1787 16.4276 13.2369 16.3875 13.2607C15.8795 13.5615 15.3514 13.8155 14.796 14.0278C14.7598 14.0417 14.7437 14.0844 14.7614 14.1196C15.0676 14.7204 15.4173 15.2924 15.8023 15.835C15.8184 15.858 15.8473 15.8678 15.8738 15.8596C17.5401 15.3375 19.2296 14.5499 20.9739 13.2525C20.9891 13.241 20.9988 13.2238 21.0004 13.2049C21.4256 8.74965 20.2882 4.87956 17.9854 1.44876C17.9797 1.43729 17.9701 1.42909 17.9589 1.42418ZM7.51044 10.8576C6.50568 10.8576 5.67779 9.92332 5.67779 8.77588C5.67779 7.62845 6.48963 6.69414 7.51044 6.69414C8.53927 6.69414 9.35915 7.63666 9.34307 8.77588C9.34307 9.92332 8.53123 10.8576 7.51044 10.8576ZM14.2864 10.8576C13.2816 10.8576 12.4537 9.92332 12.4537 8.77588C12.4537 7.62845 13.2655 6.69414 14.2864 6.69414C15.3152 6.69414 16.1351 7.63666 16.119 8.77588C16.119 9.92332 15.3152 10.8576 14.2864 10.8576Z" fill="white"/>
</g>
<defs>
<clipPath id="clip0_21229_10845">
<rect width="20.3922" height="16" fill="white" transform="translate(0.696045)"/>
</clipPath>
</defs>
</svg>
