<svg width="22" height="22" viewBox="0 0 22 22" fill="none" xmlns="http://www.w3.org/2000/svg">
<path d="M10.8924 0.609635C6.71608 0.609635 2.75027 0.230997 1.23548 4.19321C0.609784 5.82968 0.700648 7.95498 0.700648 10.9981C0.700648 13.6685 0.616685 16.1783 1.23548 17.8019C2.74681 21.7665 6.74483 21.3867 10.8901 21.3867C14.8892 21.3867 19.0126 21.811 20.5458 17.8019C21.1727 16.149 21.0807 14.0554 21.0807 10.9981C21.0807 6.9398 21.3003 4.31982 19.3692 2.35278C17.4139 0.359945 14.7696 0.609635 10.8878 0.609635H10.8924ZM9.97913 2.48172C18.6906 2.46766 19.7994 1.48062 19.1875 15.1925C18.9701 20.0421 15.347 19.5099 10.8935 19.5099C2.77327 19.5099 2.53978 19.2731 2.53978 10.9935C2.53978 2.61771 3.18388 2.48641 9.97913 2.47938V2.48172ZM16.3327 4.20611C15.6576 4.20611 15.1101 4.7641 15.1101 5.45221C15.1101 6.14033 15.6576 6.69832 16.3327 6.69832C17.0079 6.69832 17.5554 6.14033 17.5554 5.45221C17.5554 4.7641 17.0079 4.20611 16.3327 4.20611ZM10.8924 5.66322C8.00198 5.66322 5.65907 8.05227 5.65907 10.9981C5.65907 13.944 8.00198 16.3319 10.8924 16.3319C13.7828 16.3319 16.1245 13.944 16.1245 10.9981C16.1245 8.05227 13.7828 5.66322 10.8924 5.66322ZM10.8924 7.53531C15.3838 7.53531 15.3896 14.461 10.8924 14.461C6.40208 14.461 6.39518 7.53531 10.8924 7.53531Z" fill="white"/>
</svg>
