<svg width="18" height="18" viewBox="0 0 18 18" fill="none" xmlns="http://www.w3.org/2000/svg">
<g clip-path="url(#clip0_21229_10850)">
<path d="M17.5196 16.0399C17.5196 17.0121 16.7408 17.7992 15.7803 17.7992H2.00389C1.04344 17.7992 0.264648 17.0111 0.264648 16.0399V1.95851C0.264648 0.987309 1.04344 0.199219 2.00389 0.199219H15.7803C16.7418 0.199219 17.5196 0.987309 17.5196 1.95851V16.0399Z" fill="white"/>
<path d="M5.87792 4.50253C5.87792 5.14899 5.40422 5.67303 4.62543 5.67303C3.8928 5.67303 3.4191 5.14899 3.4191 4.50253C3.4191 3.8409 3.90785 3.33203 4.65654 3.33203C5.40422 3.33203 5.86287 3.83989 5.87792 4.50253ZM3.48032 14.1245V6.59568H5.80165V14.1245H3.48032Z" fill="black"/>
<path d="M7.19031 8.99643C7.19031 8.0576 7.1602 7.27255 7.12909 6.59473H9.14532L9.25271 7.64181H9.29887C9.60397 7.14912 10.3527 6.42578 11.6052 6.42578C13.1326 6.42578 14.2777 7.45768 14.2777 9.67425V14.1236H11.9564V9.95145C11.9564 8.98126 11.6202 8.31963 10.7802 8.31963C10.1389 8.31963 9.75752 8.76577 9.58892 9.19674C9.5277 9.35052 9.51264 9.566 9.51264 9.78149V14.1236H7.19031V8.99643Z" fill="black"/>
</g>
<defs>
<clipPath id="clip0_21229_10850">
<rect width="17.2549" height="17.6" fill="white" transform="translate(0.264648 0.199219)"/>
</clipPath>
</defs>
</svg>
