<svg width="15" height="18" viewBox="0 0 15 18" fill="none" xmlns="http://www.w3.org/2000/svg">
<path d="M14.9995 4.27778C14.023 4.27778 13.122 3.95427 12.3984 3.40852C11.5686 2.78289 10.9724 1.86518 10.7619 0.807431C10.7097 0.546085 10.6816 0.276385 10.679 0H7.88939V7.62247L7.88605 11.7976C7.88605 12.9139 7.15916 13.8603 6.15154 14.1932C5.85912 14.2898 5.5433 14.3356 5.21444 14.3175C4.79468 14.2945 4.40133 14.1678 4.05944 13.9633C3.33189 13.5281 2.8386 12.7388 2.82524 11.8357C2.80418 10.4244 3.94515 9.27375 5.35547 9.27375C5.63386 9.27375 5.90123 9.3192 6.15154 9.40175V7.31834V6.5694C5.88752 6.5303 5.61883 6.50991 5.34712 6.50991C3.80344 6.50991 2.35969 7.15158 1.32768 8.30758C0.547654 9.18118 0.0797718 10.2957 0.00758427 11.4644C-0.0869947 12.9998 0.474798 14.4592 1.56429 15.536C1.72438 15.6941 1.89248 15.8408 2.06827 15.9762C3.00236 16.695 4.14433 17.0847 5.34712 17.0847C5.61883 17.0847 5.88752 17.0647 6.15154 17.0256C7.27513 16.8591 8.31182 16.3448 9.12995 15.536C10.1352 14.5424 10.6907 13.2233 10.6967 11.8194L10.6823 5.58451C11.1619 5.95447 11.6863 6.26059 12.249 6.49821C13.1243 6.8675 14.0524 7.05466 15.0075 7.05432V5.02873V4.27711C15.0082 4.27778 15.0002 4.27778 14.9995 4.27778Z" fill="white"/>
</svg>
