<svg width="37" height="36" viewBox="0 0 37 36" fill="none" xmlns="http://www.w3.org/2000/svg">
<rect x="0.25" width="36" height="36" rx="18" fill="#F39F21" fill-opacity="0.1"/>
<path d="M14.0833 21.3327C14.4149 21.3327 14.7328 21.201 14.9672 20.9666C15.2016 20.7321 15.3333 20.4142 15.3333 20.0827C15.3374 20.0411 15.3374 19.9993 15.3333 19.9577L17.6583 17.6327H17.85H18.0417L19.3833 18.9743C19.3833 18.9743 19.3833 19.016 19.3833 19.041C19.3833 19.3725 19.515 19.6905 19.7494 19.9249C19.9839 20.1593 20.3018 20.291 20.6333 20.291C20.9649 20.291 21.2828 20.1593 21.5172 19.9249C21.7516 19.6905 21.8833 19.3725 21.8833 19.041V18.9743L24.9167 15.916C25.1639 15.916 25.4056 15.8427 25.6111 15.7054C25.8167 15.568 25.9769 15.3728 26.0715 15.1444C26.1661 14.916 26.1909 14.6646 26.1426 14.4222C26.0944 14.1797 25.9754 13.9569 25.8005 13.7821C25.6257 13.6073 25.403 13.4883 25.1605 13.44C24.9181 13.3918 24.6667 13.4166 24.4383 13.5112C24.2099 13.6058 24.0147 13.766 23.8773 13.9716C23.74 14.1771 23.6667 14.4188 23.6667 14.666C23.6626 14.7076 23.6626 14.7494 23.6667 14.791L20.6583 17.7993H20.525L19.0833 16.3327C19.0833 16.0012 18.9516 15.6832 18.7172 15.4488C18.4828 15.2144 18.1649 15.0827 17.8333 15.0827C17.5018 15.0827 17.1839 15.2144 16.9494 15.4488C16.715 15.6832 16.5833 16.0012 16.5833 16.3327L14.0833 18.8327C13.7518 18.8327 13.4339 18.9644 13.1994 19.1988C12.965 19.4332 12.8333 19.7512 12.8333 20.0827C12.8333 20.4142 12.965 20.7321 13.1994 20.9666C13.4339 21.201 13.7518 21.3327 14.0833 21.3327ZM25.3333 24.666H11.1667L11.1667 10.4993C11.1667 10.2783 11.0789 10.0664 10.9226 9.91009C10.7663 9.75381 10.5543 9.66602 10.3333 9.66602C10.1123 9.66602 9.90036 9.75381 9.74408 9.91009C9.5878 10.0664 9.5 10.2783 9.5 10.4993L9.5 25.4993C9.5 25.7204 9.5878 25.9323 9.74408 26.0886C9.90036 26.2449 10.1123 26.3327 10.3333 26.3327L25.3333 26.3327C25.5543 26.3327 25.7663 26.2449 25.9226 26.0886C26.0789 25.9323 26.1667 25.7204 26.1667 25.4993C26.1667 25.2783 26.0789 25.0664 25.9226 24.9101C25.7663 24.7538 25.5543 24.666 25.3333 24.666Z" fill="#E99700"/>
</svg>
