<svg width="37" height="36" viewBox="0 0 37 36" fill="none" xmlns="http://www.w3.org/2000/svg">
<rect x="0.75" width="36" height="36" rx="18" fill="#F39F21" fill-opacity="0.1"/>
<path d="M24.5832 9.66602L12.9165 9.66602C12.2535 9.66602 11.6176 9.92941 11.1487 10.3982C10.6799 10.8671 10.4165 11.503 10.4165 12.166L10.4165 20.4993C10.4165 21.1624 10.6799 21.7983 11.1487 22.2671C11.6176 22.736 12.2535 22.9993 12.9165 22.9993H15.1165L14.6332 23.8327C14.4869 24.086 14.4099 24.3735 14.4099 24.666C14.4099 24.9586 14.4869 25.246 14.6332 25.4993C14.7807 25.7549 14.9935 25.9667 15.2497 26.1132C15.5059 26.2596 15.7964 26.3353 16.0915 26.3327H21.4748C21.7671 26.3324 22.0542 26.2552 22.3072 26.109C22.5602 25.9627 22.7704 25.7525 22.9165 25.4993C23.0628 25.246 23.1398 24.9586 23.1398 24.666C23.1398 24.3735 23.0628 24.086 22.9165 23.8327L22.4248 22.9993H24.5832C25.2462 22.9993 25.8821 22.736 26.3509 22.2671C26.8198 21.7983 27.0832 21.1624 27.0832 20.4993V12.166C27.0832 11.503 26.8198 10.8671 26.3509 10.3982C25.8821 9.92941 25.2462 9.66602 24.5832 9.66602ZM16.0582 24.666L17.0832 22.9993H20.4165L21.4165 24.666H16.0582ZM25.4165 20.4993C25.4165 20.7204 25.3287 20.9323 25.1724 21.0886C25.0161 21.2449 24.8042 21.3327 24.5832 21.3327H12.9165C12.6955 21.3327 12.4835 21.2449 12.3272 21.0886C12.171 20.9323 12.0832 20.7204 12.0832 20.4993V19.666H25.4165V20.4993ZM25.4165 17.9993H12.0832L12.0832 12.166C12.0832 11.945 12.171 11.733 12.3272 11.5768C12.4835 11.4205 12.6955 11.3327 12.9165 11.3327L24.5832 11.3327C24.8042 11.3327 25.0161 11.4205 25.1724 11.5768C25.3287 11.733 25.4165 11.945 25.4165 12.166V17.9993Z" fill="#E99700"/>
</svg>
