<svg width="37" height="36" viewBox="0 0 37 36" fill="none" xmlns="http://www.w3.org/2000/svg">
<rect x="0.75" width="36" height="36" rx="18" fill="#F39F21" fill-opacity="0.1"/>
<path d="M27.0835 9.66602L10.4168 9.66602C10.1958 9.66602 9.98385 9.75381 9.82757 9.91009C9.67129 10.0664 9.5835 10.2783 9.5835 10.4993L9.5835 17.166C9.5835 17.387 9.67129 17.599 9.82757 17.7553C9.98385 17.9116 10.1958 17.9993 10.4168 17.9993H12.9168L12.9168 25.4993C12.9168 25.7204 13.0046 25.9323 13.1609 26.0886C13.3172 26.2449 13.5291 26.3327 13.7502 26.3327H23.7502C23.9712 26.3327 24.1831 26.2449 24.3394 26.0886C24.4957 25.9323 24.5835 25.7204 24.5835 25.4993V17.9993H27.0835C27.3045 17.9993 27.5165 17.9116 27.6728 17.7553C27.829 17.599 27.9168 17.387 27.9168 17.166V10.4993C27.9168 10.2783 27.829 10.0664 27.6728 9.91009C27.5165 9.75381 27.3045 9.66602 27.0835 9.66602ZM14.5835 24.666V22.9993C15.0255 22.9993 15.4494 23.1749 15.762 23.4875C16.0746 23.8001 16.2502 24.224 16.2502 24.666H14.5835ZM22.9168 24.666H21.2502C21.2502 24.224 21.4258 23.8001 21.7383 23.4875C22.0509 23.1749 22.4748 22.9993 22.9168 22.9993V24.666ZM22.9168 21.3327C22.0328 21.3327 21.1849 21.6839 20.5598 22.309C19.9347 22.9341 19.5835 23.782 19.5835 24.666H17.9168C17.9168 23.782 17.5656 22.9341 16.9405 22.309C16.3154 21.6839 15.4676 21.3327 14.5835 21.3327L14.5835 14.666L22.9168 14.666V21.3327ZM26.2502 16.3327H24.5835V13.8327C24.5835 13.6117 24.4957 13.3997 24.3394 13.2434C24.1831 13.0871 23.9712 12.9993 23.7502 12.9993L13.7502 12.9993C13.5291 12.9993 13.3172 13.0871 13.1609 13.2434C13.0046 13.3997 12.9168 13.6117 12.9168 13.8327V16.3327H11.2502V11.3327L26.2502 11.3327V16.3327ZM18.7502 20.4993C19.2446 20.4993 19.728 20.3527 20.1391 20.078C20.5502 19.8033 20.8706 19.4129 21.0599 18.9561C21.2491 18.4992 21.2986 17.9966 21.2021 17.5116C21.1057 17.0267 20.8676 16.5812 20.5179 16.2316C20.1683 15.882 19.7228 15.6438 19.2379 15.5474C18.7529 15.4509 18.2503 15.5004 17.7935 15.6897C17.3366 15.8789 16.9462 16.1993 16.6715 16.6104C16.3968 17.0215 16.2502 17.5049 16.2502 17.9993C16.2502 18.6624 16.5136 19.2983 16.9824 19.7671C17.4512 20.236 18.0871 20.4993 18.7502 20.4993ZM18.7502 17.166C18.915 17.166 19.0761 17.2149 19.2131 17.3065C19.3502 17.398 19.457 17.5282 19.5201 17.6804C19.5831 17.8327 19.5996 18.0003 19.5675 18.1619C19.5353 18.3236 19.456 18.4721 19.3394 18.5886C19.2229 18.7051 19.0744 18.7845 18.9127 18.8167C18.7511 18.8488 18.5835 18.8323 18.4313 18.7692C18.279 18.7062 18.1488 18.5994 18.0573 18.4623C17.9657 18.3253 17.9168 18.1642 17.9168 17.9993C17.9168 17.7783 18.0046 17.5664 18.1609 17.4101C18.3172 17.2538 18.5291 17.166 18.7502 17.166Z" fill="#E99700"/>
</svg>
