<svg width="37" height="36" viewBox="0 0 37 36" fill="none" xmlns="http://www.w3.org/2000/svg">
<rect x="0.25" width="36" height="36" rx="18" fill="#F39F21" fill-opacity="0.1"/>
<path d="M23.2499 19.6676C22.7575 19.6708 22.272 19.7831 21.8282 19.9964C21.3844 20.2096 20.9934 20.5185 20.6832 20.9009L16.4332 18.9426C16.633 18.3307 16.633 17.6711 16.4332 17.0592L20.6832 15.1009C21.1846 15.7059 21.8835 16.1143 22.6567 16.2541C23.4298 16.3939 24.2276 16.2561 24.909 15.865C25.5905 15.4739 26.1119 14.8546 26.3812 14.1165C26.6505 13.3784 26.6504 12.5689 26.381 11.8308C26.1115 11.0928 25.59 10.4736 24.9085 10.0826C24.227 9.69165 23.4292 9.55399 22.6561 9.69393C21.8829 9.83387 21.1841 10.2424 20.6828 10.8475C20.1816 11.4526 19.9102 12.2152 19.9165 13.0009C19.9191 13.1994 19.9386 13.3974 19.9749 13.5926L15.5749 15.6176C15.1058 15.1589 14.5118 14.8488 13.8672 14.7263C13.2227 14.6037 12.5563 14.674 11.9516 14.9285C11.3469 15.183 10.8307 15.6103 10.4677 16.1568C10.1047 16.7033 9.91113 17.3448 9.91113 18.0009C9.91113 18.657 10.1047 19.2985 10.4677 19.845C10.8307 20.3916 11.3469 20.8188 11.9516 21.0733C12.5563 21.3278 13.2227 21.3981 13.8672 21.2756C14.5118 21.153 15.1058 20.8429 15.5749 20.3842L19.9749 22.4092C19.9386 22.6044 19.9191 22.8024 19.9165 23.0009C19.9165 23.6602 20.112 24.3046 20.4783 24.8528C20.8446 25.401 21.3652 25.8282 21.9743 26.0805C22.5834 26.3328 23.2536 26.3988 23.9002 26.2702C24.5468 26.1416 25.1407 25.8241 25.6069 25.3579C26.0731 24.8918 26.3905 24.2978 26.5192 23.6512C26.6478 23.0046 26.5818 22.3344 26.3295 21.7253C26.0772 21.1162 25.6499 20.5956 25.1018 20.2293C24.5536 19.8631 23.9092 19.6676 23.2499 19.6676ZM23.2499 11.3342C23.5795 11.3342 23.9018 11.432 24.1758 11.6151C24.4499 11.7983 24.6635 12.0586 24.7897 12.3631C24.9158 12.6676 24.9488 13.0028 24.8845 13.3261C24.8202 13.6494 24.6615 13.9463 24.4284 14.1794C24.1953 14.4125 23.8983 14.5712 23.575 14.6356C23.2517 14.6999 22.9166 14.6669 22.6121 14.5407C22.3075 14.4146 22.0472 14.2009 21.8641 13.9269C21.681 13.6528 21.5832 13.3305 21.5832 13.0009C21.5832 12.5589 21.7588 12.135 22.0714 11.8224C22.3839 11.5098 22.8079 11.3342 23.2499 11.3342ZM13.2499 19.6676C12.9202 19.6676 12.598 19.5698 12.3239 19.3867C12.0498 19.2036 11.8362 18.9433 11.7101 18.6387C11.5839 18.3342 11.5509 17.9991 11.6152 17.6758C11.6795 17.3525 11.8383 17.0555 12.0714 16.8224C12.3045 16.5893 12.6014 16.4306 12.9247 16.3663C13.248 16.302 13.5831 16.335 13.8877 16.4611C14.1922 16.5873 14.4525 16.8009 14.6357 17.075C14.8188 17.349 14.9165 17.6713 14.9165 18.0009C14.9165 18.4429 14.741 18.8669 14.4284 19.1794C14.1158 19.492 13.6919 19.6676 13.2499 19.6676ZM23.2499 24.6676C22.9202 24.6676 22.598 24.5698 22.3239 24.3867C22.0498 24.2036 21.8362 23.9433 21.7101 23.6387C21.5839 23.3342 21.5509 22.9991 21.6152 22.6758C21.6795 22.3525 21.8383 22.0555 22.0714 21.8224C22.3045 21.5893 22.6014 21.4306 22.9247 21.3663C23.248 21.302 23.5831 21.335 23.8877 21.4611C24.1922 21.5873 24.4525 21.8009 24.6357 22.075C24.8188 22.349 24.9165 22.6713 24.9165 23.0009C24.9165 23.4429 24.741 23.8669 24.4284 24.1794C24.1158 24.492 23.6919 24.6676 23.2499 24.6676Z" fill="#E99700"/>
</svg>
