<svg width="764" height="200" viewBox="0 0 764 200" fill="none" xmlns="http://www.w3.org/2000/svg">
<path d="M38.3766 15.552C38.3766 21.696 51.7206 16.928 51.7206 25.856C51.7206 30.048 48.3286 32.384 43.6886 32.384C39.0166 32.384 35.8166 30.24 34.8566 25.856H37.9286C38.6326 28.448 40.5846 29.856 43.7206 29.856C46.9846 29.856 48.7126 28.416 48.7126 26.24C48.7126 19.584 35.3686 24.544 35.3686 15.744C35.3686 12.608 37.9926 9.856 42.7926 9.856C46.9846 9.856 50.3446 11.872 51.1446 16.512H48.0406C47.3686 13.632 45.5126 12.384 42.7286 12.384C39.9766 12.384 38.3766 13.632 38.3766 15.552ZM55.1619 32V8.96H57.9779V17.312C59.1299 15.52 60.9859 14.592 63.2259 14.592C66.8419 14.592 68.9859 16.704 68.9859 20.64V32H66.1699V21.216C66.1699 18.656 65.0179 16.992 62.4579 16.992C59.6419 16.992 57.9779 19.52 57.9779 21.952V32H55.1619ZM80.3864 32.384C75.5224 32.384 72.6104 29.056 72.6104 23.52C72.6104 17.76 75.6184 14.592 80.3864 14.592C85.2504 14.592 88.1624 17.984 88.1624 23.52C88.1624 29.248 85.1544 32.384 80.3864 32.384ZM80.3864 29.952C83.5544 29.952 85.2824 27.68 85.2824 23.52C85.2824 19.392 83.5224 17.024 80.3864 17.024C77.2184 17.024 75.4904 19.328 75.4904 23.52C75.4904 27.616 77.2504 29.952 80.3864 29.952ZM91.7869 32V15.008H94.6029V17.632C95.7549 15.552 97.5789 14.592 99.6269 14.592C100.299 14.592 100.907 14.752 101.227 15.008V17.536C100.747 17.376 100.139 17.312 99.4669 17.312C96.0749 17.312 94.6029 19.424 94.6029 22.496V32H91.7869ZM104.108 27.104V17.248H101.74V15.008H104.108V11.104H106.924V15.008H110.668V17.248H106.924V27.104C106.924 29.152 107.532 30.112 110.028 30.112H110.604V32.128C110.284 32.288 109.58 32.384 108.78 32.384C105.612 32.384 104.108 30.688 104.108 27.104ZM112.66 24.48V22.08H121.172V24.48H112.66ZM123.551 17.248V15.008H125.919V13.856C125.919 10.272 127.391 8.576 130.527 8.576C131.231 8.576 131.807 8.704 132.095 8.832V10.848H131.807C129.343 10.848 128.735 11.808 128.735 13.856V15.008H132.095V17.248H128.735V32H125.919V17.248H123.551ZM141.261 32.384C136.397 32.384 133.485 29.056 133.485 23.52C133.485 17.76 136.493 14.592 141.261 14.592C146.125 14.592 149.037 17.984 149.037 23.52C149.037 29.248 146.029 32.384 141.261 32.384ZM141.261 29.952C144.429 29.952 146.157 27.68 146.157 23.52C146.157 19.392 144.397 17.024 141.261 17.024C138.093 17.024 136.365 19.328 136.365 23.52C136.365 27.616 138.125 29.952 141.261 29.952ZM152.662 32V15.008H155.478V17.632C156.63 15.552 158.454 14.592 160.502 14.592C161.174 14.592 161.782 14.752 162.102 15.008V17.536C161.622 17.376 161.014 17.312 160.342 17.312C156.95 17.312 155.478 19.424 155.478 22.496V32H152.662ZM164.599 32V15.008H167.415V17.184C168.503 15.456 170.199 14.592 172.279 14.592C174.615 14.592 176.311 15.616 177.111 17.6C178.231 15.616 180.087 14.592 182.359 14.592C185.815 14.592 187.895 16.704 187.895 20.64V32H185.079V21.216C185.079 18.656 184.055 16.992 181.751 16.992C179.191 16.992 177.655 19.52 177.655 21.952V32H174.839V21.216C174.839 18.656 173.815 16.992 171.511 16.992C168.951 16.992 167.415 19.52 167.415 21.952V32H164.599ZM203.043 32L196.707 15.008H199.747L204.451 28.192L204.867 29.664L205.283 28.192L209.987 15.008H212.835L206.499 32H203.043ZM215.224 12.736V8.96H218.04V12.736H215.224ZM215.224 32V15.008H218.04V32H215.224ZM228.874 32.384C224.362 32.384 221.642 29.056 221.642 23.52C221.642 17.76 224.426 14.592 228.874 14.592C230.89 14.592 232.522 15.424 233.642 16.992V8.96H236.458V32H233.642V29.856C232.522 31.456 230.89 32.384 228.874 32.384ZM229.066 29.952C232.042 29.952 233.642 27.68 233.642 23.52C233.642 19.392 231.978 17.024 229.066 17.024C226.122 17.024 224.522 19.328 224.522 23.52C224.522 27.616 226.186 29.952 229.066 29.952ZM255.631 26.464C254.703 30.432 251.855 32.384 247.983 32.384C243.055 32.384 240.079 29.056 240.079 23.52C240.079 17.76 243.055 14.592 247.823 14.592C252.623 14.592 255.503 17.888 255.503 23.296V24H242.959C243.119 27.808 244.911 29.952 247.983 29.952C250.383 29.952 252.079 28.8 252.687 26.464H255.631ZM247.823 17.024C245.103 17.024 243.471 18.72 243.055 21.888H252.559C252.175 18.752 250.479 17.024 247.823 17.024ZM266.168 32.384C261.304 32.384 258.392 29.056 258.392 23.52C258.392 17.76 261.4 14.592 266.168 14.592C271.032 14.592 273.944 17.984 273.944 23.52C273.944 29.248 270.936 32.384 266.168 32.384ZM266.168 29.952C269.336 29.952 271.064 27.68 271.064 23.52C271.064 19.392 269.304 17.024 266.168 17.024C263 17.024 261.272 19.328 261.272 23.52C261.272 27.616 263.032 29.952 266.168 29.952ZM298.022 20.864H295.206C294.758 18.272 293.03 17.024 290.79 17.024C287.654 17.024 285.99 19.328 285.99 23.52C285.99 27.648 287.75 29.984 290.886 29.984C293.158 29.984 294.79 28.768 295.334 26.336H298.15C297.382 30.56 294.534 32.384 290.822 32.384C285.99 32.384 283.11 29.024 283.11 23.52C283.11 17.76 286.054 14.592 290.79 14.592C294.534 14.592 297.478 16.704 298.022 20.864ZM308.543 32.384C303.679 32.384 300.767 29.056 300.767 23.52C300.767 17.76 303.775 14.592 308.543 14.592C313.407 14.592 316.319 17.984 316.319 23.52C316.319 29.248 313.311 32.384 308.543 32.384ZM308.543 29.952C311.711 29.952 313.439 27.68 313.439 23.52C313.439 19.392 311.679 17.024 308.543 17.024C305.375 17.024 303.647 19.328 303.647 23.52C303.647 27.616 305.407 29.952 308.543 29.952ZM319.943 32V15.008H322.759V17.312C323.911 15.52 325.767 14.592 328.007 14.592C331.623 14.592 333.767 16.704 333.767 20.64V32H330.951V21.216C330.951 18.656 329.799 16.992 327.239 16.992C324.423 16.992 322.759 19.52 322.759 21.952V32H319.943ZM338.64 27.104V17.248H336.272V15.008H338.64V11.104H341.456V15.008H345.2V17.248H341.456V27.104C341.456 29.152 342.064 30.112 344.56 30.112H345.136V32.128C344.816 32.288 344.112 32.384 343.312 32.384C340.144 32.384 338.64 30.688 338.64 27.104ZM362.569 26.464C361.641 30.432 358.793 32.384 354.921 32.384C349.993 32.384 347.017 29.056 347.017 23.52C347.017 17.76 349.993 14.592 354.761 14.592C359.561 14.592 362.441 17.888 362.441 23.296V24H349.897C350.057 27.808 351.849 29.952 354.921 29.952C357.321 29.952 359.017 28.8 359.625 26.464H362.569ZM354.761 17.024C352.041 17.024 350.409 18.72 349.993 21.888H359.497C359.113 18.752 357.417 17.024 354.761 17.024ZM366.193 32V15.008H369.009V17.312C370.161 15.52 372.017 14.592 374.257 14.592C377.873 14.592 380.017 16.704 380.017 20.64V32H377.201V21.216C377.201 18.656 376.049 16.992 373.489 16.992C370.673 16.992 369.009 19.52 369.009 21.952V32H366.193ZM384.89 27.104V17.248H382.522V15.008H384.89V11.104H387.706V15.008H391.45V17.248H387.706V27.104C387.706 29.152 388.314 30.112 390.81 30.112H391.386V32.128C391.066 32.288 390.362 32.384 389.562 32.384C386.394 32.384 384.89 30.688 384.89 27.104ZM400.537 12.736V8.96H403.353V12.736H400.537ZM400.537 32V15.008H403.353V32H400.537ZM409.898 19.36C409.898 24.096 420.938 20.192 420.938 27.2C420.938 30.368 418.122 32.384 414.122 32.384C410.09 32.384 407.274 30.464 406.634 26.464H409.45C409.834 28.832 411.594 30.144 414.218 30.144C416.778 30.144 418.122 28.992 418.122 27.392C418.122 22.752 407.21 26.592 407.21 19.552C407.21 16.96 409.226 14.592 413.386 14.592C417.066 14.592 419.786 16.32 420.33 20.544H417.514C417.098 17.888 415.626 16.896 413.226 16.896C411.114 16.896 409.898 17.952 409.898 19.36ZM430.693 32V15.008H433.509V17.632C434.661 15.552 436.485 14.592 438.533 14.592C439.205 14.592 439.813 14.752 440.133 15.008V17.536C439.653 17.376 439.045 17.312 438.373 17.312C434.981 17.312 433.509 19.424 433.509 22.496V32H430.693ZM444.91 20.544H442.094C442.638 16.8 445.102 14.592 449.262 14.592C453.806 14.592 456.014 17.248 456.014 21.216V27.904C456.014 29.856 456.174 31.072 456.622 32H453.646C453.326 31.328 453.23 30.336 453.198 29.312C451.758 31.456 449.454 32.384 447.406 32.384C443.886 32.384 441.518 30.752 441.518 27.52C441.518 25.184 442.798 23.488 445.294 22.656C447.598 21.888 449.934 21.696 453.198 21.664V21.28C453.198 18.528 451.918 17.024 449.006 17.024C446.574 17.024 445.262 18.368 444.91 20.544ZM444.398 27.456C444.398 29.024 445.71 29.952 447.694 29.952C450.83 29.952 453.198 27.488 453.198 24.576V23.776C445.966 23.84 444.398 25.376 444.398 27.456ZM463.479 39.04H460.663V15.008H463.479V17.12C464.599 15.52 466.231 14.592 468.247 14.592C472.759 14.592 475.479 17.92 475.479 23.456C475.479 29.216 472.695 32.384 468.247 32.384C466.231 32.384 464.599 31.552 463.479 29.984V39.04ZM468.055 17.024C465.079 17.024 463.479 19.296 463.479 23.456C463.479 27.584 465.143 29.952 468.055 29.952C470.999 29.952 472.599 27.648 472.599 23.456C472.599 19.36 470.935 17.024 468.055 17.024ZM479.099 12.736V8.96H481.915V12.736H479.099ZM479.099 32V15.008H481.915V32H479.099ZM492.749 32.384C488.237 32.384 485.517 29.056 485.517 23.52C485.517 17.76 488.301 14.592 492.749 14.592C494.765 14.592 496.397 15.424 497.517 16.992V8.96H500.333V32H497.517V29.856C496.397 31.456 494.765 32.384 492.749 32.384ZM492.941 29.952C495.917 29.952 497.517 27.68 497.517 23.52C497.517 19.392 495.853 17.024 492.941 17.024C489.997 17.024 488.397 19.328 488.397 23.52C488.397 27.616 490.061 29.952 492.941 29.952ZM504.818 32V8.96H507.634V32H504.818ZM512.867 39.424C512.227 39.424 511.555 39.264 511.203 39.168V36.992H512.067C514.147 36.992 514.723 36.576 516.387 32.768L516.963 31.456L510.019 15.008H513.059L517.667 26.24L518.435 28.512L519.203 26.24L523.683 15.008H526.563L518.627 34.24C516.931 38.336 515.811 39.424 512.867 39.424ZM538.197 32H535.381V8.96H538.197V17.12C539.317 15.52 540.949 14.592 542.965 14.592C547.477 14.592 550.197 17.92 550.197 23.456C550.197 29.216 547.413 32.384 542.965 32.384C540.949 32.384 539.317 31.552 538.197 29.984V32ZM542.773 17.024C539.797 17.024 538.197 19.296 538.197 23.456C538.197 27.584 539.861 29.952 542.773 29.952C545.717 29.952 547.317 27.648 547.317 23.456C547.317 19.36 545.653 17.024 542.773 17.024ZM568.506 26.464C567.578 30.432 564.73 32.384 560.858 32.384C555.93 32.384 552.954 29.056 552.954 23.52C552.954 17.76 555.93 14.592 560.698 14.592C565.498 14.592 568.378 17.888 568.378 23.296V24H555.834C555.994 27.808 557.786 29.952 560.858 29.952C563.258 29.952 564.954 28.8 565.562 26.464H568.506ZM560.698 17.024C557.978 17.024 556.346 18.72 555.93 21.888H565.434C565.05 18.752 563.354 17.024 560.698 17.024ZM586.179 20.864H583.363C582.915 18.272 581.187 17.024 578.947 17.024C575.811 17.024 574.147 19.328 574.147 23.52C574.147 27.648 575.907 29.984 579.043 29.984C581.315 29.984 582.947 28.768 583.491 26.336H586.307C585.539 30.56 582.691 32.384 578.979 32.384C574.147 32.384 571.267 29.024 571.267 23.52C571.267 17.76 574.211 14.592 578.947 14.592C582.691 14.592 585.635 16.704 586.179 20.864ZM596.699 32.384C591.835 32.384 588.923 29.056 588.923 23.52C588.923 17.76 591.931 14.592 596.699 14.592C601.563 14.592 604.475 17.984 604.475 23.52C604.475 29.248 601.467 32.384 596.699 32.384ZM596.699 29.952C599.867 29.952 601.595 27.68 601.595 23.52C601.595 19.392 599.835 17.024 596.699 17.024C593.531 17.024 591.803 19.328 591.803 23.52C591.803 27.616 593.563 29.952 596.699 29.952ZM608.099 32V15.008H610.915V17.184C612.003 15.456 613.699 14.592 615.779 14.592C618.115 14.592 619.811 15.616 620.611 17.6C621.731 15.616 623.587 14.592 625.859 14.592C629.315 14.592 631.395 16.704 631.395 20.64V32H628.579V21.216C628.579 18.656 627.555 16.992 625.251 16.992C622.691 16.992 621.155 19.52 621.155 21.952V32H618.339V21.216C618.339 18.656 617.315 16.992 615.011 16.992C612.451 16.992 610.915 19.52 610.915 21.952V32H608.099ZM635.881 12.736V8.96H638.697V12.736H635.881ZM635.881 32V15.008H638.697V32H635.881ZM643.162 32V15.008H645.978V17.312C647.13 15.52 648.986 14.592 651.226 14.592C654.842 14.592 656.986 16.704 656.986 20.64V32H654.17V21.216C654.17 18.656 653.018 16.992 650.458 16.992C647.642 16.992 645.978 19.52 645.978 21.952V32H643.162ZM667.522 32.128C663.202 32.128 660.61 28.832 660.61 23.392C660.61 17.696 663.266 14.592 667.522 14.592C669.794 14.592 671.49 15.392 672.61 16.864V15.008H675.426V32.512C675.426 37.248 672.386 39.456 668.482 39.456C664.482 39.456 661.666 37.536 661.058 33.664H663.874C664.226 35.904 665.986 37.12 668.45 37.12C670.946 37.12 672.61 35.776 672.61 32.608V29.696C671.426 31.296 669.698 32.128 667.522 32.128ZM668.034 29.696C671.01 29.696 672.61 27.456 672.61 23.36C672.61 19.36 670.946 17.024 668.034 17.024C665.09 17.024 663.49 19.264 663.49 23.392C663.49 27.392 665.122 29.696 668.034 29.696ZM686.733 27.104V17.248H684.365V15.008H686.733V11.104H689.549V15.008H693.293V17.248H689.549V27.104C689.549 29.152 690.157 30.112 692.653 30.112H693.229V32.128C692.909 32.288 692.205 32.384 691.405 32.384C688.237 32.384 686.733 30.688 686.733 27.104ZM695.974 32V8.96H698.79V17.312C699.942 15.52 701.798 14.592 704.038 14.592C707.654 14.592 709.798 16.704 709.798 20.64V32H706.982V21.216C706.982 18.656 705.83 16.992 703.27 16.992C700.454 16.992 698.79 19.52 698.79 21.952V32H695.974ZM728.975 26.464C728.047 30.432 725.199 32.384 721.327 32.384C716.399 32.384 713.423 29.056 713.423 23.52C713.423 17.76 716.399 14.592 721.167 14.592C725.967 14.592 728.847 17.888 728.847 23.296V24H716.303C716.463 27.808 718.255 29.952 721.327 29.952C723.727 29.952 725.423 28.8 726.031 26.464H728.975ZM721.167 17.024C718.447 17.024 716.815 18.72 716.399 21.888H725.903C725.519 18.752 723.823 17.024 721.167 17.024ZM20.6463 72V55.008H23.4623V57.184C24.5503 55.456 26.2463 54.592 28.3263 54.592C30.6623 54.592 32.3583 55.616 33.1583 57.6C34.2783 55.616 36.1343 54.592 38.4063 54.592C41.8623 54.592 43.9423 56.704 43.9423 60.64V72H41.1263V61.216C41.1263 58.656 40.1023 56.992 37.7983 56.992C35.2383 56.992 33.7023 59.52 33.7023 61.952V72H30.8863V61.216C30.8863 58.656 29.8623 56.992 27.5583 56.992C24.9983 56.992 23.4623 59.52 23.4623 61.952V72H20.6463ZM55.3395 72.384C50.4755 72.384 47.5635 69.056 47.5635 63.52C47.5635 57.76 50.5715 54.592 55.3395 54.592C60.2035 54.592 63.1155 57.984 63.1155 63.52C63.1155 69.248 60.1075 72.384 55.3395 72.384ZM55.3395 69.952C58.5075 69.952 60.2355 67.68 60.2355 63.52C60.2355 59.392 58.4755 57.024 55.3395 57.024C52.1715 57.024 50.4435 59.328 50.4435 63.52C50.4435 67.616 52.2035 69.952 55.3395 69.952ZM68.82 59.36C68.82 64.096 79.86 60.192 79.86 67.2C79.86 70.368 77.044 72.384 73.044 72.384C69.012 72.384 66.196 70.464 65.556 66.464H68.372C68.756 68.832 70.516 70.144 73.14 70.144C75.7 70.144 77.044 68.992 77.044 67.392C77.044 62.752 66.132 66.592 66.132 59.552C66.132 56.96 68.148 54.592 72.308 54.592C75.988 54.592 78.708 56.32 79.252 60.544H76.436C76.02 57.888 74.548 56.896 72.148 56.896C70.036 56.896 68.82 57.952 68.82 59.36ZM83.5928 67.104V57.248H81.2248V55.008H83.5928V51.104H86.4088V55.008H90.1528V57.248H86.4088V67.104C86.4088 69.152 87.0168 70.112 89.5128 70.112H90.0888V72.128C89.7688 72.288 89.0648 72.384 88.2648 72.384C85.0968 72.384 83.5928 70.688 83.5928 67.104ZM99.24 52.736V48.96H102.056V52.736H99.24ZM99.24 72V55.008H102.056V72H99.24ZM106.521 72V55.008H109.337V57.184C110.425 55.456 112.121 54.592 114.201 54.592C116.537 54.592 118.233 55.616 119.033 57.6C120.153 55.616 122.009 54.592 124.281 54.592C127.737 54.592 129.817 56.704 129.817 60.64V72H127.001V61.216C127.001 58.656 125.977 56.992 123.673 56.992C121.113 56.992 119.577 59.52 119.577 61.952V72H116.761V61.216C116.761 58.656 115.737 56.992 113.433 56.992C110.873 56.992 109.337 59.52 109.337 61.952V72H106.521ZM137.151 79.04H134.335V55.008H137.151V57.12C138.271 55.52 139.903 54.592 141.919 54.592C146.431 54.592 149.151 57.92 149.151 63.456C149.151 69.216 146.367 72.384 141.919 72.384C139.903 72.384 138.271 71.552 137.151 69.984V79.04ZM141.727 57.024C138.751 57.024 137.151 59.296 137.151 63.456C137.151 67.584 138.815 69.952 141.727 69.952C144.671 69.952 146.271 67.648 146.271 63.456C146.271 59.36 144.607 57.024 141.727 57.024ZM159.683 72.384C154.819 72.384 151.907 69.056 151.907 63.52C151.907 57.76 154.915 54.592 159.683 54.592C164.547 54.592 167.459 57.984 167.459 63.52C167.459 69.248 164.451 72.384 159.683 72.384ZM159.683 69.952C162.851 69.952 164.579 67.68 164.579 63.52C164.579 59.392 162.819 57.024 159.683 57.024C156.515 57.024 154.787 59.328 154.787 63.52C154.787 67.616 156.547 69.952 159.683 69.952ZM171.084 72V55.008H173.9V57.632C175.052 55.552 176.876 54.592 178.924 54.592C179.596 54.592 180.204 54.752 180.524 55.008V57.536C180.044 57.376 179.436 57.312 178.764 57.312C175.372 57.312 173.9 59.424 173.9 62.496V72H171.084ZM183.405 67.104V57.248H181.037V55.008H183.405V51.104H186.221V55.008H189.965V57.248H186.221V67.104C186.221 69.152 186.829 70.112 189.325 70.112H189.901V72.128C189.581 72.288 188.877 72.384 188.077 72.384C184.909 72.384 183.405 70.688 183.405 67.104ZM195.238 60.544H192.422C192.966 56.8 195.43 54.592 199.59 54.592C204.134 54.592 206.342 57.248 206.342 61.216V67.904C206.342 69.856 206.502 71.072 206.95 72H203.974C203.654 71.328 203.558 70.336 203.526 69.312C202.086 71.456 199.782 72.384 197.734 72.384C194.214 72.384 191.846 70.752 191.846 67.52C191.846 65.184 193.126 63.488 195.622 62.656C197.926 61.888 200.262 61.696 203.526 61.664V61.28C203.526 58.528 202.246 57.024 199.334 57.024C196.902 57.024 195.59 58.368 195.238 60.544ZM194.726 67.456C194.726 69.024 196.038 69.952 198.022 69.952C201.158 69.952 203.526 67.488 203.526 64.576V63.776C196.294 63.84 194.726 65.376 194.726 67.456ZM210.959 72V55.008H213.775V57.312C214.927 55.52 216.783 54.592 219.023 54.592C222.639 54.592 224.783 56.704 224.783 60.64V72H221.967V61.216C221.967 58.656 220.815 56.992 218.255 56.992C215.439 56.992 213.775 59.52 213.775 61.952V72H210.959ZM229.655 67.104V57.248H227.287V55.008H229.655V51.104H232.471V55.008H236.215V57.248H232.471V67.104C232.471 69.152 233.079 70.112 235.575 70.112H236.151V72.128C235.831 72.288 235.127 72.384 234.327 72.384C231.159 72.384 229.655 70.688 229.655 67.104ZM247.895 60.544H245.079C245.623 56.8 248.087 54.592 252.247 54.592C256.791 54.592 258.999 57.248 258.999 61.216V67.904C258.999 69.856 259.159 71.072 259.607 72H256.631C256.311 71.328 256.215 70.336 256.183 69.312C254.743 71.456 252.439 72.384 250.391 72.384C246.871 72.384 244.503 70.752 244.503 67.52C244.503 65.184 245.783 63.488 248.279 62.656C250.583 61.888 252.919 61.696 256.183 61.664V61.28C256.183 58.528 254.903 57.024 251.991 57.024C249.559 57.024 248.247 58.368 247.895 60.544ZM247.383 67.456C247.383 69.024 248.695 69.952 250.679 69.952C253.815 69.952 256.183 67.488 256.183 64.576V63.776C248.951 63.84 247.383 65.376 247.383 67.456ZM267.246 72L260.91 55.008H263.95L268.654 68.192L269.07 69.664L269.486 68.192L274.19 55.008H277.038L270.702 72H267.246ZM294.116 66.464C293.188 70.432 290.34 72.384 286.468 72.384C281.54 72.384 278.564 69.056 278.564 63.52C278.564 57.76 281.54 54.592 286.308 54.592C291.108 54.592 293.988 57.888 293.988 63.296V64H281.444C281.604 67.808 283.396 69.952 286.468 69.952C288.868 69.952 290.564 68.8 291.172 66.464H294.116ZM286.308 57.024C283.588 57.024 281.956 58.72 281.54 61.888H291.044C290.66 58.752 288.964 57.024 286.308 57.024ZM297.74 72V55.008H300.556V57.312C301.708 55.52 303.564 54.592 305.804 54.592C309.42 54.592 311.564 56.704 311.564 60.64V72H308.748V61.216C308.748 58.656 307.596 56.992 305.036 56.992C302.22 56.992 300.556 59.52 300.556 61.952V72H297.74ZM326.869 65.056V55.008H329.685V72H326.869V69.696C325.717 71.488 323.925 72.384 321.717 72.384C318.165 72.384 316.053 70.304 316.053 66.368V55.008H318.869V65.792C318.869 68.352 319.989 69.984 322.485 69.984C325.237 69.984 326.869 67.488 326.869 65.056ZM348.866 66.464C347.938 70.432 345.09 72.384 341.218 72.384C336.29 72.384 333.314 69.056 333.314 63.52C333.314 57.76 336.29 54.592 341.058 54.592C345.858 54.592 348.738 57.888 348.738 63.296V64H336.194C336.354 67.808 338.146 69.952 341.218 69.952C343.618 69.952 345.314 68.8 345.922 66.464H348.866ZM341.058 57.024C338.338 57.024 336.706 58.72 336.29 61.888H345.794C345.41 58.752 343.714 57.024 341.058 57.024ZM356.816 57.248V55.008H359.184V53.856C359.184 50.272 360.656 48.576 363.792 48.576C364.496 48.576 365.072 48.704 365.36 48.832V50.848H365.072C362.608 50.848 362 51.808 362 53.856V55.008H365.36V57.248H362V72H359.184V57.248H356.816ZM374.527 72.384C369.663 72.384 366.751 69.056 366.751 63.52C366.751 57.76 369.759 54.592 374.527 54.592C379.391 54.592 382.303 57.984 382.303 63.52C382.303 69.248 379.295 72.384 374.527 72.384ZM374.527 69.952C377.695 69.952 379.423 67.68 379.423 63.52C379.423 59.392 377.663 57.024 374.527 57.024C371.359 57.024 369.631 59.328 369.631 63.52C369.631 67.616 371.391 69.952 374.527 69.952ZM385.928 72V55.008H388.744V57.632C389.896 55.552 391.72 54.592 393.768 54.592C394.44 54.592 395.048 54.752 395.368 55.008V57.536C394.888 57.376 394.28 57.312 393.608 57.312C390.216 57.312 388.744 59.424 388.744 62.496V72H385.928ZM406.351 59.36C406.351 64.096 417.391 60.192 417.391 67.2C417.391 70.368 414.575 72.384 410.575 72.384C406.543 72.384 403.727 70.464 403.087 66.464H405.903C406.287 68.832 408.047 70.144 410.671 70.144C413.231 70.144 414.575 68.992 414.575 67.392C414.575 62.752 403.663 66.592 403.663 59.552C403.663 56.96 405.679 54.592 409.839 54.592C413.519 54.592 416.239 56.32 416.783 60.544H413.967C413.551 57.888 412.079 56.896 409.679 56.896C407.567 56.896 406.351 57.952 406.351 59.36ZM427.652 72.384C422.788 72.384 419.876 69.056 419.876 63.52C419.876 57.76 422.884 54.592 427.652 54.592C432.516 54.592 435.428 57.984 435.428 63.52C435.428 69.248 432.42 72.384 427.652 72.384ZM427.652 69.952C430.82 69.952 432.548 67.68 432.548 63.52C432.548 59.392 430.788 57.024 427.652 57.024C424.484 57.024 422.756 59.328 422.756 63.52C422.756 67.616 424.516 69.952 427.652 69.952ZM453.101 60.864H450.285C449.837 58.272 448.109 57.024 445.869 57.024C442.733 57.024 441.069 59.328 441.069 63.52C441.069 67.648 442.829 69.984 445.965 69.984C448.237 69.984 449.869 68.768 450.413 66.336H453.229C452.461 70.56 449.613 72.384 445.901 72.384C441.069 72.384 438.189 69.024 438.189 63.52C438.189 57.76 441.133 54.592 445.869 54.592C449.613 54.592 452.557 56.704 453.101 60.864ZM456.709 52.736V48.96H459.525V52.736H456.709ZM456.709 72V55.008H459.525V72H456.709ZM466.582 60.544H463.766C464.31 56.8 466.774 54.592 470.934 54.592C475.478 54.592 477.686 57.248 477.686 61.216V67.904C477.686 69.856 477.846 71.072 478.294 72H475.318C474.998 71.328 474.902 70.336 474.87 69.312C473.43 71.456 471.126 72.384 469.078 72.384C465.558 72.384 463.19 70.752 463.19 67.52C463.19 65.184 464.47 63.488 466.966 62.656C469.27 61.888 471.606 61.696 474.87 61.664V61.28C474.87 58.528 473.59 57.024 470.678 57.024C468.246 57.024 466.934 58.368 466.582 60.544ZM466.07 67.456C466.07 69.024 467.382 69.952 469.366 69.952C472.502 69.952 474.87 67.488 474.87 64.576V63.776C467.638 63.84 466.07 65.376 466.07 67.456ZM482.303 72V48.96H485.119V72H482.303ZM495.99 72V55.008H498.806V57.184C499.894 55.456 501.59 54.592 503.67 54.592C506.006 54.592 507.702 55.616 508.502 57.6C509.622 55.616 511.478 54.592 513.75 54.592C517.206 54.592 519.286 56.704 519.286 60.64V72H516.47V61.216C516.47 58.656 515.446 56.992 513.142 56.992C510.582 56.992 509.046 59.52 509.046 61.952V72H506.23V61.216C506.23 58.656 505.206 56.992 502.902 56.992C500.342 56.992 498.806 59.52 498.806 61.952V72H495.99ZM538.459 66.464C537.531 70.432 534.683 72.384 530.811 72.384C525.883 72.384 522.907 69.056 522.907 63.52C522.907 57.76 525.883 54.592 530.651 54.592C535.451 54.592 538.331 57.888 538.331 63.296V64H525.787C525.947 67.808 527.739 69.952 530.811 69.952C533.211 69.952 534.907 68.8 535.515 66.464H538.459ZM530.651 57.024C527.931 57.024 526.299 58.72 525.883 61.888H535.387C535.003 58.752 533.307 57.024 530.651 57.024ZM548.452 72.384C543.94 72.384 541.22 69.056 541.22 63.52C541.22 57.76 544.004 54.592 548.452 54.592C550.468 54.592 552.1 55.424 553.22 56.992V48.96H556.036V72H553.22V69.856C552.1 71.456 550.468 72.384 548.452 72.384ZM548.644 69.952C551.62 69.952 553.22 67.68 553.22 63.52C553.22 59.392 551.556 57.024 548.644 57.024C545.7 57.024 544.1 59.328 544.1 63.52C544.1 67.616 545.764 69.952 548.644 69.952ZM560.521 52.736V48.96H563.337V52.736H560.521ZM560.521 72V55.008H563.337V72H560.521ZM570.395 60.544H567.579C568.123 56.8 570.587 54.592 574.747 54.592C579.291 54.592 581.499 57.248 581.499 61.216V67.904C581.499 69.856 581.659 71.072 582.107 72H579.131C578.811 71.328 578.715 70.336 578.683 69.312C577.243 71.456 574.939 72.384 572.891 72.384C569.371 72.384 567.003 70.752 567.003 67.52C567.003 65.184 568.283 63.488 570.779 62.656C573.083 61.888 575.419 61.696 578.683 61.664V61.28C578.683 58.528 577.403 57.024 574.491 57.024C572.059 57.024 570.747 58.368 570.395 60.544ZM569.883 67.456C569.883 69.024 571.195 69.952 573.179 69.952C576.315 69.952 578.683 67.488 578.683 64.576V63.776C571.451 63.84 569.883 65.376 569.883 67.456ZM595.369 79.04H592.553V55.008H595.369V57.12C596.489 55.52 598.121 54.592 600.137 54.592C604.649 54.592 607.369 57.92 607.369 63.456C607.369 69.216 604.585 72.384 600.137 72.384C598.121 72.384 596.489 71.552 595.369 69.984V79.04ZM599.945 57.024C596.969 57.024 595.369 59.296 595.369 63.456C595.369 67.584 597.033 69.952 599.945 69.952C602.889 69.952 604.489 67.648 604.489 63.456C604.489 59.36 602.825 57.024 599.945 57.024ZM610.99 72V55.008H613.806V57.632C614.958 55.552 616.782 54.592 618.83 54.592C619.502 54.592 620.11 54.752 620.43 55.008V57.536C619.95 57.376 619.342 57.312 618.67 57.312C615.278 57.312 613.806 59.424 613.806 62.496V72H610.99ZM629.527 72.384C624.663 72.384 621.751 69.056 621.751 63.52C621.751 57.76 624.759 54.592 629.527 54.592C634.391 54.592 637.303 57.984 637.303 63.52C637.303 69.248 634.295 72.384 629.527 72.384ZM629.527 69.952C632.695 69.952 634.423 67.68 634.423 63.52C634.423 59.392 632.663 57.024 629.527 57.024C626.359 57.024 624.631 59.328 624.631 63.52C624.631 67.616 626.391 69.952 629.527 69.952ZM640.928 72V55.008H643.744V57.184C644.832 55.456 646.528 54.592 648.608 54.592C650.944 54.592 652.64 55.616 653.44 57.6C654.56 55.616 656.416 54.592 658.688 54.592C662.144 54.592 664.224 56.704 664.224 60.64V72H661.408V61.216C661.408 58.656 660.384 56.992 658.08 56.992C655.52 56.992 653.984 59.52 653.984 61.952V72H651.168V61.216C651.168 58.656 650.144 56.992 647.84 56.992C645.28 56.992 643.744 59.52 643.744 61.952V72H640.928ZM675.621 72.384C670.757 72.384 667.845 69.056 667.845 63.52C667.845 57.76 670.853 54.592 675.621 54.592C680.485 54.592 683.397 57.984 683.397 63.52C683.397 69.248 680.389 72.384 675.621 72.384ZM675.621 69.952C678.789 69.952 680.517 67.68 680.517 63.52C680.517 59.392 678.757 57.024 675.621 57.024C672.453 57.024 670.725 59.328 670.725 63.52C670.725 67.616 672.485 69.952 675.621 69.952ZM687.405 67.104V57.248H685.037V55.008H687.405V51.104H690.221V55.008H693.965V57.248H690.221V67.104C690.221 69.152 690.829 70.112 693.325 70.112H693.901V72.128C693.581 72.288 692.877 72.384 692.077 72.384C688.909 72.384 687.405 70.688 687.405 67.104ZM696.646 52.736V48.96H699.462V52.736H696.646ZM696.646 72V55.008H699.462V72H696.646ZM710.84 72.384C705.976 72.384 703.064 69.056 703.064 63.52C703.064 57.76 706.072 54.592 710.84 54.592C715.704 54.592 718.616 57.984 718.616 63.52C718.616 69.248 715.608 72.384 710.84 72.384ZM710.84 69.952C714.008 69.952 715.736 67.68 715.736 63.52C715.736 59.392 713.976 57.024 710.84 57.024C707.672 57.024 705.944 59.328 705.944 63.52C705.944 67.616 707.704 69.952 710.84 69.952ZM722.24 72V55.008H725.056V57.312C726.208 55.52 728.064 54.592 730.304 54.592C733.92 54.592 736.064 56.704 736.064 60.64V72H733.248V61.216C733.248 58.656 732.096 56.992 729.536 56.992C726.72 56.992 725.056 59.52 725.056 61.952V72H722.24ZM740.233 72V68.544H743.689V72H740.233ZM41.9324 112V92.736H34.4764V90.24H52.3324V92.736H44.8764V112H41.9324ZM55.5681 112V88.96H58.3841V97.312C59.5361 95.52 61.3921 94.592 63.6321 94.592C67.2481 94.592 69.3921 96.704 69.3921 100.64V112H66.5761V101.216C66.5761 98.656 65.4241 96.992 62.8641 96.992C60.0481 96.992 58.3841 99.52 58.3841 101.952V112H55.5681ZM88.5686 106.464C87.6406 110.432 84.7926 112.384 80.9206 112.384C75.9926 112.384 73.0166 109.056 73.0166 103.52C73.0166 97.76 75.9926 94.592 80.7606 94.592C85.5606 94.592 88.4406 97.888 88.4406 103.296V104H75.8966C76.0566 107.808 77.8486 109.952 80.9206 109.952C83.3206 109.952 85.0166 108.8 85.6246 106.464H88.5686ZM80.7606 97.024C78.0406 97.024 76.4086 98.72 75.9926 101.888H85.4966C85.1126 98.752 83.4166 97.024 80.7606 97.024ZM101.447 119.04H98.6314V95.008H101.447V97.12C102.567 95.52 104.199 94.592 106.215 94.592C110.727 94.592 113.447 97.92 113.447 103.456C113.447 109.216 110.663 112.384 106.215 112.384C104.199 112.384 102.567 111.552 101.447 109.984V119.04ZM106.023 97.024C103.047 97.024 101.447 99.296 101.447 103.456C101.447 107.584 103.111 109.952 106.023 109.952C108.967 109.952 110.567 107.648 110.567 103.456C110.567 99.36 108.903 97.024 106.023 97.024ZM117.068 112V95.008H119.884V97.632C121.036 95.552 122.86 94.592 124.908 94.592C125.58 94.592 126.188 94.752 126.508 95.008V97.536C126.028 97.376 125.42 97.312 124.748 97.312C121.356 97.312 119.884 99.424 119.884 102.496V112H117.068ZM135.605 112.384C130.741 112.384 127.829 109.056 127.829 103.52C127.829 97.76 130.837 94.592 135.605 94.592C140.469 94.592 143.381 97.984 143.381 103.52C143.381 109.248 140.373 112.384 135.605 112.384ZM135.605 109.952C138.773 109.952 140.501 107.68 140.501 103.52C140.501 99.392 138.741 97.024 135.605 97.024C132.437 97.024 130.709 99.328 130.709 103.52C130.709 107.616 132.469 109.952 135.605 109.952ZM149.822 112H147.006V88.96H149.822V97.12C150.942 95.52 152.574 94.592 154.59 94.592C159.102 94.592 161.822 97.92 161.822 103.456C161.822 109.216 159.038 112.384 154.59 112.384C152.574 112.384 150.942 111.552 149.822 109.984V112ZM154.398 97.024C151.422 97.024 149.822 99.296 149.822 103.456C149.822 107.584 151.486 109.952 154.398 109.952C157.342 109.952 158.942 107.648 158.942 103.456C158.942 99.36 157.278 97.024 154.398 97.024ZM165.443 112V88.96H168.259V112H165.443ZM187.412 106.464C186.484 110.432 183.636 112.384 179.764 112.384C174.836 112.384 171.86 109.056 171.86 103.52C171.86 97.76 174.836 94.592 179.604 94.592C184.404 94.592 187.284 97.888 187.284 103.296V104H174.74C174.9 107.808 176.692 109.952 179.764 109.952C182.164 109.952 183.86 108.8 184.468 106.464H187.412ZM179.604 97.024C176.884 97.024 175.252 98.72 174.836 101.888H184.34C183.956 98.752 182.26 97.024 179.604 97.024ZM191.037 112V95.008H193.853V97.184C194.941 95.456 196.637 94.592 198.717 94.592C201.053 94.592 202.749 95.616 203.549 97.6C204.669 95.616 206.525 94.592 208.797 94.592C212.253 94.592 214.333 96.704 214.333 100.64V112H211.517V101.216C211.517 98.656 210.493 96.992 208.189 96.992C205.629 96.992 204.093 99.52 204.093 101.952V112H201.277V101.216C201.277 98.656 200.253 96.992 197.949 96.992C195.389 96.992 193.853 99.52 193.853 101.952V112H191.037ZM225.224 92.736V88.96H228.04V92.736H225.224ZM225.224 112V95.008H228.04V112H225.224ZM234.586 99.36C234.586 104.096 245.626 100.192 245.626 107.2C245.626 110.368 242.81 112.384 238.81 112.384C234.778 112.384 231.962 110.464 231.322 106.464H234.138C234.522 108.832 236.282 110.144 238.906 110.144C241.466 110.144 242.81 108.992 242.81 107.392C242.81 102.752 231.898 106.592 231.898 99.552C231.898 96.96 233.914 94.592 238.074 94.592C241.754 94.592 244.474 96.32 245.018 100.544H242.202C241.786 97.888 240.314 96.896 237.914 96.896C235.802 96.896 234.586 97.952 234.586 99.36ZM253.301 97.248V95.008H255.669V93.856C255.669 90.272 257.141 88.576 260.277 88.576C260.981 88.576 261.557 88.704 261.845 88.832V90.848H261.557C259.093 90.848 258.485 91.808 258.485 93.856V95.008H261.845V97.248H258.485V112H255.669V97.248H253.301ZM264.085 92.736V88.96H266.901V92.736H264.085ZM264.085 112V95.008H266.901V112H264.085ZM271.381 112V95.008H274.197V97.312C275.349 95.52 277.205 94.592 279.445 94.592C283.061 94.592 285.205 96.704 285.205 100.64V112H282.389V101.216C282.389 98.656 281.237 96.992 278.677 96.992C275.861 96.992 274.197 99.52 274.197 101.952V112H271.381ZM296.061 112.384C291.549 112.384 288.829 109.056 288.829 103.52C288.829 97.76 291.613 94.592 296.061 94.592C298.077 94.592 299.709 95.424 300.829 96.992V88.96H303.645V112H300.829V109.856C299.709 111.456 298.077 112.384 296.061 112.384ZM296.253 109.952C299.229 109.952 300.829 107.68 300.829 103.52C300.829 99.392 299.165 97.024 296.253 97.024C293.309 97.024 291.709 99.328 291.709 103.52C291.709 107.616 293.373 109.952 296.253 109.952ZM308.131 92.736V88.96H310.947V92.736H308.131ZM308.131 112V95.008H310.947V112H308.131ZM315.412 112V95.008H318.228V97.312C319.38 95.52 321.236 94.592 323.476 94.592C327.092 94.592 329.236 96.704 329.236 100.64V112H326.42V101.216C326.42 98.656 325.268 96.992 322.708 96.992C319.892 96.992 318.228 99.52 318.228 101.952V112H315.412ZM339.772 112.128C335.452 112.128 332.86 108.832 332.86 103.392C332.86 97.696 335.516 94.592 339.772 94.592C342.044 94.592 343.74 95.392 344.86 96.864V95.008H347.676V112.512C347.676 117.248 344.636 119.456 340.732 119.456C336.732 119.456 333.916 117.536 333.308 113.664H336.124C336.476 115.904 338.236 117.12 340.7 117.12C343.196 117.12 344.86 115.776 344.86 112.608V109.696C343.676 111.296 341.948 112.128 339.772 112.128ZM340.284 109.696C343.26 109.696 344.86 107.456 344.86 103.36C344.86 99.36 343.196 97.024 340.284 97.024C337.34 97.024 335.74 99.264 335.74 103.392C335.74 107.392 337.372 109.696 340.284 109.696ZM361.191 100.544H358.375C358.919 96.8 361.383 94.592 365.543 94.592C370.087 94.592 372.295 97.248 372.295 101.216V107.904C372.295 109.856 372.455 111.072 372.903 112H369.927C369.607 111.328 369.511 110.336 369.479 109.312C368.039 111.456 365.735 112.384 363.687 112.384C360.167 112.384 357.799 110.752 357.799 107.52C357.799 105.184 359.079 103.488 361.575 102.656C363.879 101.888 366.215 101.696 369.479 101.664V101.28C369.479 98.528 368.199 97.024 365.287 97.024C362.855 97.024 361.543 98.368 361.191 100.544ZM360.679 107.456C360.679 109.024 361.991 109.952 363.975 109.952C367.111 109.952 369.479 107.488 369.479 104.576V103.776C362.247 103.84 360.679 105.376 360.679 107.456ZM376.912 112V95.008H379.728V97.312C380.88 95.52 382.736 94.592 384.976 94.592C388.592 94.592 390.736 96.704 390.736 100.64V112H387.92V101.216C387.92 98.656 386.768 96.992 384.208 96.992C381.392 96.992 379.728 99.52 379.728 101.952V112H376.912ZM401.592 112.384C397.08 112.384 394.36 109.056 394.36 103.52C394.36 97.76 397.144 94.592 401.592 94.592C403.608 94.592 405.24 95.424 406.36 96.992V88.96H409.176V112H406.36V109.856C405.24 111.456 403.608 112.384 401.592 112.384ZM401.784 109.952C404.76 109.952 406.36 107.68 406.36 103.52C406.36 99.392 404.696 97.024 401.784 97.024C398.84 97.024 397.24 99.328 397.24 103.52C397.24 107.616 398.904 109.952 401.784 109.952ZM434.756 106.464C433.828 110.432 430.98 112.384 427.108 112.384C422.18 112.384 419.204 109.056 419.204 103.52C419.204 97.76 422.18 94.592 426.948 94.592C431.748 94.592 434.628 97.888 434.628 103.296V104H422.084C422.244 107.808 424.036 109.952 427.108 109.952C429.508 109.952 431.204 108.8 431.812 106.464H434.756ZM426.948 97.024C424.228 97.024 422.596 98.72 422.18 101.888H431.684C431.3 98.752 429.604 97.024 426.948 97.024ZM444.749 112.384C440.237 112.384 437.517 109.056 437.517 103.52C437.517 97.76 440.301 94.592 444.749 94.592C446.765 94.592 448.397 95.424 449.517 96.992V88.96H452.333V112H449.517V109.856C448.397 111.456 446.765 112.384 444.749 112.384ZM444.941 109.952C447.917 109.952 449.517 107.68 449.517 103.52C449.517 99.392 447.853 97.024 444.941 97.024C441.997 97.024 440.397 99.328 440.397 103.52C440.397 107.616 442.061 109.952 444.941 109.952ZM456.818 92.736V88.96H459.634V92.736H456.818ZM456.818 112V95.008H459.634V112H456.818ZM464.483 107.104V97.248H462.115V95.008H464.483V91.104H467.299V95.008H471.043V97.248H467.299V107.104C467.299 109.152 467.907 110.112 470.403 110.112H470.979V112.128C470.659 112.288 469.955 112.384 469.155 112.384C465.987 112.384 464.483 110.688 464.483 107.104ZM473.724 92.736V88.96H476.54V92.736H473.724ZM473.724 112V95.008H476.54V112H473.724ZM481.006 112V95.008H483.822V97.312C484.974 95.52 486.83 94.592 489.07 94.592C492.686 94.592 494.83 96.704 494.83 100.64V112H492.014V101.216C492.014 98.656 490.862 96.992 488.302 96.992C485.486 96.992 483.822 99.52 483.822 101.952V112H481.006ZM505.366 112.128C501.046 112.128 498.454 108.832 498.454 103.392C498.454 97.696 501.11 94.592 505.366 94.592C507.638 94.592 509.334 95.392 510.454 96.864V95.008H513.27V112.512C513.27 117.248 510.23 119.456 506.326 119.456C502.326 119.456 499.51 117.536 498.902 113.664H501.718C502.07 115.904 503.83 117.12 506.294 117.12C508.79 117.12 510.454 115.776 510.454 112.608V109.696C509.27 111.296 507.542 112.128 505.366 112.128ZM505.878 109.696C508.854 109.696 510.454 107.456 510.454 103.36C510.454 99.36 508.79 97.024 505.878 97.024C502.934 97.024 501.334 99.264 501.334 103.392C501.334 107.392 502.966 109.696 505.878 109.696ZM524.577 107.104V97.248H522.209V95.008H524.577V91.104H527.393V95.008H531.137V97.248H527.393V107.104C527.393 109.152 528.001 110.112 530.497 110.112H531.073V112.128C530.753 112.288 530.049 112.384 529.249 112.384C526.081 112.384 524.577 110.688 524.577 107.104ZM533.818 112V88.96H536.634V97.312C537.786 95.52 539.642 94.592 541.882 94.592C545.498 94.592 547.642 96.704 547.642 100.64V112H544.826V101.216C544.826 98.656 543.674 96.992 541.114 96.992C538.298 96.992 536.634 99.52 536.634 101.952V112H533.818ZM566.819 106.464C565.891 110.432 563.043 112.384 559.171 112.384C554.243 112.384 551.267 109.056 551.267 103.52C551.267 97.76 554.243 94.592 559.011 94.592C563.811 94.592 566.691 97.888 566.691 103.296V104H554.147C554.307 107.808 556.099 109.952 559.171 109.952C561.571 109.952 563.267 108.8 563.875 106.464H566.819ZM559.011 97.024C556.291 97.024 554.659 98.72 554.243 101.888H563.747C563.363 98.752 561.667 97.024 559.011 97.024ZM579.665 112H576.849V88.96H579.665V97.12C580.785 95.52 582.417 94.592 584.433 94.592C588.945 94.592 591.665 97.92 591.665 103.456C591.665 109.216 588.881 112.384 584.433 112.384C582.417 112.384 580.785 111.552 579.665 109.984V112ZM584.241 97.024C581.265 97.024 579.665 99.296 579.665 103.456C579.665 107.584 581.329 109.952 584.241 109.952C587.185 109.952 588.785 107.648 588.785 103.456C588.785 99.36 587.121 97.024 584.241 97.024ZM609.975 106.464C609.047 110.432 606.199 112.384 602.327 112.384C597.399 112.384 594.423 109.056 594.423 103.52C594.423 97.76 597.399 94.592 602.167 94.592C606.967 94.592 609.847 97.888 609.847 103.296V104H597.303C597.463 107.808 599.255 109.952 602.327 109.952C604.727 109.952 606.423 108.8 607.031 106.464H609.975ZM602.167 97.024C599.447 97.024 597.815 98.72 597.399 101.888H606.903C606.519 98.752 604.823 97.024 602.167 97.024ZM615.679 99.36C615.679 104.096 626.719 100.192 626.719 107.2C626.719 110.368 623.903 112.384 619.903 112.384C615.871 112.384 613.055 110.464 612.415 106.464H615.231C615.615 108.832 617.375 110.144 619.999 110.144C622.559 110.144 623.903 108.992 623.903 107.392C623.903 102.752 612.991 106.592 612.991 99.552C612.991 96.96 615.007 94.592 619.167 94.592C622.847 94.592 625.567 96.32 626.111 100.544H623.295C622.879 97.888 621.407 96.896 619.007 96.896C616.895 96.896 615.679 97.952 615.679 99.36ZM630.452 107.104V97.248H628.084V95.008H630.452V91.104H633.268V95.008H637.012V97.248H633.268V107.104C633.268 109.152 633.876 110.112 636.372 110.112H636.948V112.128C636.628 112.288 635.924 112.384 635.124 112.384C631.956 112.384 630.452 110.688 630.452 107.104ZM660.883 106.272C660.883 109.76 658.259 112.384 653.171 112.384C648.595 112.384 645.747 110.016 645.171 106.08H648.051C648.435 108.448 650.035 109.952 653.139 109.952C656.339 109.952 658.003 108.544 658.003 106.144C658.003 104.384 657.075 102.496 652.243 102.496H651.411V100.256H652.083C656.659 100.256 657.395 98.368 657.395 96.928C657.395 94.752 655.955 93.472 653.203 93.472C650.323 93.472 648.851 94.912 648.467 97.28H645.619C646.163 93.408 648.819 91.04 653.235 91.04C657.875 91.04 660.275 93.536 660.275 96.896C660.275 98.816 659.443 100.32 657.299 101.216C659.955 102.208 660.883 104.064 660.883 106.272ZM671.513 112.384C666.425 112.384 663.481 108.416 663.481 101.728C663.481 94.848 666.489 91.04 671.513 91.04C676.569 91.04 679.513 95.008 679.513 101.728C679.513 108.608 676.505 112.384 671.513 112.384ZM671.513 109.952C674.809 109.952 676.633 107.008 676.633 101.728C676.633 96.48 674.777 93.472 671.513 93.472C668.185 93.472 666.361 96.384 666.361 101.728C666.361 106.912 668.217 109.952 671.513 109.952ZM682.91 104.48V102.08H691.422V104.48H682.91ZM695.113 97.952C695.113 93.6 698.185 91.04 702.569 91.04C702.601 91.04 702.601 91.04 702.633 91.04C707.593 91.072 710.665 94.368 710.665 101.632C710.665 108.608 707.529 112.384 702.505 112.384C698.761 112.384 696.009 110.272 695.049 106.368H697.929C698.601 108.768 700.329 109.952 702.601 109.952C706.089 109.952 707.977 107.136 707.977 101.984C706.857 103.936 704.841 105.056 702.473 105.056C698.089 105.056 695.113 102.464 695.113 97.952ZM702.665 93.472C699.849 93.472 697.993 95.072 697.993 97.952C697.993 100.896 699.849 102.624 702.665 102.624C705.449 102.624 707.305 100.928 707.305 97.952C707.305 95.136 705.449 93.472 702.665 93.472ZM721.294 112.384C716.206 112.384 713.262 108.416 713.262 101.728C713.262 94.848 716.27 91.04 721.294 91.04C726.35 91.04 729.294 95.008 729.294 101.728C729.294 108.608 726.286 112.384 721.294 112.384ZM721.294 109.952C724.59 109.952 726.414 107.008 726.414 101.728C726.414 96.48 724.558 93.472 721.294 93.472C717.966 93.472 716.142 96.384 716.142 101.728C716.142 106.912 717.998 109.952 721.294 109.952ZM68.6013 139.36C68.6013 144.096 79.6413 140.192 79.6413 147.2C79.6413 150.368 76.8253 152.384 72.8253 152.384C68.7933 152.384 65.9773 150.464 65.3373 146.464H68.1533C68.5373 148.832 70.2973 150.144 72.9213 150.144C75.4813 150.144 76.8253 148.992 76.8253 147.392C76.8253 142.752 65.9133 146.592 65.9133 139.552C65.9133 136.96 67.9293 134.592 72.0893 134.592C75.7693 134.592 78.4893 136.32 79.0333 140.544H76.2173C75.8013 137.888 74.3293 136.896 71.9293 136.896C69.8173 136.896 68.6013 137.952 68.6013 139.36ZM97.678 146.464C96.75 150.432 93.902 152.384 90.03 152.384C85.102 152.384 82.126 149.056 82.126 143.52C82.126 137.76 85.102 134.592 89.87 134.592C94.67 134.592 97.55 137.888 97.55 143.296V144H85.006C85.166 147.808 86.958 149.952 90.03 149.952C92.43 149.952 94.126 148.8 94.734 146.464H97.678ZM89.87 137.024C87.15 137.024 85.518 138.72 85.102 141.888H94.606C94.222 138.752 92.526 137.024 89.87 137.024ZM115.351 140.864H112.535C112.087 138.272 110.359 137.024 108.119 137.024C104.983 137.024 103.319 139.328 103.319 143.52C103.319 147.648 105.079 149.984 108.215 149.984C110.487 149.984 112.119 148.768 112.663 146.336H115.479C114.711 150.56 111.863 152.384 108.151 152.384C103.319 152.384 100.439 149.024 100.439 143.52C100.439 137.76 103.383 134.592 108.119 134.592C111.863 134.592 114.807 136.704 115.351 140.864ZM125.871 152.384C121.007 152.384 118.095 149.056 118.095 143.52C118.095 137.76 121.103 134.592 125.871 134.592C130.735 134.592 133.647 137.984 133.647 143.52C133.647 149.248 130.639 152.384 125.871 152.384ZM125.871 149.952C129.039 149.952 130.767 147.68 130.767 143.52C130.767 139.392 129.007 137.024 125.871 137.024C122.703 137.024 120.975 139.328 120.975 143.52C120.975 147.616 122.735 149.952 125.871 149.952ZM137.271 152V135.008H140.087V137.312C141.239 135.52 143.095 134.592 145.335 134.592C148.951 134.592 151.095 136.704 151.095 140.64V152H148.279V141.216C148.279 138.656 147.127 136.992 144.567 136.992C141.751 136.992 140.087 139.52 140.087 141.952V152H137.271ZM161.952 152.384C157.44 152.384 154.72 149.056 154.72 143.52C154.72 137.76 157.504 134.592 161.952 134.592C163.968 134.592 165.6 135.424 166.72 136.992V128.96H169.536V152H166.72V149.856C165.6 151.456 163.968 152.384 161.952 152.384ZM162.144 149.952C165.12 149.952 166.72 147.68 166.72 143.52C166.72 139.392 165.056 137.024 162.144 137.024C159.2 137.024 157.6 139.328 157.6 143.52C157.6 147.616 159.264 149.952 162.144 149.952ZM194.476 140.864H191.66C191.212 138.272 189.484 137.024 187.244 137.024C184.108 137.024 182.444 139.328 182.444 143.52C182.444 147.648 184.204 149.984 187.34 149.984C189.612 149.984 191.244 148.768 191.788 146.336H194.604C193.836 150.56 190.988 152.384 187.276 152.384C182.444 152.384 179.564 149.024 179.564 143.52C179.564 137.76 182.508 134.592 187.244 134.592C190.988 134.592 193.932 136.704 194.476 140.864ZM198.084 152V128.96H200.9V152H198.084ZM205.365 132.736V128.96H208.181V132.736H205.365ZM205.365 152V135.008H208.181V152H205.365ZM215.494 159.04H212.678V135.008H215.494V137.12C216.614 135.52 218.246 134.592 220.262 134.592C224.774 134.592 227.494 137.92 227.494 143.456C227.494 149.216 224.71 152.384 220.262 152.384C218.246 152.384 216.614 151.552 215.494 149.984V159.04ZM220.07 137.024C217.094 137.024 215.494 139.296 215.494 143.456C215.494 147.584 217.158 149.952 220.07 149.952C223.014 149.952 224.614 147.648 224.614 143.456C224.614 139.36 222.95 137.024 220.07 137.024ZM233.195 139.36C233.195 144.096 244.235 140.192 244.235 147.2C244.235 150.368 241.419 152.384 237.419 152.384C233.387 152.384 230.571 150.464 229.931 146.464H232.747C233.131 148.832 234.891 150.144 237.515 150.144C240.075 150.144 241.419 148.992 241.419 147.392C241.419 142.752 230.507 146.592 230.507 139.552C230.507 136.96 232.523 134.592 236.683 134.592C240.363 134.592 243.083 136.32 243.627 140.544H240.811C240.395 137.888 238.923 136.896 236.523 136.896C234.411 136.896 233.195 137.952 233.195 139.36ZM251.91 137.248V135.008H254.278V133.856C254.278 130.272 255.75 128.576 258.886 128.576C259.59 128.576 260.166 128.704 260.454 128.832V130.848H260.166C257.702 130.848 257.094 131.808 257.094 133.856V135.008H260.454V137.248H257.094V152H254.278V137.248H251.91ZM262.709 152V135.008H265.525V137.632C266.677 135.552 268.501 134.592 270.549 134.592C271.221 134.592 271.829 134.752 272.149 135.008V137.536C271.669 137.376 271.061 137.312 270.389 137.312C266.997 137.312 265.525 139.424 265.525 142.496V152H262.709ZM281.246 152.384C276.382 152.384 273.47 149.056 273.47 143.52C273.47 137.76 276.478 134.592 281.246 134.592C286.11 134.592 289.022 137.984 289.022 143.52C289.022 149.248 286.014 152.384 281.246 152.384ZM281.246 149.952C284.414 149.952 286.142 147.68 286.142 143.52C286.142 139.392 284.382 137.024 281.246 137.024C278.078 137.024 276.35 139.328 276.35 143.52C276.35 147.616 278.11 149.952 281.246 149.952ZM292.646 152V135.008H295.462V137.184C296.55 135.456 298.246 134.592 300.326 134.592C302.662 134.592 304.358 135.616 305.158 137.6C306.278 135.616 308.134 134.592 310.406 134.592C313.862 134.592 315.942 136.704 315.942 140.64V152H313.126V141.216C313.126 138.656 312.102 136.992 309.798 136.992C307.238 136.992 305.702 139.52 305.702 141.952V152H302.886V141.216C302.886 138.656 301.862 136.992 299.558 136.992C296.998 136.992 295.462 139.52 295.462 141.952V152H292.646ZM329.426 140.544H326.61C327.154 136.8 329.618 134.592 333.778 134.592C338.322 134.592 340.53 137.248 340.53 141.216V147.904C340.53 149.856 340.69 151.072 341.138 152H338.162C337.842 151.328 337.746 150.336 337.714 149.312C336.274 151.456 333.97 152.384 331.922 152.384C328.402 152.384 326.034 150.752 326.034 147.52C326.034 145.184 327.314 143.488 329.81 142.656C332.114 141.888 334.45 141.696 337.714 141.664V141.28C337.714 138.528 336.434 137.024 333.522 137.024C331.09 137.024 329.778 138.368 329.426 140.544ZM328.914 147.456C328.914 149.024 330.226 149.952 332.21 149.952C335.346 149.952 337.714 147.488 337.714 144.576V143.776C330.482 143.84 328.914 145.376 328.914 147.456ZM353.729 152V149.76H357.665V135.36H353.729V133.12H356.065C357.729 133.12 358.145 132.736 358.145 131.808V131.424H360.609V149.76H364.545V152H353.729ZM369.926 144.48V142.08H378.438V144.48H369.926ZM397.68 146.272C397.68 149.76 395.056 152.384 389.968 152.384C385.392 152.384 382.544 150.016 381.968 146.08H384.848C385.232 148.448 386.832 149.952 389.936 149.952C393.136 149.952 394.8 148.544 394.8 146.144C394.8 144.384 393.872 142.496 389.04 142.496H388.208V140.256H388.88C393.456 140.256 394.192 138.368 394.192 136.928C394.192 134.752 392.752 133.472 390 133.472C387.12 133.472 385.648 134.912 385.264 137.28H382.416C382.96 133.408 385.616 131.04 390.032 131.04C394.672 131.04 397.072 133.536 397.072 136.896C397.072 138.816 396.24 140.32 394.096 141.216C396.752 142.208 397.68 144.064 397.68 146.272ZM407.74 152V128.96H410.556V137.312C411.708 135.52 413.564 134.592 415.804 134.592C419.42 134.592 421.564 136.704 421.564 140.64V152H418.748V141.216C418.748 138.656 417.596 136.992 415.036 136.992C412.22 136.992 410.556 139.52 410.556 141.952V152H407.74ZM432.965 152.384C428.101 152.384 425.189 149.056 425.189 143.52C425.189 137.76 428.197 134.592 432.965 134.592C437.829 134.592 440.741 137.984 440.741 143.52C440.741 149.248 437.733 152.384 432.965 152.384ZM432.965 149.952C436.133 149.952 437.861 147.68 437.861 143.52C437.861 139.392 436.101 137.024 432.965 137.024C429.797 137.024 428.069 139.328 428.069 143.52C428.069 147.616 429.829 149.952 432.965 149.952ZM455.181 145.056V135.008H457.997V152H455.181V149.696C454.029 151.488 452.237 152.384 450.029 152.384C446.477 152.384 444.365 150.304 444.365 146.368V135.008H447.181V145.792C447.181 148.352 448.301 149.984 450.797 149.984C453.549 149.984 455.181 147.488 455.181 145.056ZM462.49 152V135.008H465.306V137.632C466.458 135.552 468.282 134.592 470.33 134.592C471.002 134.592 471.61 134.752 471.93 135.008V137.536C471.45 137.376 470.842 137.312 470.17 137.312C466.778 137.312 465.306 139.424 465.306 142.496V152H462.49ZM483.682 159.04H480.866V135.008H483.682V137.12C484.802 135.52 486.434 134.592 488.45 134.592C492.962 134.592 495.682 137.92 495.682 143.456C495.682 149.216 492.898 152.384 488.45 152.384C486.434 152.384 484.802 151.552 483.682 149.984V159.04ZM488.258 137.024C485.282 137.024 483.682 139.296 483.682 143.456C483.682 147.584 485.346 149.952 488.258 149.952C491.202 149.952 492.802 147.648 492.802 143.456C492.802 139.36 491.138 137.024 488.258 137.024ZM506.215 152.384C501.351 152.384 498.439 149.056 498.439 143.52C498.439 137.76 501.447 134.592 506.215 134.592C511.079 134.592 513.991 137.984 513.991 143.52C513.991 149.248 510.983 152.384 506.215 152.384ZM506.215 149.952C509.383 149.952 511.111 147.68 511.111 143.52C511.111 139.392 509.351 137.024 506.215 137.024C503.047 137.024 501.319 139.328 501.319 143.52C501.319 147.616 503.079 149.952 506.215 149.952ZM523.983 152.384C519.471 152.384 516.751 149.056 516.751 143.52C516.751 137.76 519.535 134.592 523.983 134.592C525.999 134.592 527.631 135.424 528.751 136.992V128.96H531.567V152H528.751V149.856C527.631 151.456 525.999 152.384 523.983 152.384ZM524.175 149.952C527.151 149.952 528.751 147.68 528.751 143.52C528.751 139.392 527.087 137.024 524.175 137.024C521.231 137.024 519.631 139.328 519.631 143.52C519.631 147.616 521.295 149.952 524.175 149.952ZM550.101 140.864H547.285C546.837 138.272 545.109 137.024 542.869 137.024C539.733 137.024 538.069 139.328 538.069 143.52C538.069 147.648 539.829 149.984 542.965 149.984C545.237 149.984 546.869 148.768 547.413 146.336H550.229C549.461 150.56 546.613 152.384 542.901 152.384C538.069 152.384 535.189 149.024 535.189 143.52C535.189 137.76 538.133 134.592 542.869 134.592C546.613 134.592 549.557 136.704 550.101 140.864ZM556.301 140.544H553.485C554.029 136.8 556.493 134.592 560.653 134.592C565.197 134.592 567.405 137.248 567.405 141.216V147.904C567.405 149.856 567.565 151.072 568.013 152H565.037C564.717 151.328 564.621 150.336 564.589 149.312C563.149 151.456 560.845 152.384 558.797 152.384C555.277 152.384 552.909 150.752 552.909 147.52C552.909 145.184 554.189 143.488 556.685 142.656C558.989 141.888 561.325 141.696 564.589 141.664V141.28C564.589 138.528 563.309 137.024 560.397 137.024C557.965 137.024 556.653 138.368 556.301 140.544ZM555.789 147.456C555.789 149.024 557.101 149.952 559.085 149.952C562.221 149.952 564.589 147.488 564.589 144.576V143.776C557.357 143.84 555.789 145.376 555.789 147.456ZM574.101 139.36C574.101 144.096 585.141 140.192 585.141 147.2C585.141 150.368 582.325 152.384 578.325 152.384C574.293 152.384 571.477 150.464 570.837 146.464H573.653C574.037 148.832 575.797 150.144 578.421 150.144C580.981 150.144 582.325 148.992 582.325 147.392C582.325 142.752 571.413 146.592 571.413 139.552C571.413 136.96 573.429 134.592 577.589 134.592C581.269 134.592 583.989 136.32 584.533 140.544H581.717C581.301 137.888 579.829 136.896 577.429 136.896C575.317 136.896 574.101 137.952 574.101 139.36ZM588.874 147.104V137.248H586.506V135.008H588.874V131.104H591.69V135.008H595.434V137.248H591.69V147.104C591.69 149.152 592.298 150.112 594.794 150.112H595.37V152.128C595.05 152.288 594.346 152.384 593.546 152.384C590.378 152.384 588.874 150.688 588.874 147.104ZM618.569 140.864H615.753C615.305 138.272 613.577 137.024 611.337 137.024C608.201 137.024 606.537 139.328 606.537 143.52C606.537 147.648 608.297 149.984 611.433 149.984C613.705 149.984 615.337 148.768 615.881 146.336H618.697C617.929 150.56 615.081 152.384 611.369 152.384C606.537 152.384 603.657 149.024 603.657 143.52C603.657 137.76 606.601 134.592 611.337 134.592C615.081 134.592 618.025 136.704 618.569 140.864ZM624.77 140.544H621.954C622.498 136.8 624.962 134.592 629.122 134.592C633.666 134.592 635.874 137.248 635.874 141.216V147.904C635.874 149.856 636.034 151.072 636.482 152H633.506C633.186 151.328 633.09 150.336 633.058 149.312C631.618 151.456 629.314 152.384 627.266 152.384C623.746 152.384 621.378 150.752 621.378 147.52C621.378 145.184 622.658 143.488 625.154 142.656C627.458 141.888 629.794 141.696 633.058 141.664V141.28C633.058 138.528 631.778 137.024 628.866 137.024C626.434 137.024 625.122 138.368 624.77 140.544ZM624.258 147.456C624.258 149.024 625.57 149.952 627.554 149.952C630.69 149.952 633.058 147.488 633.058 144.576V143.776C625.826 143.84 624.258 145.376 624.258 147.456ZM640.49 152V135.008H643.306V137.312C644.458 135.52 646.314 134.592 648.554 134.592C652.17 134.592 654.314 136.704 654.314 140.64V152H651.498V141.216C651.498 138.656 650.346 136.992 647.786 136.992C644.97 136.992 643.306 139.52 643.306 141.952V152H640.49ZM668.025 152H665.209V128.96H668.025V137.12C669.145 135.52 670.777 134.592 672.793 134.592C677.305 134.592 680.025 137.92 680.025 143.456C680.025 149.216 677.241 152.384 672.793 152.384C670.777 152.384 669.145 151.552 668.025 149.984V152ZM672.601 137.024C669.625 137.024 668.025 139.296 668.025 143.456C668.025 147.584 669.689 149.952 672.601 149.952C675.545 149.952 677.145 147.648 677.145 143.456C677.145 139.36 675.481 137.024 672.601 137.024ZM698.334 146.464C697.406 150.432 694.558 152.384 690.686 152.384C685.758 152.384 682.782 149.056 682.782 143.52C682.782 137.76 685.758 134.592 690.526 134.592C695.326 134.592 698.206 137.888 698.206 143.296V144H685.662C685.822 147.808 687.614 149.952 690.686 149.952C693.086 149.952 694.782 148.8 695.39 146.464H698.334ZM690.526 137.024C687.806 137.024 686.174 138.72 685.758 141.888H695.262C694.878 138.752 693.182 137.024 690.526 137.024ZM168.944 186.464C168.016 190.432 165.168 192.384 161.296 192.384C156.368 192.384 153.392 189.056 153.392 183.52C153.392 177.76 156.368 174.592 161.136 174.592C165.936 174.592 168.816 177.888 168.816 183.296V184H156.272C156.432 187.808 158.224 189.952 161.296 189.952C163.696 189.952 165.392 188.8 166 186.464H168.944ZM161.136 177.024C158.416 177.024 156.784 178.72 156.368 181.888H165.872C165.488 178.752 163.792 177.024 161.136 177.024ZM182.915 192L178.851 186.336L178.019 185.024L177.187 186.336L173.219 192H170.019L176.483 183.168L170.531 175.008H174.051L177.571 180L178.435 181.376L179.267 180L182.723 175.008H185.923L179.971 183.168L186.435 192H182.915ZM191.697 199.04H188.881V175.008H191.697V177.12C192.817 175.52 194.449 174.592 196.465 174.592C200.977 174.592 203.697 177.92 203.697 183.456C203.697 189.216 200.913 192.384 196.465 192.384C194.449 192.384 192.817 191.552 191.697 189.984V199.04ZM196.273 177.024C193.297 177.024 191.697 179.296 191.697 183.456C191.697 187.584 193.361 189.952 196.273 189.952C199.217 189.952 200.817 187.648 200.817 183.456C200.817 179.36 199.153 177.024 196.273 177.024ZM222.006 186.464C221.078 190.432 218.23 192.384 214.358 192.384C209.43 192.384 206.454 189.056 206.454 183.52C206.454 177.76 209.43 174.592 214.198 174.592C218.998 174.592 221.878 177.888 221.878 183.296V184H209.334C209.494 187.808 211.286 189.952 214.358 189.952C216.758 189.952 218.454 188.8 219.062 186.464H222.006ZM214.198 177.024C211.478 177.024 209.846 178.72 209.43 181.888H218.934C218.55 178.752 216.854 177.024 214.198 177.024ZM225.631 192V175.008H228.447V177.312C229.599 175.52 231.455 174.592 233.695 174.592C237.311 174.592 239.455 176.704 239.455 180.64V192H236.639V181.216C236.639 178.656 235.487 176.992 232.927 176.992C230.111 176.992 228.447 179.52 228.447 181.952V192H225.631ZM246.023 179.36C246.023 184.096 257.063 180.192 257.063 187.2C257.063 190.368 254.247 192.384 250.247 192.384C246.215 192.384 243.399 190.464 242.759 186.464H245.575C245.959 188.832 247.719 190.144 250.343 190.144C252.903 190.144 254.247 188.992 254.247 187.392C254.247 182.752 243.335 186.592 243.335 179.552C243.335 176.96 245.351 174.592 249.511 174.592C253.191 174.592 255.911 176.32 256.455 180.544H253.639C253.223 177.888 251.751 176.896 249.351 176.896C247.239 176.896 246.023 177.952 246.023 179.36ZM260.412 172.736V168.96H263.228V172.736H260.412ZM260.412 192V175.008H263.228V192H260.412ZM271.949 192L265.613 175.008H268.653L273.357 188.192L273.773 189.664L274.189 188.192L278.893 175.008H281.741L275.405 192H271.949ZM298.819 186.464C297.891 190.432 295.043 192.384 291.171 192.384C286.243 192.384 283.267 189.056 283.267 183.52C283.267 177.76 286.243 174.592 291.011 174.592C295.811 174.592 298.691 177.888 298.691 183.296V184H286.147C286.307 187.808 288.099 189.952 291.171 189.952C293.571 189.952 295.267 188.8 295.875 186.464H298.819ZM291.011 177.024C288.291 177.024 286.659 178.72 286.243 181.888H295.747C295.363 178.752 293.667 177.024 291.011 177.024ZM311.441 180.544H308.625C309.169 176.8 311.633 174.592 315.793 174.592C320.337 174.592 322.545 177.248 322.545 181.216V187.904C322.545 189.856 322.705 191.072 323.153 192H320.177C319.857 191.328 319.761 190.336 319.729 189.312C318.289 191.456 315.985 192.384 313.937 192.384C310.417 192.384 308.049 190.752 308.049 187.52C308.049 185.184 309.329 183.488 311.825 182.656C314.129 181.888 316.465 181.696 319.729 181.664V181.28C319.729 178.528 318.449 177.024 315.537 177.024C313.105 177.024 311.793 178.368 311.441 180.544ZM310.929 187.456C310.929 189.024 312.241 189.952 314.225 189.952C317.361 189.952 319.729 187.488 319.729 184.576V183.776C312.497 183.84 310.929 185.376 310.929 187.456ZM327.162 192V175.008H329.978V177.312C331.13 175.52 332.986 174.592 335.226 174.592C338.842 174.592 340.986 176.704 340.986 180.64V192H338.17V181.216C338.17 178.656 337.018 176.992 334.458 176.992C331.642 176.992 329.978 179.52 329.978 181.952V192H327.162ZM351.842 192.384C347.33 192.384 344.61 189.056 344.61 183.52C344.61 177.76 347.394 174.592 351.842 174.592C353.858 174.592 355.49 175.424 356.61 176.992V168.96H359.426V192H356.61V189.856C355.49 191.456 353.858 192.384 351.842 192.384ZM352.034 189.952C355.01 189.952 356.61 187.68 356.61 183.52C356.61 179.392 354.946 177.024 352.034 177.024C349.09 177.024 347.49 179.328 347.49 183.52C347.49 187.616 349.154 189.952 352.034 189.952ZM370.702 187.104V177.248H368.334V175.008H370.702V171.104H373.518V175.008H377.262V177.248H373.518V187.104C373.518 189.152 374.126 190.112 376.622 190.112H377.198V192.128C376.878 192.288 376.174 192.384 375.374 192.384C372.206 192.384 370.702 190.688 370.702 187.104ZM379.943 172.736V168.96H382.759V172.736H379.943ZM379.943 192V175.008H382.759V192H379.943ZM387.224 192V175.008H390.04V177.184C391.128 175.456 392.824 174.592 394.904 174.592C397.24 174.592 398.936 175.616 399.736 177.6C400.856 175.616 402.712 174.592 404.984 174.592C408.44 174.592 410.52 176.704 410.52 180.64V192H407.704V181.216C407.704 178.656 406.68 176.992 404.376 176.992C401.816 176.992 400.28 179.52 400.28 181.952V192H397.464V181.216C397.464 178.656 396.44 176.992 394.136 176.992C391.576 176.992 390.04 179.52 390.04 181.952V192H387.224ZM429.694 186.464C428.766 190.432 425.918 192.384 422.046 192.384C417.118 192.384 414.142 189.056 414.142 183.52C414.142 177.76 417.118 174.592 421.886 174.592C426.686 174.592 429.566 177.888 429.566 183.296V184H417.022C417.182 187.808 418.974 189.952 422.046 189.952C424.446 189.952 426.142 188.8 426.75 186.464H429.694ZM421.886 177.024C419.166 177.024 417.534 178.72 417.118 181.888H426.622C426.238 178.752 424.542 177.024 421.886 177.024ZM433.254 184.48V182.08H441.766V184.48H433.254ZM460.272 180.864H457.456C457.008 178.272 455.28 177.024 453.04 177.024C449.904 177.024 448.24 179.328 448.24 183.52C448.24 187.648 450 189.984 453.136 189.984C455.408 189.984 457.04 188.768 457.584 186.336H460.4C459.632 190.56 456.784 192.384 453.072 192.384C448.24 192.384 445.36 189.024 445.36 183.52C445.36 177.76 448.304 174.592 453.04 174.592C456.784 174.592 459.728 176.704 460.272 180.864ZM470.793 192.384C465.929 192.384 463.017 189.056 463.017 183.52C463.017 177.76 466.025 174.592 470.793 174.592C475.657 174.592 478.569 177.984 478.569 183.52C478.569 189.248 475.561 192.384 470.793 192.384ZM470.793 189.952C473.961 189.952 475.689 187.68 475.689 183.52C475.689 179.392 473.929 177.024 470.793 177.024C467.625 177.024 465.897 179.328 465.897 183.52C465.897 187.616 467.657 189.952 470.793 189.952ZM482.193 192V175.008H485.009V177.312C486.161 175.52 488.017 174.592 490.257 174.592C493.873 174.592 496.017 176.704 496.017 180.64V192H493.201V181.216C493.201 178.656 492.049 176.992 489.489 176.992C486.673 176.992 485.009 179.52 485.009 181.952V192H482.193ZM502.586 179.36C502.586 184.096 513.626 180.192 513.626 187.2C513.626 190.368 510.81 192.384 506.81 192.384C502.778 192.384 499.962 190.464 499.322 186.464H502.138C502.522 188.832 504.282 190.144 506.906 190.144C509.466 190.144 510.81 188.992 510.81 187.392C510.81 182.752 499.898 186.592 499.898 179.552C499.898 176.96 501.914 174.592 506.074 174.592C509.754 174.592 512.474 176.32 513.018 180.544H510.202C509.786 177.888 508.314 176.896 505.914 176.896C503.802 176.896 502.586 177.952 502.586 179.36ZM527.79 185.056V175.008H530.606V192H527.79V189.696C526.638 191.488 524.846 192.384 522.638 192.384C519.086 192.384 516.974 190.304 516.974 186.368V175.008H519.79V185.792C519.79 188.352 520.91 189.984 523.406 189.984C526.158 189.984 527.79 187.488 527.79 185.056ZM535.099 192V175.008H537.915V177.184C539.003 175.456 540.699 174.592 542.779 174.592C545.115 174.592 546.811 175.616 547.611 177.6C548.731 175.616 550.587 174.592 552.859 174.592C556.315 174.592 558.395 176.704 558.395 180.64V192H555.579V181.216C555.579 178.656 554.555 176.992 552.251 176.992C549.691 176.992 548.155 179.52 548.155 181.952V192H545.339V181.216C545.339 178.656 544.315 176.992 542.011 176.992C539.451 176.992 537.915 179.52 537.915 181.952V192H535.099ZM562.881 172.736V168.96H565.697V172.736H562.881ZM562.881 192V175.008H565.697V192H562.881ZM570.162 192V175.008H572.978V177.312C574.13 175.52 575.986 174.592 578.226 174.592C581.842 174.592 583.986 176.704 583.986 180.64V192H581.17V181.216C581.17 178.656 580.018 176.992 577.458 176.992C574.642 176.992 572.978 179.52 572.978 181.952V192H570.162ZM594.522 192.128C590.202 192.128 587.61 188.832 587.61 183.392C587.61 177.696 590.266 174.592 594.522 174.592C596.794 174.592 598.49 175.392 599.61 176.864V175.008H602.426V192.512C602.426 197.248 599.386 199.456 595.482 199.456C591.482 199.456 588.666 197.536 588.058 193.664H590.874C591.226 195.904 592.986 197.12 595.45 197.12C597.946 197.12 599.61 195.776 599.61 192.608V189.696C598.426 191.296 596.698 192.128 594.522 192.128ZM595.034 189.696C598.01 189.696 599.61 187.456 599.61 183.36C599.61 179.36 597.946 177.024 595.034 177.024C592.09 177.024 590.49 179.264 590.49 183.392C590.49 187.392 592.122 189.696 595.034 189.696ZM606.623 192V188.544H610.079V192H606.623Z" fill="#8D8E92"/>
<rect x="764" y="200" width="764" height="73.0001" transform="rotate(180 764 200)" fill="url(#paint0_linear_19196_17219)"/>
<rect x="764" y="127" width="764" height="127" transform="rotate(180 764 127)" fill="url(#paint1_linear_19196_17219)"/>
<defs>
<linearGradient id="paint0_linear_19196_17219" x1="1146" y1="200" x2="1146" y2="273" gradientUnits="userSpaceOnUse">
<stop stop-color="#0C0C0C"/>
<stop offset="1" stop-color="#0C0C0C" stop-opacity="0"/>
</linearGradient>
<linearGradient id="paint1_linear_19196_17219" x1="1146" y1="127" x2="1146" y2="254" gradientUnits="userSpaceOnUse">
<stop stop-color="#0C0C0C" stop-opacity="0"/>
<stop offset="1" stop-color="#0C0C0C"/>
</linearGradient>
</defs>
</svg>
