<svg width="16" height="16" viewBox="0 0 16 16" fill="none" xmlns="http://www.w3.org/2000/svg">
<path d="M15.0584 9.53786C14.7439 9.04867 14.4294 8.57694 14.1149 8.08775C14.0451 7.98292 14.0451 7.91304 14.1149 7.80821C14.4294 7.33649 14.7264 6.86476 15.0409 6.39304C15.4078 5.83396 15.2156 5.29235 14.5867 5.06522C14.0625 4.87303 13.5384 4.66338 13.0143 4.4712C12.9094 4.43625 12.857 4.36637 12.857 4.24407C12.8395 3.66752 12.8046 3.09097 12.7697 2.53189C12.7347 1.92039 12.263 1.57097 11.669 1.72821C11.1099 1.86798 10.5508 2.02522 10.0092 2.18246C9.88691 2.2174 9.81702 2.18246 9.72966 2.0951C9.38024 1.64085 9.01334 1.20407 8.66391 0.767288C8.27955 0.278092 7.68552 0.278092 7.28369 0.767288C6.93426 1.20407 6.56736 1.64085 6.23541 2.07763C6.14805 2.19993 6.0607 2.2174 5.92093 2.18246C5.37932 2.02522 4.83771 1.88545 4.45334 1.78062C3.70208 1.60591 3.24783 1.90292 3.21288 2.53189C3.17794 3.10844 3.143 3.68499 3.12552 4.27901C3.12552 4.40131 3.07311 4.45372 2.96828 4.50614C2.42667 4.71579 1.88507 4.92545 1.34346 5.13511C0.784377 5.36223 0.609664 5.90384 0.941617 6.41051C1.2561 6.8997 1.57058 7.37143 1.88506 7.86062C1.95495 7.96545 1.95495 8.03533 1.88506 8.15763C1.55311 8.64683 1.23863 9.13603 0.924145 9.64269C0.627134 10.1144 0.819316 10.6735 1.34345 10.8832C1.88506 11.0928 2.44414 11.3025 2.98575 11.5121C3.10805 11.5471 3.14299 11.6169 3.14299 11.7392C3.16046 12.2983 3.23035 12.8399 3.23035 13.399C3.23035 13.9581 3.71954 14.4648 4.40092 14.2551C4.94253 14.0804 5.48414 13.9581 6.02575 13.8008C6.13058 13.7659 6.20046 13.7834 6.27035 13.8882C6.63724 14.3425 6.98667 14.7792 7.35356 15.2335C7.7554 15.7227 8.33196 15.7227 8.71632 15.2335C9.08322 14.7792 9.43265 14.3425 9.79954 13.8882C9.86943 13.8008 9.92184 13.7659 10.0441 13.8008C10.6032 13.9581 11.1623 14.0979 11.7214 14.2551C12.2979 14.4123 12.7871 14.0629 12.8046 13.4689C12.8395 12.8923 12.8745 12.3158 12.892 11.7218C12.892 11.582 12.9618 11.5296 13.0667 11.4946C13.5908 11.3025 14.1324 11.0928 14.6566 10.8832C15.2156 10.6036 15.3904 10.0445 15.0584 9.53786ZM10.8828 6.67258L7.38851 10.1668C7.30116 10.2542 7.17886 10.3241 7.05656 10.3415C7.02162 10.3415 6.96921 10.359 6.93426 10.359C6.77702 10.359 6.60231 10.2891 6.48001 10.1668L5.04737 8.73418C4.80277 8.48959 4.80277 8.08775 5.04737 7.84315C5.29196 7.59855 5.6938 7.59855 5.9384 7.84315L6.91679 8.82154L9.95679 5.78154C10.2014 5.53694 10.6032 5.53694 10.8478 5.78154C11.1274 6.02614 11.1274 6.42798 10.8828 6.67258Z" fill="#09B285"/>
</svg>
