<svg width="21" height="20" viewBox="0 0 21 20" fill="none" xmlns="http://www.w3.org/2000/svg">
<g clip-path="url(#clip0_21262_3321)">
<path d="M10.25 0C4.75391 0 0.25 4.50391 0.25 10C0.25 15.4961 4.75391 20 10.25 20C15.7461 20 20.25 15.4961 20.25 10C20.25 4.50391 15.7461 0 10.25 0ZM2.63281 10C2.63281 5.80465 6.05465 2.38281 10.25 2.38281C11.832 2.38281 13.3555 2.87496 14.6562 3.80074L10.25 8.20699L4.05082 14.4062C3.12496 13.1054 2.63281 11.582 2.63281 10ZM10.25 17.6172C8.66801 17.6172 7.14449 17.125 5.84375 16.1992L16.4492 5.59371C17.375 6.89449 17.8672 8.41793 17.8672 10C17.8672 14.1953 14.4454 17.6172 10.25 17.6172Z" fill="#FF3636"/>
<path d="M20.25 10C20.25 15.4961 15.7461 20 10.25 20V17.6172C14.4454 17.6172 17.8672 14.1953 17.8672 10C17.8672 8.41793 17.375 6.89449 16.4492 5.59375L10.25 11.7929V8.20699L14.6562 3.80074C13.3555 2.87496 11.832 2.38281 10.25 2.38281V0C15.7461 0 20.25 4.50391 20.25 10Z" fill="#F40000"/>
</g>
<defs>
<clipPath id="clip0_21262_3321">
<rect width="20" height="20" fill="white" transform="translate(0.25)"/>
</clipPath>
</defs>
</svg>
