<svg width="18" height="32" viewBox="0 0 18 32" fill="none" xmlns="http://www.w3.org/2000/svg">
<path d="M8.66375 20.8961C5.85298 20.8961 3.56628 18.6333 3.56628 15.8518V7.35527C3.56628 3.63779 6.62267 0.613281 10.3793 0.613281C14.136 0.613281 17.1924 3.63779 17.1924 7.35527V15.741H14.9803V7.35527C14.9803 4.8442 12.9161 2.80225 10.3793 2.80225C7.84254 2.80225 5.77832 4.84494 5.77832 7.35527V15.8518C5.77832 17.4261 7.07284 18.7072 8.66375 18.7072C10.2547 18.7072 11.5492 17.4261 11.5492 15.8518V7.95219C11.5492 7.35453 11.0579 6.86842 10.454 6.86842C9.85002 6.86842 9.35879 7.35453 9.35879 7.95219V16.0365H7.14675V7.95219C7.14675 6.14812 8.63015 4.68019 10.4532 4.68019C12.2763 4.68019 13.7597 6.14812 13.7597 7.95219V15.8518C13.7597 18.6333 11.473 20.8961 8.66225 20.8961H8.66375Z" fill="#EFB253"/>
<path d="M7.19976 31.8857V26.5333C3.14224 25.943 0 22.0837 0 17.4258H2.21204C2.21204 21.2836 4.93621 24.4226 8.28375 24.4226H9.41179V26.5429L12.9639 22.9724C14.2457 21.5149 14.9811 19.4951 14.9811 17.4258H17.1931C17.1931 20.0683 16.2741 22.5587 14.6063 24.4389L14.563 24.4847L7.2005 31.8849L7.19976 31.8857Z" fill="#EFB253"/>
</svg>
