<svg width="26" height="27" viewBox="0 0 26 27" fill="none" xmlns="http://www.w3.org/2000/svg">
<rect y="0.5" width="26" height="26" rx="13" fill="#1F1F20"/>
<path d="M16.6093 12.536C16.6093 13.1045 16.1466 13.5673 15.5781 13.5673C15.0096 13.5673 14.5468 13.1045 14.5468 12.536C14.5468 12.1287 14.789 11.7591 15.1632 11.5939L15.7005 11.3568L13 6.90039L10.2995 11.3567L10.8367 11.5939C11.2109 11.7591 11.4531 12.1287 11.4531 12.536C11.4531 13.1045 10.9903 13.5672 10.4218 13.5672C9.85333 13.5672 9.39058 13.1045 9.39058 12.536C9.39058 12.3198 9.47957 12.1461 9.59249 11.7731L4.19995 9.51629L6.93782 16.661H19.062L21.7999 9.51629L16.4074 11.7731C16.5215 12.1502 16.6093 12.3201 16.6093 12.536ZM13.5156 15.1142C13.5156 15.3989 13.2847 15.6298 13 15.6298C12.7152 15.6298 12.4843 15.3989 12.4843 15.1142C12.4843 14.8294 12.7152 14.5985 13 14.5985C13.2847 14.5985 13.5156 14.8294 13.5156 15.1142Z" fill="#FFE100"/>
<path d="M7.32812 17.6924V18.7236H6.29688V19.7549H19.7031V18.7236H18.6719V17.6924H7.32812Z" fill="#FFE100"/>
</svg>
