<svg width="764" height="127" viewBox="0 0 764 127" fill="none" xmlns="http://www.w3.org/2000/svg">
<path d="M40.0364 11.664C40.0364 16.272 50.0444 12.696 50.0444 19.392C50.0444 22.536 47.5004 24.288 44.0204 24.288C40.5164 24.288 38.1164 22.68 37.3964 19.392H39.7004C40.2284 21.336 41.6924 22.392 44.0444 22.392C46.4924 22.392 47.7884 21.312 47.7884 19.68C47.7884 14.688 37.7804 18.408 37.7804 11.808C37.7804 9.456 39.7484 7.392 43.3484 7.392C46.4924 7.392 49.0124 8.904 49.6124 12.384H47.2844C46.7804 10.224 45.3884 9.288 43.3004 9.288C41.2364 9.288 40.0364 10.224 40.0364 11.664ZM52.6253 24V6.72H54.7373V12.984C55.6013 11.64 56.9933 10.944 58.6733 10.944C61.3853 10.944 62.9933 12.528 62.9933 15.48V24H60.8813V15.912C60.8813 13.992 60.0173 12.744 58.0973 12.744C55.9853 12.744 54.7373 14.64 54.7373 16.464V24H52.6253ZM71.5437 24.288C67.8957 24.288 65.7117 21.792 65.7117 17.64C65.7117 13.32 67.9677 10.944 71.5437 10.944C75.1917 10.944 77.3757 13.488 77.3757 17.64C77.3757 21.936 75.1197 24.288 71.5437 24.288ZM71.5437 22.464C73.9197 22.464 75.2157 20.76 75.2157 17.64C75.2157 14.544 73.8957 12.768 71.5437 12.768C69.1677 12.768 67.8717 14.496 67.8717 17.64C67.8717 20.712 69.1917 22.464 71.5437 22.464ZM80.0941 24V11.256H82.2061V13.224C83.0701 11.664 84.4381 10.944 85.9741 10.944C86.4781 10.944 86.9341 11.064 87.1741 11.256V13.152C86.8141 13.032 86.3581 12.984 85.8541 12.984C83.3101 12.984 82.2061 14.568 82.2061 16.872V24H80.0941ZM89.3352 20.328V12.936H87.5592V11.256H89.3352V8.328H91.4472V11.256H94.2552V12.936H91.4472V20.328C91.4472 21.864 91.9032 22.584 93.7752 22.584H94.2072V24.096C93.9672 24.216 93.4392 24.288 92.8392 24.288C90.4632 24.288 89.3352 23.016 89.3352 20.328ZM95.7492 18.36V16.56H102.133V18.36H95.7492ZM103.917 12.936V11.256H105.693V10.392C105.693 7.704 106.797 6.432 109.149 6.432C109.677 6.432 110.109 6.528 110.325 6.624V8.136H110.109C108.261 8.136 107.805 8.856 107.805 10.392V11.256H110.325V12.936H107.805V24H105.693V12.936H103.917ZM117.2 24.288C113.552 24.288 111.368 21.792 111.368 17.64C111.368 13.32 113.624 10.944 117.2 10.944C120.848 10.944 123.032 13.488 123.032 17.64C123.032 21.936 120.776 24.288 117.2 24.288ZM117.2 22.464C119.576 22.464 120.872 20.76 120.872 17.64C120.872 14.544 119.552 12.768 117.2 12.768C114.824 12.768 113.528 14.496 113.528 17.64C113.528 20.712 114.848 22.464 117.2 22.464ZM125.75 24V11.256H127.862V13.224C128.726 11.664 130.094 10.944 131.63 10.944C132.134 10.944 132.59 11.064 132.83 11.256V13.152C132.47 13.032 132.014 12.984 131.51 12.984C128.966 12.984 127.862 14.568 127.862 16.872V24H125.75ZM134.703 24V11.256H136.815V12.888C137.631 11.592 138.903 10.944 140.463 10.944C142.215 10.944 143.487 11.712 144.087 13.2C144.927 11.712 146.319 10.944 148.023 10.944C150.615 10.944 152.175 12.528 152.175 15.48V24H150.063V15.912C150.063 13.992 149.295 12.744 147.567 12.744C145.647 12.744 144.495 14.64 144.495 16.464V24H142.383V15.912C142.383 13.992 141.615 12.744 139.887 12.744C137.967 12.744 136.815 14.64 136.815 16.464V24H134.703ZM163.536 24L158.784 11.256H161.064L164.592 21.144L164.904 22.248L165.216 21.144L168.744 11.256H170.88L166.128 24H163.536ZM172.672 9.552V6.72H174.784V9.552H172.672ZM172.672 24V11.256H174.784V24H172.672ZM182.909 24.288C179.525 24.288 177.485 21.792 177.485 17.64C177.485 13.32 179.573 10.944 182.909 10.944C184.421 10.944 185.645 11.568 186.485 12.744V6.72H188.597V24H186.485V22.392C185.645 23.592 184.421 24.288 182.909 24.288ZM183.053 22.464C185.285 22.464 186.485 20.76 186.485 17.64C186.485 14.544 185.237 12.768 183.053 12.768C180.845 12.768 179.645 14.496 179.645 17.64C179.645 20.712 180.893 22.464 183.053 22.464ZM202.977 19.848C202.281 22.824 200.145 24.288 197.241 24.288C193.545 24.288 191.313 21.792 191.313 17.64C191.313 13.32 193.545 10.944 197.121 10.944C200.721 10.944 202.881 13.416 202.881 17.472V18H193.473C193.593 20.856 194.937 22.464 197.241 22.464C199.041 22.464 200.313 21.6 200.769 19.848H202.977ZM197.121 12.768C195.081 12.768 193.857 14.04 193.545 16.416H200.673C200.385 14.064 199.113 12.768 197.121 12.768ZM210.88 24.288C207.232 24.288 205.048 21.792 205.048 17.64C205.048 13.32 207.304 10.944 210.88 10.944C214.528 10.944 216.712 13.488 216.712 17.64C216.712 21.936 214.456 24.288 210.88 24.288ZM210.88 22.464C213.256 22.464 214.552 20.76 214.552 17.64C214.552 14.544 213.232 12.768 210.88 12.768C208.504 12.768 207.208 14.496 207.208 17.64C207.208 20.712 208.528 22.464 210.88 22.464ZM234.771 15.648H232.659C232.323 13.704 231.027 12.768 229.347 12.768C226.995 12.768 225.747 14.496 225.747 17.64C225.747 20.736 227.067 22.488 229.419 22.488C231.123 22.488 232.347 21.576 232.755 19.752H234.867C234.291 22.92 232.155 24.288 229.371 24.288C225.747 24.288 223.587 21.768 223.587 17.64C223.587 13.32 225.795 10.944 229.347 10.944C232.155 10.944 234.363 12.528 234.771 15.648ZM242.661 24.288C239.013 24.288 236.829 21.792 236.829 17.64C236.829 13.32 239.085 10.944 242.661 10.944C246.309 10.944 248.493 13.488 248.493 17.64C248.493 21.936 246.237 24.288 242.661 24.288ZM242.661 22.464C245.037 22.464 246.333 20.76 246.333 17.64C246.333 14.544 245.013 12.768 242.661 12.768C240.285 12.768 238.989 14.496 238.989 17.64C238.989 20.712 240.309 22.464 242.661 22.464ZM251.211 24V11.256H253.323V12.984C254.187 11.64 255.579 10.944 257.259 10.944C259.971 10.944 261.579 12.528 261.579 15.48V24H259.467V15.912C259.467 13.992 258.603 12.744 256.683 12.744C254.571 12.744 253.323 14.64 253.323 16.464V24H251.211ZM265.234 20.328V12.936H263.458V11.256H265.234V8.328H267.346V11.256H270.154V12.936H267.346V20.328C267.346 21.864 267.802 22.584 269.674 22.584H270.106V24.096C269.866 24.216 269.338 24.288 268.738 24.288C266.362 24.288 265.234 23.016 265.234 20.328ZM283.18 19.848C282.484 22.824 280.348 24.288 277.444 24.288C273.748 24.288 271.516 21.792 271.516 17.64C271.516 13.32 273.748 10.944 277.324 10.944C280.924 10.944 283.084 13.416 283.084 17.472V18H273.676C273.796 20.856 275.14 22.464 277.444 22.464C279.244 22.464 280.516 21.6 280.972 19.848H283.18ZM277.324 12.768C275.284 12.768 274.06 14.04 273.748 16.416H280.876C280.588 14.064 279.316 12.768 277.324 12.768ZM285.899 24V11.256H288.011V12.984C288.875 11.64 290.267 10.944 291.947 10.944C294.659 10.944 296.267 12.528 296.267 15.48V24H294.155V15.912C294.155 13.992 293.291 12.744 291.371 12.744C289.259 12.744 288.011 14.64 288.011 16.464V24H285.899ZM299.921 20.328V12.936H298.145V11.256H299.921V8.328H302.033V11.256H304.841V12.936H302.033V20.328C302.033 21.864 302.489 22.584 304.361 22.584H304.793V24.096C304.553 24.216 304.025 24.288 303.425 24.288C301.049 24.288 299.921 23.016 299.921 20.328ZM311.657 9.552V6.72H313.769V9.552H311.657ZM311.657 24V11.256H313.769V24H311.657ZM318.678 14.52C318.678 18.072 326.958 15.144 326.958 20.4C326.958 22.776 324.846 24.288 321.846 24.288C318.822 24.288 316.71 22.848 316.229 19.848H318.342C318.63 21.624 319.95 22.608 321.918 22.608C323.838 22.608 324.846 21.744 324.846 20.544C324.846 17.064 316.662 19.944 316.662 14.664C316.662 12.72 318.174 10.944 321.294 10.944C324.054 10.944 326.094 12.24 326.502 15.408H324.39C324.078 13.416 322.974 12.672 321.174 12.672C319.59 12.672 318.678 13.464 318.678 14.52ZM334.274 24V11.256H336.386V13.224C337.25 11.664 338.618 10.944 340.154 10.944C340.658 10.944 341.114 11.064 341.354 11.256V13.152C340.994 13.032 340.538 12.984 340.034 12.984C337.49 12.984 336.386 14.568 336.386 16.872V24H334.274ZM344.937 15.408H342.825C343.233 12.6 345.081 10.944 348.201 10.944C351.609 10.944 353.265 12.936 353.265 15.912V20.928C353.265 22.392 353.385 23.304 353.721 24H351.489C351.249 23.496 351.177 22.752 351.153 21.984C350.073 23.592 348.345 24.288 346.809 24.288C344.169 24.288 342.393 23.064 342.393 20.64C342.393 18.888 343.353 17.616 345.225 16.992C346.953 16.416 348.705 16.272 351.153 16.248V15.96C351.153 13.896 350.193 12.768 348.009 12.768C346.185 12.768 345.201 13.776 344.937 15.408ZM344.553 20.592C344.553 21.768 345.537 22.464 347.025 22.464C349.377 22.464 351.153 20.616 351.153 18.432V17.832C345.729 17.88 344.553 19.032 344.553 20.592ZM358.863 29.28H356.751V11.256H358.863V12.84C359.703 11.64 360.927 10.944 362.439 10.944C365.823 10.944 367.863 13.44 367.863 17.592C367.863 21.912 365.775 24.288 362.439 24.288C360.927 24.288 359.703 23.664 358.863 22.488V29.28ZM362.295 12.768C360.063 12.768 358.863 14.472 358.863 17.592C358.863 20.688 360.111 22.464 362.295 22.464C364.503 22.464 365.703 20.736 365.703 17.592C365.703 14.52 364.455 12.768 362.295 12.768ZM370.578 9.552V6.72H372.69V9.552H370.578ZM370.578 24V11.256H372.69V24H370.578ZM380.815 24.288C377.431 24.288 375.391 21.792 375.391 17.64C375.391 13.32 377.479 10.944 380.815 10.944C382.327 10.944 383.551 11.568 384.391 12.744V6.72H386.503V24H384.391V22.392C383.551 23.592 382.327 24.288 380.815 24.288ZM380.959 22.464C383.191 22.464 384.391 20.76 384.391 17.64C384.391 14.544 383.143 12.768 380.959 12.768C378.751 12.768 377.551 14.496 377.551 17.64C377.551 20.712 378.799 22.464 380.959 22.464ZM389.868 24V6.72H391.98V24H389.868ZM395.904 29.568C395.424 29.568 394.92 29.448 394.656 29.376V27.744H395.304C396.864 27.744 397.296 27.432 398.544 24.576L398.976 23.592L393.768 11.256H396.048L399.504 19.68L400.08 21.384L400.656 19.68L404.016 11.256H406.176L400.224 25.68C398.952 28.752 398.112 29.568 395.904 29.568ZM414.901 24H412.789V6.72H414.901V12.84C415.741 11.64 416.965 10.944 418.477 10.944C421.861 10.944 423.901 13.44 423.901 17.592C423.901 21.912 421.813 24.288 418.477 24.288C416.965 24.288 415.741 23.664 414.901 22.488V24ZM418.333 12.768C416.101 12.768 414.901 14.472 414.901 17.592C414.901 20.688 416.149 22.464 418.333 22.464C420.541 22.464 421.741 20.736 421.741 17.592C421.741 14.52 420.493 12.768 418.333 12.768ZM437.634 19.848C436.938 22.824 434.802 24.288 431.898 24.288C428.202 24.288 425.97 21.792 425.97 17.64C425.97 13.32 428.202 10.944 431.778 10.944C435.378 10.944 437.538 13.416 437.538 17.472V18H428.13C428.25 20.856 429.594 22.464 431.898 22.464C433.698 22.464 434.97 21.6 435.426 19.848H437.634ZM431.778 12.768C429.738 12.768 428.514 14.04 428.202 16.416H435.33C435.042 14.064 433.77 12.768 431.778 12.768ZM450.888 15.648H448.776C448.44 13.704 447.144 12.768 445.464 12.768C443.112 12.768 441.864 14.496 441.864 17.64C441.864 20.736 443.184 22.488 445.536 22.488C447.24 22.488 448.464 21.576 448.872 19.752H450.984C450.408 22.92 448.272 24.288 445.488 24.288C441.864 24.288 439.704 21.768 439.704 17.64C439.704 13.32 441.912 10.944 445.464 10.944C448.272 10.944 450.48 12.528 450.888 15.648ZM458.778 24.288C455.13 24.288 452.946 21.792 452.946 17.64C452.946 13.32 455.202 10.944 458.778 10.944C462.426 10.944 464.61 13.488 464.61 17.64C464.61 21.936 462.354 24.288 458.778 24.288ZM458.778 22.464C461.154 22.464 462.45 20.76 462.45 17.64C462.45 14.544 461.13 12.768 458.778 12.768C456.402 12.768 455.106 14.496 455.106 17.64C455.106 20.712 456.426 22.464 458.778 22.464ZM467.328 24V11.256H469.44V12.888C470.256 11.592 471.528 10.944 473.088 10.944C474.84 10.944 476.112 11.712 476.712 13.2C477.552 11.712 478.944 10.944 480.648 10.944C483.24 10.944 484.8 12.528 484.8 15.48V24H482.688V15.912C482.688 13.992 481.92 12.744 480.192 12.744C478.272 12.744 477.12 14.64 477.12 16.464V24H475.008V15.912C475.008 13.992 474.24 12.744 472.512 12.744C470.592 12.744 469.44 14.64 469.44 16.464V24H467.328ZM488.164 9.552V6.72H490.276V9.552H488.164ZM488.164 24V11.256H490.276V24H488.164ZM493.625 24V11.256H495.737V12.984C496.601 11.64 497.993 10.944 499.673 10.944C502.385 10.944 503.993 12.528 503.993 15.48V24H501.881V15.912C501.881 13.992 501.017 12.744 499.097 12.744C496.985 12.744 495.737 14.64 495.737 16.464V24H493.625ZM511.896 24.096C508.656 24.096 506.712 21.624 506.712 17.544C506.712 13.272 508.704 10.944 511.896 10.944C513.6 10.944 514.872 11.544 515.712 12.648V11.256H517.824V24.384C517.824 27.936 515.544 29.592 512.616 29.592C509.616 29.592 507.504 28.152 507.048 25.248H509.16C509.424 26.928 510.744 27.84 512.592 27.84C514.464 27.84 515.712 26.832 515.712 24.456V22.272C514.824 23.472 513.528 24.096 511.896 24.096ZM512.28 22.272C514.512 22.272 515.712 20.592 515.712 17.52C515.712 14.52 514.464 12.768 512.28 12.768C510.072 12.768 508.872 14.448 508.872 17.544C508.872 20.544 510.096 22.272 512.28 22.272ZM526.304 20.328V12.936H524.528V11.256H526.304V8.328H528.416V11.256H531.224V12.936H528.416V20.328C528.416 21.864 528.872 22.584 530.744 22.584H531.176V24.096C530.936 24.216 530.408 24.288 529.808 24.288C527.432 24.288 526.304 23.016 526.304 20.328ZM533.235 24V6.72H535.347V12.984C536.211 11.64 537.603 10.944 539.283 10.944C541.995 10.944 543.603 12.528 543.603 15.48V24H541.491V15.912C541.491 13.992 540.627 12.744 538.707 12.744C536.595 12.744 535.347 14.64 535.347 16.464V24H533.235ZM557.985 19.848C557.289 22.824 555.153 24.288 552.249 24.288C548.553 24.288 546.321 21.792 546.321 17.64C546.321 13.32 548.553 10.944 552.129 10.944C555.729 10.944 557.889 13.416 557.889 17.472V18H548.481C548.601 20.856 549.945 22.464 552.249 22.464C554.049 22.464 555.321 21.6 555.777 19.848H557.985ZM552.129 12.768C550.089 12.768 548.865 14.04 548.553 16.416H555.681C555.393 14.064 554.121 12.768 552.129 12.768ZM565.508 24V11.256H567.62V12.888C568.436 11.592 569.708 10.944 571.268 10.944C573.02 10.944 574.292 11.712 574.892 13.2C575.732 11.712 577.124 10.944 578.828 10.944C581.42 10.944 582.98 12.528 582.98 15.48V24H580.868V15.912C580.868 13.992 580.1 12.744 578.372 12.744C576.452 12.744 575.3 14.64 575.3 16.464V24H573.188V15.912C573.188 13.992 572.42 12.744 570.692 12.744C568.772 12.744 567.62 14.64 567.62 16.464V24H565.508ZM591.528 24.288C587.88 24.288 585.696 21.792 585.696 17.64C585.696 13.32 587.952 10.944 591.528 10.944C595.176 10.944 597.36 13.488 597.36 17.64C597.36 21.936 595.104 24.288 591.528 24.288ZM591.528 22.464C593.904 22.464 595.2 20.76 595.2 17.64C595.2 14.544 593.88 12.768 591.528 12.768C589.152 12.768 587.856 14.496 587.856 17.64C587.856 20.712 589.176 22.464 591.528 22.464ZM601.638 14.52C601.638 18.072 609.918 15.144 609.918 20.4C609.918 22.776 607.806 24.288 604.806 24.288C601.782 24.288 599.67 22.848 599.19 19.848H601.302C601.59 21.624 602.91 22.608 604.878 22.608C606.798 22.608 607.806 21.744 607.806 20.544C607.806 17.064 599.622 19.944 599.622 14.664C599.622 12.72 601.134 10.944 604.254 10.944C607.014 10.944 609.054 12.24 609.462 15.408H607.35C607.038 13.416 605.934 12.672 604.134 12.672C602.55 12.672 601.638 13.464 601.638 14.52ZM612.718 20.328V12.936H610.942V11.256H612.718V8.328H614.83V11.256H617.638V12.936H614.83V20.328C614.83 21.864 615.286 22.584 617.158 22.584H617.59V24.096C617.35 24.216 616.822 24.288 616.222 24.288C613.846 24.288 612.718 23.016 612.718 20.328ZM624.453 9.552V6.72H626.565V9.552H624.453ZM624.453 24V11.256H626.565V24H624.453ZM629.914 24V11.256H632.026V12.888C632.842 11.592 634.114 10.944 635.674 10.944C637.426 10.944 638.698 11.712 639.298 13.2C640.138 11.712 641.53 10.944 643.234 10.944C645.826 10.944 647.386 12.528 647.386 15.48V24H645.274V15.912C645.274 13.992 644.506 12.744 642.778 12.744C640.858 12.744 639.706 14.64 639.706 16.464V24H637.594V15.912C637.594 13.992 636.826 12.744 635.098 12.744C633.178 12.744 632.026 14.64 632.026 16.464V24H629.914ZM652.886 29.28H650.774V11.256H652.886V12.84C653.726 11.64 654.95 10.944 656.462 10.944C659.846 10.944 661.886 13.44 661.886 17.592C661.886 21.912 659.798 24.288 656.462 24.288C654.95 24.288 653.726 23.664 652.886 22.488V29.28ZM656.318 12.768C654.086 12.768 652.886 14.472 652.886 17.592C652.886 20.688 654.134 22.464 656.318 22.464C658.526 22.464 659.726 20.736 659.726 17.592C659.726 14.52 658.478 12.768 656.318 12.768ZM669.786 24.288C666.138 24.288 663.954 21.792 663.954 17.64C663.954 13.32 666.21 10.944 669.786 10.944C673.434 10.944 675.618 13.488 675.618 17.64C675.618 21.936 673.362 24.288 669.786 24.288ZM669.786 22.464C672.162 22.464 673.458 20.76 673.458 17.64C673.458 14.544 672.138 12.768 669.786 12.768C667.41 12.768 666.114 14.496 666.114 17.64C666.114 20.712 667.434 22.464 669.786 22.464ZM678.336 24V11.256H680.448V13.224C681.312 11.664 682.68 10.944 684.216 10.944C684.72 10.944 685.176 11.064 685.416 11.256V13.152C685.056 13.032 684.6 12.984 684.096 12.984C681.552 12.984 680.448 14.568 680.448 16.872V24H678.336ZM687.577 20.328V12.936H685.801V11.256H687.577V8.328H689.689V11.256H692.497V12.936H689.689V20.328C689.689 21.864 690.145 22.584 692.017 22.584H692.449V24.096C692.209 24.216 691.681 24.288 691.081 24.288C688.705 24.288 687.577 23.016 687.577 20.328ZM696.452 15.408H694.34C694.748 12.6 696.596 10.944 699.716 10.944C703.124 10.944 704.78 12.936 704.78 15.912V20.928C704.78 22.392 704.9 23.304 705.236 24H703.004C702.764 23.496 702.692 22.752 702.668 21.984C701.588 23.592 699.86 24.288 698.324 24.288C695.684 24.288 693.908 23.064 693.908 20.64C693.908 18.888 694.868 17.616 696.74 16.992C698.468 16.416 700.22 16.272 702.668 16.248V15.96C702.668 13.896 701.708 12.768 699.524 12.768C697.7 12.768 696.716 13.776 696.452 15.408ZM696.068 20.592C696.068 21.768 697.052 22.464 698.54 22.464C700.892 22.464 702.668 20.616 702.668 18.432V17.832C697.244 17.88 696.068 19.032 696.068 20.592ZM708.243 24V11.256H710.355V12.984C711.219 11.64 712.611 10.944 714.291 10.944C717.003 10.944 718.611 12.528 718.611 15.48V24H716.499V15.912C716.499 13.992 715.635 12.744 713.715 12.744C711.603 12.744 710.355 14.64 710.355 16.464V24H708.243ZM722.265 20.328V12.936H720.489V11.256H722.265V8.328H724.377V11.256H727.185V12.936H724.377V20.328C724.377 21.864 724.833 22.584 726.705 22.584H727.137V24.096C726.897 24.216 726.369 24.288 725.769 24.288C723.393 24.288 722.265 23.016 722.265 20.328ZM197.175 45.408H195.063C195.471 42.6 197.319 40.944 200.439 40.944C203.847 40.944 205.503 42.936 205.503 45.912V50.928C205.503 52.392 205.623 53.304 205.959 54H203.727C203.487 53.496 203.415 52.752 203.391 51.984C202.311 53.592 200.583 54.288 199.047 54.288C196.407 54.288 194.631 53.064 194.631 50.64C194.631 48.888 195.591 47.616 197.463 46.992C199.191 46.416 200.943 46.272 203.391 46.248V45.96C203.391 43.896 202.431 42.768 200.247 42.768C198.423 42.768 197.439 43.776 197.175 45.408ZM196.791 50.592C196.791 51.768 197.775 52.464 199.263 52.464C201.615 52.464 203.391 50.616 203.391 48.432V47.832C197.967 47.88 196.791 49.032 196.791 50.592ZM211.688 54L206.936 41.256H209.216L212.744 51.144L213.056 52.248L213.368 51.144L216.896 41.256H219.032L214.28 54H211.688ZM231.841 49.848C231.145 52.824 229.009 54.288 226.105 54.288C222.409 54.288 220.177 51.792 220.177 47.64C220.177 43.32 222.409 40.944 225.985 40.944C229.585 40.944 231.745 43.416 231.745 47.472V48H222.337C222.457 50.856 223.801 52.464 226.105 52.464C227.905 52.464 229.177 51.6 229.633 49.848H231.841ZM225.985 42.768C223.945 42.768 222.721 44.04 222.409 46.416H229.537C229.249 44.064 227.977 42.768 225.985 42.768ZM234.559 54V41.256H236.671V42.984C237.535 41.64 238.927 40.944 240.607 40.944C243.319 40.944 244.927 42.528 244.927 45.48V54H242.815V45.912C242.815 43.992 241.951 42.744 240.031 42.744C237.919 42.744 236.671 44.64 236.671 46.464V54H234.559ZM256.405 48.792V41.256H258.517V54H256.405V52.272C255.541 53.616 254.197 54.288 252.541 54.288C249.877 54.288 248.293 52.728 248.293 49.776V41.256H250.405V49.344C250.405 51.264 251.245 52.488 253.117 52.488C255.181 52.488 256.405 50.616 256.405 48.792ZM272.903 49.848C272.207 52.824 270.071 54.288 267.167 54.288C263.471 54.288 261.239 51.792 261.239 47.64C261.239 43.32 263.471 40.944 267.047 40.944C270.647 40.944 272.807 43.416 272.807 47.472V48H263.399C263.519 50.856 264.863 52.464 267.167 52.464C268.967 52.464 270.239 51.6 270.695 49.848H272.903ZM267.047 42.768C265.007 42.768 263.783 44.04 263.471 46.416H270.599C270.311 44.064 269.039 42.768 267.047 42.768ZM278.866 42.936V41.256H280.642V40.392C280.642 37.704 281.746 36.432 284.098 36.432C284.626 36.432 285.058 36.528 285.274 36.624V38.136H285.058C283.21 38.136 282.754 38.856 282.754 40.392V41.256H285.274V42.936H282.754V54H280.642V42.936H278.866ZM292.149 54.288C288.501 54.288 286.317 51.792 286.317 47.64C286.317 43.32 288.573 40.944 292.149 40.944C295.797 40.944 297.981 43.488 297.981 47.64C297.981 51.936 295.725 54.288 292.149 54.288ZM292.149 52.464C294.525 52.464 295.821 50.76 295.821 47.64C295.821 44.544 294.501 42.768 292.149 42.768C289.773 42.768 288.477 44.496 288.477 47.64C288.477 50.712 289.797 52.464 292.149 52.464ZM300.7 54V41.256H302.812V43.224C303.676 41.664 305.044 40.944 306.58 40.944C307.084 40.944 307.54 41.064 307.78 41.256V43.152C307.42 43.032 306.964 42.984 306.46 42.984C303.916 42.984 302.812 44.568 302.812 46.872V54H300.7ZM316.017 44.52C316.017 48.072 324.297 45.144 324.297 50.4C324.297 52.776 322.185 54.288 319.185 54.288C316.161 54.288 314.049 52.848 313.569 49.848H315.681C315.969 51.624 317.289 52.608 319.257 52.608C321.177 52.608 322.185 51.744 322.185 50.544C322.185 47.064 314.001 49.944 314.001 44.664C314.001 42.72 315.513 40.944 318.633 40.944C321.393 40.944 323.433 42.24 323.841 45.408H321.729C321.417 43.416 320.313 42.672 318.513 42.672C316.929 42.672 316.017 43.464 316.017 44.52ZM331.993 54.288C328.345 54.288 326.161 51.792 326.161 47.64C326.161 43.32 328.417 40.944 331.993 40.944C335.641 40.944 337.825 43.488 337.825 47.64C337.825 51.936 335.569 54.288 331.993 54.288ZM331.993 52.464C334.369 52.464 335.665 50.76 335.665 47.64C335.665 44.544 334.345 42.768 331.993 42.768C329.617 42.768 328.321 44.496 328.321 47.64C328.321 50.712 329.641 52.464 331.993 52.464ZM351.079 45.648H348.967C348.631 43.704 347.335 42.768 345.655 42.768C343.303 42.768 342.055 44.496 342.055 47.64C342.055 50.736 343.375 52.488 345.727 52.488C347.431 52.488 348.655 51.576 349.063 49.752H351.175C350.599 52.92 348.463 54.288 345.679 54.288C342.055 54.288 339.895 51.768 339.895 47.64C339.895 43.32 342.103 40.944 345.655 40.944C348.463 40.944 350.671 42.528 351.079 45.648ZM353.785 39.552V36.72H355.897V39.552H353.785ZM353.785 54V41.256H355.897V54H353.785ZM361.19 45.408H359.078C359.486 42.6 361.334 40.944 364.454 40.944C367.862 40.944 369.518 42.936 369.518 45.912V50.928C369.518 52.392 369.638 53.304 369.974 54H367.742C367.502 53.496 367.43 52.752 367.406 51.984C366.326 53.592 364.598 54.288 363.062 54.288C360.422 54.288 358.646 53.064 358.646 50.64C358.646 48.888 359.606 47.616 361.478 46.992C363.206 46.416 364.958 46.272 367.406 46.248V45.96C367.406 43.896 366.446 42.768 364.262 42.768C362.438 42.768 361.454 43.776 361.19 45.408ZM360.806 50.592C360.806 51.768 361.79 52.464 363.278 52.464C365.63 52.464 367.406 50.616 367.406 48.432V47.832C361.982 47.88 360.806 49.032 360.806 50.592ZM372.981 54V36.72H375.093V54H372.981ZM383.246 54V41.256H385.358V42.888C386.174 41.592 387.446 40.944 389.006 40.944C390.758 40.944 392.03 41.712 392.63 43.2C393.47 41.712 394.862 40.944 396.566 40.944C399.158 40.944 400.718 42.528 400.718 45.48V54H398.606V45.912C398.606 43.992 397.838 42.744 396.11 42.744C394.19 42.744 393.038 44.64 393.038 46.464V54H390.926V45.912C390.926 43.992 390.158 42.744 388.43 42.744C386.51 42.744 385.358 44.64 385.358 46.464V54H383.246ZM415.098 49.848C414.402 52.824 412.266 54.288 409.362 54.288C405.666 54.288 403.434 51.792 403.434 47.64C403.434 43.32 405.666 40.944 409.242 40.944C412.842 40.944 415.002 43.416 415.002 47.472V48H405.594C405.714 50.856 407.058 52.464 409.362 52.464C411.162 52.464 412.434 51.6 412.89 49.848H415.098ZM409.242 42.768C407.202 42.768 405.978 44.04 405.666 46.416H412.794C412.506 44.064 411.234 42.768 409.242 42.768ZM422.593 54.288C419.209 54.288 417.169 51.792 417.169 47.64C417.169 43.32 419.257 40.944 422.593 40.944C424.105 40.944 425.329 41.568 426.169 42.744V36.72H428.281V54H426.169V52.392C425.329 53.592 424.105 54.288 422.593 54.288ZM422.737 52.464C424.969 52.464 426.169 50.76 426.169 47.64C426.169 44.544 424.921 42.768 422.737 42.768C420.529 42.768 419.329 44.496 419.329 47.64C419.329 50.712 420.577 52.464 422.737 52.464ZM431.645 39.552V36.72H433.757V39.552H431.645ZM431.645 54V41.256H433.757V54H431.645ZM439.05 45.408H436.938C437.346 42.6 439.194 40.944 442.314 40.944C445.722 40.944 447.378 42.936 447.378 45.912V50.928C447.378 52.392 447.498 53.304 447.834 54H445.602C445.362 53.496 445.29 52.752 445.266 51.984C444.186 53.592 442.458 54.288 440.922 54.288C438.282 54.288 436.506 53.064 436.506 50.64C436.506 48.888 437.466 47.616 439.338 46.992C441.066 46.416 442.818 46.272 445.266 46.248V45.96C445.266 43.896 444.306 42.768 442.122 42.768C440.298 42.768 439.314 43.776 439.05 45.408ZM438.666 50.592C438.666 51.768 439.65 52.464 441.138 52.464C443.49 52.464 445.266 50.616 445.266 48.432V47.832C439.842 47.88 438.666 49.032 438.666 50.592ZM457.781 59.28H455.669V41.256H457.781V42.84C458.621 41.64 459.845 40.944 461.357 40.944C464.741 40.944 466.781 43.44 466.781 47.592C466.781 51.912 464.693 54.288 461.357 54.288C459.845 54.288 458.621 53.664 457.781 52.488V59.28ZM461.213 42.768C458.981 42.768 457.781 44.472 457.781 47.592C457.781 50.688 459.029 52.464 461.213 52.464C463.421 52.464 464.621 50.736 464.621 47.592C464.621 44.52 463.373 42.768 461.213 42.768ZM469.496 54V41.256H471.608V43.224C472.472 41.664 473.84 40.944 475.376 40.944C475.88 40.944 476.336 41.064 476.576 41.256V43.152C476.216 43.032 475.76 42.984 475.256 42.984C472.712 42.984 471.608 44.568 471.608 46.872V54H469.496ZM483.399 54.288C479.751 54.288 477.567 51.792 477.567 47.64C477.567 43.32 479.823 40.944 483.399 40.944C487.047 40.944 489.231 43.488 489.231 47.64C489.231 51.936 486.975 54.288 483.399 54.288ZM483.399 52.464C485.775 52.464 487.071 50.76 487.071 47.64C487.071 44.544 485.751 42.768 483.399 42.768C481.023 42.768 479.727 44.496 479.727 47.64C479.727 50.712 481.047 52.464 483.399 52.464ZM491.95 54V41.256H494.062V42.888C494.878 41.592 496.15 40.944 497.71 40.944C499.462 40.944 500.734 41.712 501.334 43.2C502.174 41.712 503.566 40.944 505.27 40.944C507.862 40.944 509.422 42.528 509.422 45.48V54H507.31V45.912C507.31 43.992 506.542 42.744 504.814 42.744C502.894 42.744 501.742 44.64 501.742 46.464V54H499.63V45.912C499.63 43.992 498.862 42.744 497.134 42.744C495.214 42.744 494.062 44.64 494.062 46.464V54H491.95ZM517.969 54.288C514.321 54.288 512.137 51.792 512.137 47.64C512.137 43.32 514.393 40.944 517.969 40.944C521.617 40.944 523.801 43.488 523.801 47.64C523.801 51.936 521.545 54.288 517.969 54.288ZM517.969 52.464C520.345 52.464 521.641 50.76 521.641 47.64C521.641 44.544 520.321 42.768 517.969 42.768C515.593 42.768 514.297 44.496 514.297 47.64C514.297 50.712 515.617 52.464 517.969 52.464ZM526.808 50.328V42.936H525.032V41.256H526.808V38.328H528.92V41.256H531.728V42.936H528.92V50.328C528.92 51.864 529.376 52.584 531.248 52.584H531.68V54.096C531.44 54.216 530.912 54.288 530.312 54.288C527.936 54.288 526.808 53.016 526.808 50.328ZM533.739 39.552V36.72H535.851V39.552H533.739ZM533.739 54V41.256H535.851V54H533.739ZM544.384 54.288C540.736 54.288 538.552 51.792 538.552 47.64C538.552 43.32 540.808 40.944 544.384 40.944C548.032 40.944 550.216 43.488 550.216 47.64C550.216 51.936 547.96 54.288 544.384 54.288ZM544.384 52.464C546.76 52.464 548.056 50.76 548.056 47.64C548.056 44.544 546.736 42.768 544.384 42.768C542.008 42.768 540.712 44.496 540.712 47.64C540.712 50.712 542.032 52.464 544.384 52.464ZM552.934 54V41.256H555.046V42.984C555.91 41.64 557.302 40.944 558.982 40.944C561.694 40.944 563.302 42.528 563.302 45.48V54H561.19V45.912C561.19 43.992 560.326 42.744 558.406 42.744C556.294 42.744 555.046 44.64 555.046 46.464V54H552.934ZM566.428 54V51.408H569.02V54H566.428ZM20.0626 84V69.552H14.4706V67.68H27.8626V69.552H22.2706V84H20.0626ZM30.2894 84V66.72H32.4014V72.984C33.2654 71.64 34.6574 70.944 36.3374 70.944C39.0494 70.944 40.6574 72.528 40.6574 75.48V84H38.5454V75.912C38.5454 73.992 37.6814 72.744 35.7614 72.744C33.6494 72.744 32.4014 74.64 32.4014 76.464V84H30.2894ZM55.0398 79.848C54.3438 82.824 52.2078 84.288 49.3038 84.288C45.6078 84.288 43.3758 81.792 43.3758 77.64C43.3758 73.32 45.6078 70.944 49.1838 70.944C52.7838 70.944 54.9438 73.416 54.9438 77.472V78H45.5358C45.6558 80.856 46.9998 82.464 49.3038 82.464C51.1038 82.464 52.3758 81.6 52.8318 79.848H55.0398ZM49.1838 72.768C47.1438 72.768 45.9198 74.04 45.6078 76.416H52.7358C52.4478 74.064 51.1758 72.768 49.1838 72.768ZM64.6988 89.28H62.5868V71.256H64.6988V72.84C65.5388 71.64 66.7628 70.944 68.2748 70.944C71.6588 70.944 73.6988 73.44 73.6988 77.592C73.6988 81.912 71.6108 84.288 68.2748 84.288C66.7628 84.288 65.5388 83.664 64.6988 82.488V89.28ZM68.1308 72.768C65.8988 72.768 64.6988 74.472 64.6988 77.592C64.6988 80.688 65.9468 82.464 68.1308 82.464C70.3388 82.464 71.5388 80.736 71.5388 77.592C71.5388 74.52 70.2908 72.768 68.1308 72.768ZM76.4144 84V71.256H78.5264V73.224C79.3904 71.664 80.7584 70.944 82.2944 70.944C82.7984 70.944 83.2544 71.064 83.4944 71.256V73.152C83.1344 73.032 82.6784 72.984 82.1744 72.984C79.6304 72.984 78.5264 74.568 78.5264 76.872V84H76.4144ZM90.3171 84.288C86.6691 84.288 84.4851 81.792 84.4851 77.64C84.4851 73.32 86.7411 70.944 90.3171 70.944C93.9651 70.944 96.1491 73.488 96.1491 77.64C96.1491 81.936 93.8931 84.288 90.3171 84.288ZM90.3171 82.464C92.6931 82.464 93.9891 80.76 93.9891 77.64C93.9891 74.544 92.6691 72.768 90.3171 72.768C87.9411 72.768 86.6451 74.496 86.6451 77.64C86.6451 80.712 87.9651 82.464 90.3171 82.464ZM100.98 84H98.8675V66.72H100.98V72.84C101.82 71.64 103.044 70.944 104.556 70.944C107.94 70.944 109.98 73.44 109.98 77.592C109.98 81.912 107.892 84.288 104.556 84.288C103.044 84.288 101.82 83.664 100.98 82.488V84ZM104.412 72.768C102.18 72.768 100.98 74.472 100.98 77.592C100.98 80.688 102.228 82.464 104.412 82.464C106.62 82.464 107.82 80.736 107.82 77.592C107.82 74.52 106.572 72.768 104.412 72.768ZM112.696 84V66.72H114.808V84H112.696ZM129.173 79.848C128.477 82.824 126.341 84.288 123.437 84.288C119.741 84.288 117.509 81.792 117.509 77.64C117.509 73.32 119.741 70.944 123.317 70.944C126.917 70.944 129.077 73.416 129.077 77.472V78H119.669C119.789 80.856 121.133 82.464 123.437 82.464C125.237 82.464 126.509 81.6 126.965 79.848H129.173ZM123.317 72.768C121.277 72.768 120.053 74.04 119.741 76.416H126.869C126.581 74.064 125.309 72.768 123.317 72.768ZM131.891 84V71.256H134.003V72.888C134.819 71.592 136.091 70.944 137.651 70.944C139.403 70.944 140.675 71.712 141.275 73.2C142.115 71.712 143.507 70.944 145.211 70.944C147.803 70.944 149.363 72.528 149.363 75.48V84H147.251V75.912C147.251 73.992 146.483 72.744 144.755 72.744C142.835 72.744 141.683 74.64 141.683 76.464V84H139.571V75.912C139.571 73.992 138.803 72.744 137.075 72.744C135.155 72.744 134.003 74.64 134.003 76.464V84H131.891ZM157.532 69.552V66.72H159.644V69.552H157.532ZM157.532 84V71.256H159.644V84H157.532ZM164.553 74.52C164.553 78.072 172.833 75.144 172.833 80.4C172.833 82.776 170.721 84.288 167.721 84.288C164.697 84.288 162.585 82.848 162.104 79.848H164.217C164.505 81.624 165.825 82.608 167.793 82.608C169.713 82.608 170.721 81.744 170.721 80.544C170.721 77.064 162.537 79.944 162.537 74.664C162.537 72.72 164.049 70.944 167.169 70.944C169.929 70.944 171.969 72.24 172.377 75.408H170.265C169.953 73.416 168.849 72.672 167.049 72.672C165.465 72.672 164.553 73.464 164.553 74.52ZM178.589 72.936V71.256H180.365V70.392C180.365 67.704 181.469 66.432 183.821 66.432C184.349 66.432 184.781 66.528 184.997 66.624V68.136H184.781C182.933 68.136 182.477 68.856 182.477 70.392V71.256H184.997V72.936H182.477V84H180.365V72.936H178.589ZM186.677 69.552V66.72H188.789V69.552H186.677ZM186.677 84V71.256H188.789V84H186.677ZM192.149 84V71.256H194.261V72.984C195.125 71.64 196.517 70.944 198.197 70.944C200.909 70.944 202.517 72.528 202.517 75.48V84H200.405V75.912C200.405 73.992 199.541 72.744 197.621 72.744C195.509 72.744 194.261 74.64 194.261 76.464V84H192.149ZM210.659 84.288C207.275 84.288 205.235 81.792 205.235 77.64C205.235 73.32 207.323 70.944 210.659 70.944C212.171 70.944 213.395 71.568 214.235 72.744V66.72H216.347V84H214.235V82.392C213.395 83.592 212.171 84.288 210.659 84.288ZM210.803 82.464C213.035 82.464 214.235 80.76 214.235 77.64C214.235 74.544 212.987 72.768 210.803 72.768C208.595 72.768 207.395 74.496 207.395 77.64C207.395 80.712 208.643 82.464 210.803 82.464ZM219.711 69.552V66.72H221.823V69.552H219.711ZM219.711 84V71.256H221.823V84H219.711ZM225.172 84V71.256H227.284V72.984C228.148 71.64 229.54 70.944 231.22 70.944C233.932 70.944 235.54 72.528 235.54 75.48V84H233.428V75.912C233.428 73.992 232.564 72.744 230.644 72.744C228.532 72.744 227.284 74.64 227.284 76.464V84H225.172ZM243.443 84.096C240.203 84.096 238.259 81.624 238.259 77.544C238.259 73.272 240.251 70.944 243.443 70.944C245.147 70.944 246.419 71.544 247.259 72.648V71.256H249.371V84.384C249.371 87.936 247.091 89.592 244.163 89.592C241.163 89.592 239.051 88.152 238.595 85.248H240.707C240.971 86.928 242.291 87.84 244.139 87.84C246.011 87.84 247.259 86.832 247.259 84.456V82.272C246.371 83.472 245.075 84.096 243.443 84.096ZM243.827 82.272C246.059 82.272 247.259 80.592 247.259 77.52C247.259 74.52 246.011 72.768 243.827 72.768C241.619 72.768 240.419 74.448 240.419 77.544C240.419 80.544 241.643 82.272 243.827 82.272ZM259.507 75.408H257.395C257.803 72.6 259.651 70.944 262.771 70.944C266.179 70.944 267.835 72.936 267.835 75.912V80.928C267.835 82.392 267.955 83.304 268.291 84H266.059C265.819 83.496 265.747 82.752 265.723 81.984C264.643 83.592 262.915 84.288 261.379 84.288C258.739 84.288 256.963 83.064 256.963 80.64C256.963 78.888 257.923 77.616 259.795 76.992C261.523 76.416 263.275 76.272 265.723 76.248V75.96C265.723 73.896 264.763 72.768 262.579 72.768C260.755 72.768 259.771 73.776 259.507 75.408ZM259.123 80.592C259.123 81.768 260.107 82.464 261.595 82.464C263.947 82.464 265.723 80.616 265.723 78.432V77.832C260.299 77.88 259.123 79.032 259.123 80.592ZM271.297 84V71.256H273.409V72.984C274.273 71.64 275.665 70.944 277.345 70.944C280.057 70.944 281.665 72.528 281.665 75.48V84H279.553V75.912C279.553 73.992 278.689 72.744 276.769 72.744C274.657 72.744 273.409 74.64 273.409 76.464V84H271.297ZM289.808 84.288C286.424 84.288 284.384 81.792 284.384 77.64C284.384 73.32 286.472 70.944 289.808 70.944C291.32 70.944 292.544 71.568 293.384 72.744V66.72H295.496V84H293.384V82.392C292.544 83.592 291.32 84.288 289.808 84.288ZM289.952 82.464C292.184 82.464 293.384 80.76 293.384 77.64C293.384 74.544 292.136 72.768 289.952 72.768C287.744 72.768 286.544 74.496 286.544 77.64C286.544 80.712 287.792 82.464 289.952 82.464ZM314.68 79.848C313.984 82.824 311.848 84.288 308.944 84.288C305.248 84.288 303.016 81.792 303.016 77.64C303.016 73.32 305.248 70.944 308.824 70.944C312.424 70.944 314.584 73.416 314.584 77.472V78H305.176C305.296 80.856 306.64 82.464 308.944 82.464C310.744 82.464 312.016 81.6 312.472 79.848H314.68ZM308.824 72.768C306.784 72.768 305.56 74.04 305.248 76.416H312.376C312.088 74.064 310.816 72.768 308.824 72.768ZM322.175 84.288C318.791 84.288 316.751 81.792 316.751 77.64C316.751 73.32 318.839 70.944 322.175 70.944C323.687 70.944 324.911 71.568 325.751 72.744V66.72H327.863V84H325.751V82.392C324.911 83.592 323.687 84.288 322.175 84.288ZM322.319 82.464C324.551 82.464 325.751 80.76 325.751 77.64C325.751 74.544 324.503 72.768 322.319 72.768C320.111 72.768 318.911 74.496 318.911 77.64C318.911 80.712 320.159 82.464 322.319 82.464ZM331.227 69.552V66.72H333.339V69.552H331.227ZM331.227 84V71.256H333.339V84H331.227ZM336.976 80.328V72.936H335.2V71.256H336.976V68.328H339.088V71.256H341.896V72.936H339.088V80.328C339.088 81.864 339.544 82.584 341.416 82.584H341.848V84.096C341.608 84.216 341.08 84.288 340.48 84.288C338.104 84.288 336.976 83.016 336.976 80.328ZM343.907 69.552V66.72H346.019V69.552H343.907ZM343.907 84V71.256H346.019V84H343.907ZM349.368 84V71.256H351.48V72.984C352.344 71.64 353.736 70.944 355.416 70.944C358.128 70.944 359.736 72.528 359.736 75.48V84H357.624V75.912C357.624 73.992 356.76 72.744 354.84 72.744C352.728 72.744 351.48 74.64 351.48 76.464V84H349.368ZM367.638 84.096C364.398 84.096 362.454 81.624 362.454 77.544C362.454 73.272 364.446 70.944 367.638 70.944C369.342 70.944 370.614 71.544 371.454 72.648V71.256H373.566V84.384C373.566 87.936 371.286 89.592 368.358 89.592C365.358 89.592 363.246 88.152 362.79 85.248H364.902C365.166 86.928 366.486 87.84 368.334 87.84C370.206 87.84 371.454 86.832 371.454 84.456V82.272C370.566 83.472 369.27 84.096 367.638 84.096ZM368.022 82.272C370.254 82.272 371.454 80.592 371.454 77.52C371.454 74.52 370.206 72.768 368.022 72.768C365.814 72.768 364.614 74.448 364.614 77.544C364.614 80.544 365.838 82.272 368.022 82.272ZM382.046 80.328V72.936H380.27V71.256H382.046V68.328H384.158V71.256H386.966V72.936H384.158V80.328C384.158 81.864 384.614 82.584 386.486 82.584H386.918V84.096C386.678 84.216 386.15 84.288 385.55 84.288C383.174 84.288 382.046 83.016 382.046 80.328ZM388.977 84V66.72H391.089V72.984C391.953 71.64 393.345 70.944 395.025 70.944C397.737 70.944 399.345 72.528 399.345 75.48V84H397.233V75.912C397.233 73.992 396.369 72.744 394.449 72.744C392.337 72.744 391.089 74.64 391.089 76.464V84H388.977ZM413.727 79.848C413.031 82.824 410.895 84.288 407.991 84.288C404.295 84.288 402.063 81.792 402.063 77.64C402.063 73.32 404.295 70.944 407.871 70.944C411.471 70.944 413.631 73.416 413.631 77.472V78H404.223C404.343 80.856 405.687 82.464 407.991 82.464C409.791 82.464 411.063 81.6 411.519 79.848H413.727ZM407.871 72.768C405.831 72.768 404.607 74.04 404.295 76.416H411.423C411.135 74.064 409.863 72.768 407.871 72.768ZM423.362 84H421.25V66.72H423.362V72.84C424.202 71.64 425.426 70.944 426.938 70.944C430.322 70.944 432.362 73.44 432.362 77.592C432.362 81.912 430.274 84.288 426.938 84.288C425.426 84.288 424.202 83.664 423.362 82.488V84ZM426.794 72.768C424.562 72.768 423.362 74.472 423.362 77.592C423.362 80.688 424.61 82.464 426.794 82.464C429.002 82.464 430.202 80.736 430.202 77.592C430.202 74.52 428.954 72.768 426.794 72.768ZM446.094 79.848C445.398 82.824 443.262 84.288 440.358 84.288C436.662 84.288 434.43 81.792 434.43 77.64C434.43 73.32 436.662 70.944 440.238 70.944C443.838 70.944 445.998 73.416 445.998 77.472V78H436.59C436.71 80.856 438.054 82.464 440.358 82.464C442.158 82.464 443.43 81.6 443.886 79.848H446.094ZM440.238 72.768C438.198 72.768 436.974 74.04 436.662 76.416H443.79C443.502 74.064 442.23 72.768 440.238 72.768ZM450.373 74.52C450.373 78.072 458.653 75.144 458.653 80.4C458.653 82.776 456.541 84.288 453.541 84.288C450.517 84.288 448.405 82.848 447.925 79.848H450.037C450.325 81.624 451.645 82.608 453.613 82.608C455.533 82.608 456.541 81.744 456.541 80.544C456.541 77.064 448.357 79.944 448.357 74.664C448.357 72.72 449.869 70.944 452.989 70.944C455.749 70.944 457.789 72.24 458.197 75.408H456.085C455.773 73.416 454.669 72.672 452.869 72.672C451.285 72.672 450.373 73.464 450.373 74.52ZM461.452 80.328V72.936H459.676V71.256H461.452V68.328H463.564V71.256H466.372V72.936H463.564V80.328C463.564 81.864 464.02 82.584 465.892 82.584H466.324V84.096C466.084 84.216 465.556 84.288 464.956 84.288C462.58 84.288 461.452 83.016 461.452 80.328ZM484.276 79.704C484.276 82.32 482.308 84.288 478.492 84.288C475.06 84.288 472.924 82.512 472.492 79.56H474.652C474.94 81.336 476.14 82.464 478.468 82.464C480.868 82.464 482.116 81.408 482.116 79.608C482.116 78.288 481.42 76.872 477.796 76.872H477.172V75.192H477.676C481.108 75.192 481.66 73.776 481.66 72.696C481.66 71.064 480.58 70.104 478.516 70.104C476.356 70.104 475.252 71.184 474.964 72.96H472.828C473.236 70.056 475.228 68.28 478.54 68.28C482.02 68.28 483.82 70.152 483.82 72.672C483.82 74.112 483.196 75.24 481.588 75.912C483.58 76.656 484.276 78.048 484.276 79.704ZM492.248 84.288C488.432 84.288 486.224 81.312 486.224 76.296C486.224 71.136 488.48 68.28 492.248 68.28C496.04 68.28 498.248 71.256 498.248 76.296C498.248 81.456 495.992 84.288 492.248 84.288ZM492.248 82.464C494.72 82.464 496.088 80.256 496.088 76.296C496.088 72.36 494.696 70.104 492.248 70.104C489.752 70.104 488.384 72.288 488.384 76.296C488.384 80.184 489.776 82.464 492.248 82.464ZM500.796 78.36V76.56H507.18V78.36H500.796ZM509.948 73.464C509.948 70.2 512.252 68.28 515.54 68.28C515.564 68.28 515.564 68.28 515.588 68.28C519.308 68.304 521.612 70.776 521.612 76.224C521.612 81.456 519.26 84.288 515.492 84.288C512.684 84.288 510.62 82.704 509.9 79.776H512.06C512.564 81.576 513.86 82.464 515.564 82.464C518.18 82.464 519.596 80.352 519.596 76.488C518.756 77.952 517.244 78.792 515.468 78.792C512.18 78.792 509.948 76.848 509.948 73.464ZM515.612 70.104C513.5 70.104 512.108 71.304 512.108 73.464C512.108 75.672 513.5 76.968 515.612 76.968C517.7 76.968 519.092 75.696 519.092 73.464C519.092 71.352 517.7 70.104 515.612 70.104ZM529.584 84.288C525.768 84.288 523.56 81.312 523.56 76.296C523.56 71.136 525.816 68.28 529.584 68.28C533.376 68.28 535.584 71.256 535.584 76.296C535.584 81.456 533.328 84.288 529.584 84.288ZM529.584 82.464C532.056 82.464 533.424 80.256 533.424 76.296C533.424 72.36 532.032 70.104 529.584 70.104C527.088 70.104 525.72 72.288 525.72 76.296C525.72 80.184 527.112 82.464 529.584 82.464ZM544.545 74.52C544.545 78.072 552.825 75.144 552.825 80.4C552.825 82.776 550.713 84.288 547.713 84.288C544.689 84.288 542.577 82.848 542.097 79.848H544.209C544.497 81.624 545.817 82.608 547.785 82.608C549.705 82.608 550.713 81.744 550.713 80.544C550.713 77.064 542.529 79.944 542.529 74.664C542.529 72.72 544.041 70.944 547.161 70.944C549.921 70.944 551.961 72.24 552.369 75.408H550.257C549.945 73.416 548.841 72.672 547.041 72.672C545.457 72.672 544.545 73.464 544.545 74.52ZM566.352 79.848C565.656 82.824 563.52 84.288 560.616 84.288C556.92 84.288 554.688 81.792 554.688 77.64C554.688 73.32 556.92 70.944 560.496 70.944C564.096 70.944 566.256 73.416 566.256 77.472V78H556.848C556.968 80.856 558.312 82.464 560.616 82.464C562.416 82.464 563.688 81.6 564.144 79.848H566.352ZM560.496 72.768C558.456 72.768 557.232 74.04 556.92 76.416H564.048C563.76 74.064 562.488 72.768 560.496 72.768ZM579.607 75.648H577.495C577.159 73.704 575.863 72.768 574.183 72.768C571.831 72.768 570.583 74.496 570.583 77.64C570.583 80.736 571.903 82.488 574.255 82.488C575.959 82.488 577.183 81.576 577.591 79.752H579.703C579.127 82.92 576.991 84.288 574.207 84.288C570.583 84.288 568.423 81.768 568.423 77.64C568.423 73.32 570.631 70.944 574.183 70.944C576.991 70.944 579.199 72.528 579.607 75.648ZM587.497 84.288C583.849 84.288 581.665 81.792 581.665 77.64C581.665 73.32 583.921 70.944 587.497 70.944C591.145 70.944 593.329 73.488 593.329 77.64C593.329 81.936 591.073 84.288 587.497 84.288ZM587.497 82.464C589.873 82.464 591.169 80.76 591.169 77.64C591.169 74.544 589.849 72.768 587.497 72.768C585.121 72.768 583.825 74.496 583.825 77.64C583.825 80.712 585.145 82.464 587.497 82.464ZM596.047 84V71.256H598.159V72.984C599.023 71.64 600.415 70.944 602.095 70.944C604.807 70.944 606.415 72.528 606.415 75.48V84H604.303V75.912C604.303 73.992 603.439 72.744 601.519 72.744C599.407 72.744 598.159 74.64 598.159 76.464V84H596.047ZM614.558 84.288C611.174 84.288 609.134 81.792 609.134 77.64C609.134 73.32 611.222 70.944 614.558 70.944C616.07 70.944 617.294 71.568 618.134 72.744V66.72H620.246V84H618.134V82.392C617.294 83.592 616.07 84.288 614.558 84.288ZM614.702 82.464C616.934 82.464 618.134 80.76 618.134 77.64C618.134 74.544 616.886 72.768 614.702 72.768C612.494 72.768 611.294 74.496 611.294 77.64C611.294 80.712 612.542 82.464 614.702 82.464ZM638.95 75.648H636.838C636.502 73.704 635.206 72.768 633.526 72.768C631.174 72.768 629.926 74.496 629.926 77.64C629.926 80.736 631.246 82.488 633.598 82.488C635.302 82.488 636.526 81.576 636.934 79.752H639.046C638.47 82.92 636.334 84.288 633.55 84.288C629.926 84.288 627.766 81.768 627.766 77.64C627.766 73.32 629.974 70.944 633.526 70.944C636.334 70.944 638.542 72.528 638.95 75.648ZM641.657 84V66.72H643.769V84H641.657ZM647.118 69.552V66.72H649.23V69.552H647.118ZM647.118 84V71.256H649.23V84H647.118ZM654.714 89.28H652.602V71.256H654.714V72.84C655.554 71.64 656.778 70.944 658.29 70.944C661.674 70.944 663.714 73.44 663.714 77.592C663.714 81.912 661.626 84.288 658.29 84.288C656.778 84.288 655.554 83.664 654.714 82.488V89.28ZM658.146 72.768C655.914 72.768 654.714 74.472 654.714 77.592C654.714 80.688 655.962 82.464 658.146 82.464C660.354 82.464 661.554 80.736 661.554 77.592C661.554 74.52 660.306 72.768 658.146 72.768ZM667.99 74.52C667.99 78.072 676.27 75.144 676.27 80.4C676.27 82.776 674.158 84.288 671.158 84.288C668.134 84.288 666.022 82.848 665.542 79.848H667.654C667.942 81.624 669.262 82.608 671.23 82.608C673.15 82.608 674.158 81.744 674.158 80.544C674.158 77.064 665.974 79.944 665.974 74.664C665.974 72.72 667.486 70.944 670.606 70.944C673.366 70.944 675.406 72.24 675.814 75.408H673.702C673.39 73.416 672.286 72.672 670.486 72.672C668.902 72.672 667.99 73.464 667.99 74.52ZM682.026 72.936V71.256H683.802V70.392C683.802 67.704 684.906 66.432 687.258 66.432C687.786 66.432 688.218 66.528 688.434 66.624V68.136H688.218C686.37 68.136 685.914 68.856 685.914 70.392V71.256H688.434V72.936H685.914V84H683.802V72.936H682.026ZM690.125 84V71.256H692.237V73.224C693.101 71.664 694.469 70.944 696.005 70.944C696.509 70.944 696.965 71.064 697.205 71.256V73.152C696.845 73.032 696.389 72.984 695.885 72.984C693.341 72.984 692.237 74.568 692.237 76.872V84H690.125ZM704.028 84.288C700.38 84.288 698.196 81.792 698.196 77.64C698.196 73.32 700.452 70.944 704.028 70.944C707.676 70.944 709.86 73.488 709.86 77.64C709.86 81.936 707.604 84.288 704.028 84.288ZM704.028 82.464C706.404 82.464 707.7 80.76 707.7 77.64C707.7 74.544 706.38 72.768 704.028 72.768C701.652 72.768 700.356 74.496 700.356 77.64C700.356 80.712 701.676 82.464 704.028 82.464ZM712.578 84V71.256H714.69V72.888C715.506 71.592 716.778 70.944 718.338 70.944C720.09 70.944 721.362 71.712 721.962 73.2C722.802 71.712 724.194 70.944 725.898 70.944C728.49 70.944 730.05 72.528 730.05 75.48V84H727.938V75.912C727.938 73.992 727.17 72.744 725.442 72.744C723.522 72.744 722.37 74.64 722.37 76.464V84H720.258V75.912C720.258 73.992 719.49 72.744 717.762 72.744C715.842 72.744 714.69 74.64 714.69 76.464V84H712.578ZM740.163 75.408H738.051C738.459 72.6 740.307 70.944 743.427 70.944C746.835 70.944 748.491 72.936 748.491 75.912V80.928C748.491 82.392 748.611 83.304 748.947 84H746.715C746.475 83.496 746.403 82.752 746.379 81.984C745.299 83.592 743.571 84.288 742.035 84.288C739.395 84.288 737.619 83.064 737.619 80.64C737.619 78.888 738.579 77.616 740.451 76.992C742.179 76.416 743.931 76.272 746.379 76.248V75.96C746.379 73.896 745.419 72.768 743.235 72.768C741.411 72.768 740.427 73.776 740.163 75.408ZM739.779 80.592C739.779 81.768 740.763 82.464 742.251 82.464C744.603 82.464 746.379 80.616 746.379 78.432V77.832C740.955 77.88 739.779 79.032 739.779 80.592ZM79.019 114V112.32H81.971V101.52H79.019V99.84H80.771C82.019 99.84 82.331 99.552 82.331 98.856V98.568H84.179V112.32H87.131V114H79.019ZM91.1672 108.36V106.56H97.5512V108.36H91.1672ZM111.983 109.704C111.983 112.32 110.015 114.288 106.199 114.288C102.767 114.288 100.631 112.512 100.199 109.56H102.359C102.647 111.336 103.847 112.464 106.175 112.464C108.575 112.464 109.823 111.408 109.823 109.608C109.823 108.288 109.127 106.872 105.503 106.872H104.879V105.192H105.383C108.815 105.192 109.367 103.776 109.367 102.696C109.367 101.064 108.287 100.104 106.223 100.104C104.063 100.104 102.959 101.184 102.671 102.96H100.535C100.943 100.056 102.935 98.28 106.247 98.28C109.727 98.28 111.527 100.152 111.527 102.672C111.527 104.112 110.903 105.24 109.295 105.912C111.287 106.656 111.983 108.048 111.983 109.704ZM119.528 114V96.72H121.64V102.984C122.504 101.64 123.896 100.944 125.576 100.944C128.288 100.944 129.896 102.528 129.896 105.48V114H127.784V105.912C127.784 103.992 126.92 102.744 125 102.744C122.888 102.744 121.64 104.64 121.64 106.464V114H119.528ZM138.446 114.288C134.798 114.288 132.614 111.792 132.614 107.64C132.614 103.32 134.87 100.944 138.446 100.944C142.094 100.944 144.278 103.488 144.278 107.64C144.278 111.936 142.022 114.288 138.446 114.288ZM138.446 112.464C140.822 112.464 142.118 110.76 142.118 107.64C142.118 104.544 140.798 102.768 138.446 102.768C136.07 102.768 134.774 104.496 134.774 107.64C134.774 110.712 136.094 112.464 138.446 112.464ZM155.108 108.792V101.256H157.22V114H155.108V112.272C154.244 113.616 152.9 114.288 151.244 114.288C148.58 114.288 146.996 112.728 146.996 109.776V101.256H149.108V109.344C149.108 111.264 149.948 112.488 151.82 112.488C153.884 112.488 155.108 110.616 155.108 108.792ZM160.59 114V101.256H162.702V103.224C163.566 101.664 164.934 100.944 166.47 100.944C166.974 100.944 167.43 101.064 167.67 101.256V103.152C167.31 103.032 166.854 102.984 166.35 102.984C163.806 102.984 162.702 104.568 162.702 106.872V114H160.59ZM176.484 119.28H174.372V101.256H176.484V102.84C177.324 101.64 178.548 100.944 180.06 100.944C183.444 100.944 185.484 103.44 185.484 107.592C185.484 111.912 183.396 114.288 180.06 114.288C178.548 114.288 177.324 113.664 176.484 112.488V119.28ZM179.916 102.768C177.684 102.768 176.484 104.472 176.484 107.592C176.484 110.688 177.732 112.464 179.916 112.464C182.124 112.464 183.324 110.736 183.324 107.592C183.324 104.52 182.076 102.768 179.916 102.768ZM193.384 114.288C189.736 114.288 187.552 111.792 187.552 107.64C187.552 103.32 189.808 100.944 193.384 100.944C197.032 100.944 199.216 103.488 199.216 107.64C199.216 111.936 196.96 114.288 193.384 114.288ZM193.384 112.464C195.76 112.464 197.056 110.76 197.056 107.64C197.056 104.544 195.736 102.768 193.384 102.768C191.008 102.768 189.712 104.496 189.712 107.64C189.712 110.712 191.032 112.464 193.384 112.464ZM206.71 114.288C203.326 114.288 201.286 111.792 201.286 107.64C201.286 103.32 203.374 100.944 206.71 100.944C208.222 100.944 209.446 101.568 210.286 102.744V96.72H212.398V114H210.286V112.392C209.446 113.592 208.222 114.288 206.71 114.288ZM206.854 112.464C209.086 112.464 210.286 110.76 210.286 107.64C210.286 104.544 209.038 102.768 206.854 102.768C204.646 102.768 203.446 104.496 203.446 107.64C203.446 110.712 204.694 112.464 206.854 112.464ZM226.298 105.648H224.186C223.85 103.704 222.554 102.768 220.874 102.768C218.522 102.768 217.274 104.496 217.274 107.64C217.274 110.736 218.594 112.488 220.946 112.488C222.65 112.488 223.874 111.576 224.282 109.752H226.394C225.818 112.92 223.682 114.288 220.898 114.288C217.274 114.288 215.114 111.768 215.114 107.64C215.114 103.32 217.322 100.944 220.874 100.944C223.682 100.944 225.89 102.528 226.298 105.648ZM230.948 105.408H228.836C229.244 102.6 231.092 100.944 234.212 100.944C237.62 100.944 239.276 102.936 239.276 105.912V110.928C239.276 112.392 239.396 113.304 239.732 114H237.5C237.26 113.496 237.188 112.752 237.164 111.984C236.084 113.592 234.356 114.288 232.82 114.288C230.18 114.288 228.404 113.064 228.404 110.64C228.404 108.888 229.364 107.616 231.236 106.992C232.964 106.416 234.716 106.272 237.164 106.248V105.96C237.164 103.896 236.204 102.768 234.02 102.768C232.196 102.768 231.212 103.776 230.948 105.408ZM230.564 110.592C230.564 111.768 231.548 112.464 233.036 112.464C235.388 112.464 237.164 110.616 237.164 108.432V107.832C231.74 107.88 230.564 109.032 230.564 110.592ZM244.299 104.52C244.299 108.072 252.579 105.144 252.579 110.4C252.579 112.776 250.467 114.288 247.467 114.288C244.443 114.288 242.331 112.848 241.851 109.848H243.963C244.251 111.624 245.571 112.608 247.539 112.608C249.459 112.608 250.467 111.744 250.467 110.544C250.467 107.064 242.283 109.944 242.283 104.664C242.283 102.72 243.795 100.944 246.915 100.944C249.675 100.944 251.715 102.24 252.123 105.408H250.011C249.699 103.416 248.595 102.672 246.795 102.672C245.211 102.672 244.299 103.464 244.299 104.52ZM255.378 110.328V102.936H253.602V101.256H255.378V98.328H257.49V101.256H260.298V102.936H257.49V110.328C257.49 111.864 257.946 112.584 259.818 112.584H260.25V114.096C260.01 114.216 259.482 114.288 258.882 114.288C256.506 114.288 255.378 113.016 255.378 110.328ZM277.65 105.648H275.538C275.202 103.704 273.906 102.768 272.226 102.768C269.874 102.768 268.626 104.496 268.626 107.64C268.626 110.736 269.946 112.488 272.298 112.488C274.002 112.488 275.226 111.576 275.634 109.752H277.746C277.17 112.92 275.034 114.288 272.25 114.288C268.626 114.288 266.466 111.768 266.466 107.64C266.466 103.32 268.674 100.944 272.226 100.944C275.034 100.944 277.242 102.528 277.65 105.648ZM282.3 105.408H280.188C280.596 102.6 282.444 100.944 285.564 100.944C288.972 100.944 290.628 102.936 290.628 105.912V110.928C290.628 112.392 290.748 113.304 291.084 114H288.852C288.612 113.496 288.54 112.752 288.516 111.984C287.436 113.592 285.708 114.288 284.172 114.288C281.532 114.288 279.756 113.064 279.756 110.64C279.756 108.888 280.716 107.616 282.588 106.992C284.316 106.416 286.068 106.272 288.516 106.248V105.96C288.516 103.896 287.556 102.768 285.372 102.768C283.548 102.768 282.564 103.776 282.3 105.408ZM281.916 110.592C281.916 111.768 282.9 112.464 284.388 112.464C286.74 112.464 288.516 110.616 288.516 108.432V107.832C283.092 107.88 281.916 109.032 281.916 110.592ZM294.09 114V101.256H296.202V102.984C297.066 101.64 298.458 100.944 300.138 100.944C302.85 100.944 304.458 102.528 304.458 105.48V114H302.346V105.912C302.346 103.992 301.482 102.744 299.562 102.744C297.45 102.744 296.202 104.64 296.202 106.464V114H294.09ZM314.741 114H312.629V96.72H314.741V102.84C315.581 101.64 316.805 100.944 318.317 100.944C321.701 100.944 323.741 103.44 323.741 107.592C323.741 111.912 321.653 114.288 318.317 114.288C316.805 114.288 315.581 113.664 314.741 112.488V114ZM318.173 102.768C315.941 102.768 314.741 104.472 314.741 107.592C314.741 110.688 315.989 112.464 318.173 112.464C320.381 112.464 321.581 110.736 321.581 107.592C321.581 104.52 320.333 102.768 318.173 102.768ZM337.473 109.848C336.777 112.824 334.641 114.288 331.737 114.288C328.041 114.288 325.809 111.792 325.809 107.64C325.809 103.32 328.041 100.944 331.617 100.944C335.217 100.944 337.377 103.416 337.377 107.472V108H327.969C328.089 110.856 329.433 112.464 331.737 112.464C333.537 112.464 334.809 111.6 335.265 109.848H337.473ZM331.617 102.768C329.577 102.768 328.353 104.04 328.041 106.416H335.169C334.881 104.064 333.609 102.768 331.617 102.768ZM356.012 109.848C355.316 112.824 353.18 114.288 350.276 114.288C346.58 114.288 344.348 111.792 344.348 107.64C344.348 103.32 346.58 100.944 350.156 100.944C353.756 100.944 355.916 103.416 355.916 107.472V108H346.508C346.628 110.856 347.972 112.464 350.276 112.464C352.076 112.464 353.348 111.6 353.804 109.848H356.012ZM350.156 102.768C348.116 102.768 346.892 104.04 346.58 106.416H353.708C353.42 104.064 352.148 102.768 350.156 102.768ZM366.491 114L363.443 109.752L362.819 108.768L362.195 109.752L359.219 114H356.819L361.667 107.376L357.203 101.256H359.843L362.483 105L363.131 106.032L363.755 105L366.347 101.256H368.747L364.283 107.376L369.131 114H366.491ZM373.078 119.28H370.966V101.256H373.078V102.84C373.918 101.64 375.142 100.944 376.654 100.944C380.038 100.944 382.078 103.44 382.078 107.592C382.078 111.912 379.99 114.288 376.654 114.288C375.142 114.288 373.918 113.664 373.078 112.488V119.28ZM376.51 102.768C374.278 102.768 373.078 104.472 373.078 107.592C373.078 110.688 374.326 112.464 376.51 112.464C378.718 112.464 379.918 110.736 379.918 107.592C379.918 104.52 378.67 102.768 376.51 102.768ZM395.809 109.848C395.113 112.824 392.977 114.288 390.073 114.288C386.377 114.288 384.145 111.792 384.145 107.64C384.145 103.32 386.377 100.944 389.953 100.944C393.553 100.944 395.713 103.416 395.713 107.472V108H386.305C386.425 110.856 387.769 112.464 390.073 112.464C391.873 112.464 393.145 111.6 393.601 109.848H395.809ZM389.953 102.768C387.913 102.768 386.689 104.04 386.377 106.416H393.505C393.217 104.064 391.945 102.768 389.953 102.768ZM398.528 114V101.256H400.64V102.984C401.504 101.64 402.896 100.944 404.576 100.944C407.288 100.944 408.896 102.528 408.896 105.48V114H406.784V105.912C406.784 103.992 405.92 102.744 404 102.744C401.888 102.744 400.64 104.64 400.64 106.464V114H398.528ZM413.822 104.52C413.822 108.072 422.102 105.144 422.102 110.4C422.102 112.776 419.99 114.288 416.99 114.288C413.966 114.288 411.854 112.848 411.374 109.848H413.486C413.774 111.624 415.094 112.608 417.062 112.608C418.982 112.608 419.99 111.744 419.99 110.544C419.99 107.064 411.806 109.944 411.806 104.664C411.806 102.72 413.318 100.944 416.438 100.944C419.198 100.944 421.238 102.24 421.646 105.408H419.534C419.222 103.416 418.118 102.672 416.318 102.672C414.734 102.672 413.822 103.464 413.822 104.52ZM424.614 99.552V96.72H426.726V99.552H424.614ZM424.614 114V101.256H426.726V114H424.614ZM433.267 114L428.515 101.256H430.795L434.323 111.144L434.635 112.248L434.947 111.144L438.475 101.256H440.611L435.859 114H433.267ZM453.419 109.848C452.723 112.824 450.587 114.288 447.683 114.288C443.987 114.288 441.755 111.792 441.755 107.64C441.755 103.32 443.987 100.944 447.563 100.944C451.163 100.944 453.323 103.416 453.323 107.472V108H443.915C444.035 110.856 445.379 112.464 447.683 112.464C449.483 112.464 450.755 111.6 451.211 109.848H453.419ZM447.563 102.768C445.523 102.768 444.299 104.04 443.987 106.416H451.115C450.827 104.064 449.555 102.768 447.563 102.768ZM462.886 105.408H460.774C461.182 102.6 463.03 100.944 466.15 100.944C469.558 100.944 471.214 102.936 471.214 105.912V110.928C471.214 112.392 471.334 113.304 471.67 114H469.438C469.198 113.496 469.126 112.752 469.102 111.984C468.022 113.592 466.294 114.288 464.758 114.288C462.118 114.288 460.342 113.064 460.342 110.64C460.342 108.888 461.302 107.616 463.174 106.992C464.902 106.416 466.654 106.272 469.102 106.248V105.96C469.102 103.896 468.142 102.768 465.958 102.768C464.134 102.768 463.15 103.776 462.886 105.408ZM462.502 110.592C462.502 111.768 463.486 112.464 464.974 112.464C467.326 112.464 469.102 110.616 469.102 108.432V107.832C463.678 107.88 462.502 109.032 462.502 110.592ZM474.676 114V101.256H476.788V102.984C477.652 101.64 479.044 100.944 480.724 100.944C483.436 100.944 485.044 102.528 485.044 105.48V114H482.932V105.912C482.932 103.992 482.068 102.744 480.148 102.744C478.036 102.744 476.788 104.64 476.788 106.464V114H474.676ZM493.186 114.288C489.802 114.288 487.762 111.792 487.762 107.64C487.762 103.32 489.85 100.944 493.186 100.944C494.698 100.944 495.922 101.568 496.762 102.744V96.72H498.874V114H496.762V112.392C495.922 113.592 494.698 114.288 493.186 114.288ZM493.33 112.464C495.562 112.464 496.762 110.76 496.762 107.64C496.762 104.544 495.514 102.768 493.33 102.768C491.122 102.768 489.922 104.496 489.922 107.64C489.922 110.712 491.17 112.464 493.33 112.464ZM507.331 110.328V102.936H505.555V101.256H507.331V98.328H509.443V101.256H512.251V102.936H509.443V110.328C509.443 111.864 509.899 112.584 511.771 112.584H512.203V114.096C511.963 114.216 511.435 114.288 510.835 114.288C508.459 114.288 507.331 113.016 507.331 110.328ZM514.262 99.552V96.72H516.374V99.552H514.262ZM514.262 114V101.256H516.374V114H514.262ZM519.723 114V101.256H521.835V102.888C522.651 101.592 523.923 100.944 525.483 100.944C527.235 100.944 528.507 101.712 529.107 103.2C529.947 101.712 531.339 100.944 533.043 100.944C535.635 100.944 537.195 102.528 537.195 105.48V114H535.083V105.912C535.083 103.992 534.315 102.744 532.587 102.744C530.667 102.744 529.515 104.64 529.515 106.464V114H527.403V105.912C527.403 103.992 526.635 102.744 524.907 102.744C522.987 102.744 521.835 104.64 521.835 106.464V114H519.723ZM551.575 109.848C550.879 112.824 548.743 114.288 545.839 114.288C542.143 114.288 539.911 111.792 539.911 107.64C539.911 103.32 542.143 100.944 545.719 100.944C549.319 100.944 551.479 103.416 551.479 107.472V108H542.071C542.191 110.856 543.535 112.464 545.839 112.464C547.639 112.464 548.911 111.6 549.367 109.848H551.575ZM545.719 102.768C543.679 102.768 542.455 104.04 542.143 106.416H549.271C548.983 104.064 547.711 102.768 545.719 102.768ZM554.245 108.36V106.56H560.629V108.36H554.245ZM574.509 105.648H572.397C572.061 103.704 570.765 102.768 569.085 102.768C566.733 102.768 565.485 104.496 565.485 107.64C565.485 110.736 566.805 112.488 569.157 112.488C570.861 112.488 572.085 111.576 572.493 109.752H574.605C574.029 112.92 571.893 114.288 569.109 114.288C565.485 114.288 563.325 111.768 563.325 107.64C563.325 103.32 565.533 100.944 569.085 100.944C571.893 100.944 574.101 102.528 574.509 105.648ZM582.399 114.288C578.751 114.288 576.567 111.792 576.567 107.64C576.567 103.32 578.823 100.944 582.399 100.944C586.047 100.944 588.231 103.488 588.231 107.64C588.231 111.936 585.975 114.288 582.399 114.288ZM582.399 112.464C584.775 112.464 586.071 110.76 586.071 107.64C586.071 104.544 584.751 102.768 582.399 102.768C580.023 102.768 578.727 104.496 578.727 107.64C578.727 110.712 580.047 112.464 582.399 112.464ZM590.95 114V101.256H593.062V102.984C593.926 101.64 595.318 100.944 596.998 100.944C599.71 100.944 601.318 102.528 601.318 105.48V114H599.206V105.912C599.206 103.992 598.342 102.744 596.422 102.744C594.31 102.744 593.062 104.64 593.062 106.464V114H590.95ZM606.244 104.52C606.244 108.072 614.524 105.144 614.524 110.4C614.524 112.776 612.412 114.288 609.412 114.288C606.388 114.288 604.276 112.848 603.796 109.848H605.908C606.196 111.624 607.516 112.608 609.484 112.608C611.404 112.608 612.412 111.744 612.412 110.544C612.412 107.064 604.228 109.944 604.228 104.664C604.228 102.72 605.74 100.944 608.86 100.944C611.62 100.944 613.66 102.24 614.068 105.408H611.956C611.644 103.416 610.54 102.672 608.74 102.672C607.156 102.672 606.244 103.464 606.244 104.52ZM625.147 108.792V101.256H627.259V114H625.147V112.272C624.283 113.616 622.939 114.288 621.283 114.288C618.619 114.288 617.035 112.728 617.035 109.776V101.256H619.147V109.344C619.147 111.264 619.987 112.488 621.859 112.488C623.923 112.488 625.147 110.616 625.147 108.792ZM630.629 114V101.256H632.741V102.888C633.557 101.592 634.829 100.944 636.389 100.944C638.141 100.944 639.413 101.712 640.013 103.2C640.853 101.712 642.245 100.944 643.949 100.944C646.541 100.944 648.101 102.528 648.101 105.48V114H645.989V105.912C645.989 103.992 645.221 102.744 643.493 102.744C641.573 102.744 640.421 104.64 640.421 106.464V114H638.309V105.912C638.309 103.992 637.541 102.744 635.813 102.744C633.893 102.744 632.741 104.64 632.741 106.464V114H630.629ZM651.465 99.552V96.72H653.577V99.552H651.465ZM651.465 114V101.256H653.577V114H651.465ZM656.926 114V101.256H659.038V102.984C659.902 101.64 661.294 100.944 662.974 100.944C665.686 100.944 667.294 102.528 667.294 105.48V114H665.182V105.912C665.182 103.992 664.318 102.744 662.398 102.744C660.286 102.744 659.038 104.64 659.038 106.464V114H656.926ZM675.196 114.096C671.956 114.096 670.012 111.624 670.012 107.544C670.012 103.272 672.004 100.944 675.196 100.944C676.9 100.944 678.172 101.544 679.012 102.648V101.256H681.124V114.384C681.124 117.936 678.844 119.592 675.916 119.592C672.916 119.592 670.804 118.152 670.348 115.248H672.46C672.724 116.928 674.044 117.84 675.892 117.84C677.764 117.84 679.012 116.832 679.012 114.456V112.272C678.124 113.472 676.828 114.096 675.196 114.096ZM675.58 112.272C677.812 112.272 679.012 110.592 679.012 107.52C679.012 104.52 677.764 102.768 675.58 102.768C673.372 102.768 672.172 104.448 672.172 107.544C672.172 110.544 673.396 112.272 675.58 112.272ZM684.272 114V111.408H686.864V114H684.272Z" fill="#8D8E92"/>
<rect x="764" y="127" width="764" height="41.0001" transform="rotate(180 764 127)" fill="url(#paint0_linear_19209_15233)"/>
<rect x="764" y="127" width="764" height="127" transform="rotate(180 764 127)" fill="url(#paint1_linear_19209_15233)"/>
<defs>
<linearGradient id="paint0_linear_19209_15233" x1="1146" y1="127" x2="1146" y2="168" gradientUnits="userSpaceOnUse">
<stop stop-color="#0C0C0C"/>
<stop offset="1" stop-color="#0C0C0C" stop-opacity="0"/>
</linearGradient>
<linearGradient id="paint1_linear_19209_15233" x1="1146" y1="127" x2="1146" y2="254" gradientUnits="userSpaceOnUse">
<stop stop-color="#0C0C0C" stop-opacity="0"/>
<stop offset="1" stop-color="#0C0C0C"/>
</linearGradient>
</defs>
</svg>
