<svg width="343" height="33" viewBox="0 0 343 33" fill="none" xmlns="http://www.w3.org/2000/svg">
<rect width="343" height="33" rx="16.5" fill="url(#paint0_linear_19196_17090)" fill-opacity="0.1"/>
<path d="M88.5053 15.308H86.8673C86.5453 14.216 85.6353 13.614 84.5013 13.614C82.7653 13.614 81.7293 15 81.7293 17.254C81.7293 19.508 82.7513 20.866 84.5013 20.866C85.5933 20.866 86.4753 20.306 86.8393 19.228H88.4913C87.9733 21.118 86.3773 22.182 84.5013 22.182C81.7853 22.182 80.1333 20.32 80.1333 17.254C80.1333 14.202 81.7993 12.298 84.5433 12.298C86.4333 12.298 88.0573 13.334 88.5053 15.308ZM89.9549 22V11.92H91.4529V15.532C91.9569 14.734 92.7409 14.342 93.7069 14.342C95.2609 14.342 96.2269 15.252 96.2269 17.016V22H94.7429V17.324C94.7429 16.246 94.2669 15.588 93.2449 15.588C92.1249 15.588 91.4529 16.582 91.4529 17.618V22H89.9549ZM99.4627 16.974H97.9647C98.2027 15.322 99.3367 14.342 101.199 14.342C103.229 14.342 104.237 15.532 104.237 17.268V20.18C104.237 21.076 104.321 21.594 104.489 22H102.921C102.809 21.72 102.767 21.328 102.753 20.908C102.123 21.79 101.157 22.182 100.261 22.182C98.7487 22.182 97.7127 21.468 97.7127 20.04C97.7127 19.018 98.2727 18.262 99.3927 17.884C100.387 17.548 101.395 17.464 102.739 17.45V17.282C102.739 16.19 102.235 15.602 101.087 15.602C100.121 15.602 99.6027 16.134 99.4627 16.974ZM99.2247 19.984C99.2247 20.614 99.7427 21.006 100.541 21.006C101.787 21.006 102.739 20.012 102.739 18.808V18.472C99.8687 18.5 99.2247 19.13 99.2247 19.984ZM106.115 22V14.538H107.613V15.532C108.117 14.734 108.901 14.342 109.867 14.342C111.421 14.342 112.387 15.252 112.387 17.016V22H110.903V17.324C110.903 16.246 110.427 15.588 109.405 15.588C108.285 15.588 107.613 16.582 107.613 17.618V22H106.115ZM116.897 22.042C114.993 22.042 113.845 20.586 113.845 18.206C113.845 15.714 115.021 14.342 116.897 14.342C117.849 14.342 118.563 14.678 119.039 15.322V14.538H120.537V22.238C120.537 24.282 119.179 25.276 117.387 25.276C115.595 25.276 114.307 24.436 114.041 22.7H115.539C115.679 23.596 116.393 24.072 117.373 24.072C118.367 24.072 119.039 23.554 119.039 22.266V21.006C118.535 21.692 117.807 22.042 116.897 22.042ZM117.205 20.782C118.395 20.782 119.039 19.872 119.039 18.192C119.039 16.554 118.367 15.602 117.205 15.602C116.015 15.602 115.371 16.512 115.371 18.206C115.371 19.844 116.029 20.782 117.205 20.782ZM128.979 19.564C128.573 21.3 127.285 22.182 125.535 22.182C123.337 22.182 121.993 20.712 121.993 18.276C121.993 15.742 123.337 14.342 125.465 14.342C127.621 14.342 128.923 15.798 128.923 18.192V18.556H123.519C123.603 20.082 124.317 20.936 125.535 20.936C126.487 20.936 127.159 20.488 127.411 19.564H128.979ZM125.465 15.588C124.387 15.588 123.743 16.274 123.561 17.534H127.369C127.187 16.274 126.529 15.588 125.465 15.588ZM133.368 19.774V15.7H132.36V14.538H133.368V12.816H134.866V14.538H136.476V15.7H134.866V19.69C134.866 20.544 135.104 20.95 136.154 20.95H136.448V22.042C136.28 22.126 135.93 22.182 135.51 22.182C134.054 22.182 133.368 21.384 133.368 19.774ZM137.601 22V11.92H139.099V15.532C139.603 14.734 140.387 14.342 141.353 14.342C142.907 14.342 143.873 15.252 143.873 17.016V22H142.389V17.324C142.389 16.246 141.913 15.588 140.891 15.588C139.771 15.588 139.099 16.582 139.099 17.618V22H137.601ZM152.317 19.564C151.911 21.3 150.623 22.182 148.873 22.182C146.675 22.182 145.331 20.712 145.331 18.276C145.331 15.742 146.675 14.342 148.803 14.342C150.959 14.342 152.261 15.798 152.261 18.192V18.556H146.857C146.941 20.082 147.655 20.936 148.873 20.936C149.825 20.936 150.497 20.488 150.749 19.564H152.317ZM148.803 15.588C147.725 15.588 147.081 16.274 146.899 17.534H150.707C150.525 16.274 149.867 15.588 148.803 15.588ZM163.034 22L161.55 16.694L161.396 15.854L161.228 16.694L159.744 22H157.896L155.74 14.538H157.35L158.722 20.082L158.904 20.922L159.1 20.082L160.668 14.538H162.25L163.832 20.082L164 20.88L164.168 20.082L165.54 14.538H167.08L164.91 22H163.034ZM169.517 16.974H168.019C168.257 15.322 169.391 14.342 171.253 14.342C173.283 14.342 174.291 15.532 174.291 17.268V20.18C174.291 21.076 174.375 21.594 174.543 22H172.975C172.863 21.72 172.821 21.328 172.807 20.908C172.177 21.79 171.211 22.182 170.315 22.182C168.803 22.182 167.767 21.468 167.767 20.04C167.767 19.018 168.327 18.262 169.447 17.884C170.441 17.548 171.449 17.464 172.793 17.45V17.282C172.793 16.19 172.289 15.602 171.141 15.602C170.175 15.602 169.657 16.134 169.517 16.974ZM169.279 19.984C169.279 20.614 169.797 21.006 170.595 21.006C171.841 21.006 172.793 20.012 172.793 18.808V18.472C169.923 18.5 169.279 19.13 169.279 19.984ZM176.497 25.262C176.175 25.262 175.839 25.178 175.671 25.122V23.974H176.077C176.931 23.974 177.253 23.806 177.897 22.252L178.121 21.734L175.125 14.538H176.735L178.583 19.186L178.905 20.208L179.227 19.186L181.019 14.538H182.545L179.157 22.868C178.401 24.73 177.827 25.262 176.497 25.262ZM186.805 25.262C186.483 25.262 186.147 25.178 185.979 25.122V23.974H186.385C187.239 23.974 187.561 23.806 188.205 22.252L188.429 21.734L185.433 14.538H187.043L188.891 19.186L189.213 20.208L189.535 19.186L191.327 14.538H192.853L189.465 22.868C188.709 24.73 188.135 25.262 186.805 25.262ZM196.833 22.182C194.663 22.182 193.347 20.712 193.347 18.276C193.347 15.742 194.705 14.342 196.833 14.342C199.003 14.342 200.319 15.84 200.319 18.276C200.319 20.796 198.961 22.182 196.833 22.182ZM196.833 20.922C198.107 20.922 198.793 19.998 198.793 18.276C198.793 16.568 198.093 15.602 196.833 15.602C195.573 15.602 194.873 16.54 194.873 18.276C194.873 19.97 195.573 20.922 196.833 20.922ZM206.481 18.906V14.538H207.965V22H206.481V20.992C205.991 21.79 205.207 22.182 204.255 22.182C202.729 22.182 201.777 21.286 201.777 19.522V14.538H203.275V19.214C203.275 20.292 203.723 20.936 204.717 20.936C205.809 20.936 206.481 19.942 206.481 18.906ZM214.035 25.08H212.537V14.538H214.035V15.434C214.511 14.734 215.211 14.342 216.065 14.342C218.039 14.342 219.229 15.812 219.229 18.248C219.229 20.782 218.011 22.182 216.065 22.182C215.211 22.182 214.511 21.832 214.035 21.146V25.08ZM215.883 15.602C214.679 15.602 214.035 16.54 214.035 18.248C214.035 19.956 214.707 20.922 215.883 20.922C217.059 20.922 217.703 19.97 217.703 18.248C217.703 16.554 217.031 15.602 215.883 15.602ZM223.807 22.182C221.637 22.182 220.321 20.712 220.321 18.276C220.321 15.742 221.679 14.342 223.807 14.342C225.977 14.342 227.293 15.84 227.293 18.276C227.293 20.796 225.935 22.182 223.807 22.182ZM223.807 20.922C225.081 20.922 225.767 19.998 225.767 18.276C225.767 16.568 225.067 15.602 223.807 15.602C222.547 15.602 221.847 16.54 221.847 18.276C221.847 19.97 222.547 20.922 223.807 20.922ZM231.552 22.182C229.578 22.182 228.388 20.712 228.388 18.276C228.388 15.742 229.606 14.342 231.552 14.342C232.406 14.342 233.106 14.692 233.582 15.378V11.92H235.08V22H233.582V21.09C233.106 21.79 232.406 22.182 231.552 22.182ZM231.748 20.922C232.938 20.922 233.582 19.998 233.582 18.276C233.582 16.568 232.91 15.602 231.748 15.602C230.558 15.602 229.914 16.554 229.914 18.276C229.914 19.97 230.586 20.922 231.748 20.922ZM243.201 17.142H241.703C241.521 16.078 240.835 15.602 239.967 15.602C238.721 15.602 238.049 16.554 238.049 18.276C238.049 19.97 238.749 20.936 240.009 20.936C240.905 20.936 241.535 20.446 241.759 19.494H243.243C242.921 21.356 241.633 22.182 239.981 22.182C237.825 22.182 236.523 20.698 236.523 18.276C236.523 15.742 237.853 14.342 239.967 14.342C241.633 14.342 242.949 15.28 243.201 17.142ZM246.053 16.974H244.555C244.793 15.322 245.927 14.342 247.789 14.342C249.819 14.342 250.827 15.532 250.827 17.268V20.18C250.827 21.076 250.911 21.594 251.079 22H249.511C249.399 21.72 249.357 21.328 249.343 20.908C248.713 21.79 247.747 22.182 246.851 22.182C245.339 22.182 244.303 21.468 244.303 20.04C244.303 19.018 244.863 18.262 245.983 17.884C246.977 17.548 247.985 17.464 249.329 17.45V17.282C249.329 16.19 248.825 15.602 247.677 15.602C246.711 15.602 246.193 16.134 246.053 16.974ZM245.815 19.984C245.815 20.614 246.333 21.006 247.131 21.006C248.377 21.006 249.329 20.012 249.329 18.808V18.472C246.459 18.5 245.815 19.13 245.815 19.984ZM253.895 16.498C253.895 18.402 258.669 16.806 258.669 19.844C258.669 21.258 257.395 22.182 255.589 22.182C253.783 22.182 252.509 21.342 252.229 19.564H253.727C253.881 20.502 254.581 21.02 255.631 21.02C256.639 21.02 257.171 20.572 257.171 19.942C257.171 18.08 252.467 19.648 252.467 16.582C252.467 15.42 253.377 14.342 255.267 14.342C256.933 14.342 258.165 15.112 258.403 16.974H256.905C256.737 15.924 256.149 15.532 255.197 15.532C254.371 15.532 253.895 15.938 253.895 16.498ZM260.229 19.774V15.7H259.221V14.538H260.229V12.816H261.727V14.538H263.337V15.7H261.727V19.69C261.727 20.544 261.965 20.95 263.015 20.95H263.309V22.042C263.141 22.126 262.791 22.182 262.371 22.182C260.915 22.182 260.229 21.384 260.229 19.774Z" fill="#E99700"/>
<defs>
<linearGradient id="paint0_linear_19196_17090" x1="0" y1="16.5" x2="343" y2="16.5" gradientUnits="userSpaceOnUse">
<stop stop-color="#F39F21" stop-opacity="0"/>
<stop offset="0.525" stop-color="#F39F21"/>
<stop offset="1" stop-color="#F39F21" stop-opacity="0"/>
</linearGradient>
</defs>
</svg>
