<svg width="98" height="33" viewBox="0 0 98 33" fill="none" xmlns="http://www.w3.org/2000/svg">
<g clip-path="url(#clip0_19275_20549)">
<path d="M38.054 19.401C37.0522 21.4348 35.0992 22.8333 32.8379 22.8333C29.5486 22.8333 26.8766 19.8841 26.8766 16.2479C26.8766 12.6117 29.5486 9.63672 32.8379 9.63672C34.8424 9.63672 36.6408 10.7552 37.7196 12.4588C36.8715 12.8659 35.8129 13.3756 35.1193 13.7058L35.0992 13.6792C34.5594 12.9161 33.7375 12.4588 32.8379 12.4588C31.1417 12.4588 29.7546 14.1373 29.7546 16.2472C29.7546 18.3571 31.1424 20.0356 32.8379 20.0356C33.8913 20.0356 34.8162 19.3744 35.3814 18.3571L38.0533 19.3995L38.054 19.401Z" fill="white"/>
<path d="M43.3725 7.37477C43.3725 6.58651 44.0145 5.95117 44.8111 5.95117C45.6077 5.95117 46.2497 6.58651 46.2497 7.37477C46.2497 8.16304 45.6077 8.79838 44.8111 8.79838C44.0145 8.79838 43.3725 8.16304 43.3725 7.37477ZM43.3725 22.7581V9.71445H44.246C45.3509 9.71445 46.2505 10.6047 46.2505 11.698V22.7589H43.3725V22.7581Z" fill="white"/>
<path d="M59.5607 16.2492C59.5607 19.8854 57.2479 22.8345 54.3961 22.8345C52.9313 22.8345 51.595 22.0714 50.6446 20.8007V27.3609H47.7928V9.71476H48.6409C49.7458 9.71476 50.6454 10.5791 50.6454 11.6725C51.5958 10.4269 52.9321 9.63867 54.3968 9.63867C57.2487 9.63867 59.5615 12.5878 59.5615 16.2499L59.5607 16.2492ZM56.6828 16.2492C56.6828 13.6051 55.3211 12.0286 53.651 12.0286C51.981 12.0286 50.7477 13.478 50.6446 15.995V16.4782C50.7477 19.021 52.0579 20.4446 53.651 20.4446C55.2442 20.4446 56.6828 18.8681 56.6828 16.2492Z" fill="white"/>
<path d="M39.8271 5.11133C40.932 5.11133 41.8316 6.00154 41.8316 7.09492V22.7582H38.9536V5.11133H39.8271Z" fill="white"/>
<path d="M72.2798 10.1708C72.2798 10.9591 71.8169 11.6454 71.1495 11.9505C71.843 12.891 72.2798 14.0612 72.2798 15.3068C72.2798 16.6291 71.8169 17.8237 71.0465 18.79C70.4813 19.5022 69.7363 20.0866 68.8882 20.4685L68.503 20.6214L68.4514 20.6466L64.1864 22.3753C63.7497 22.5533 63.4667 22.9604 63.4667 23.4177C63.4667 23.7228 63.5951 24.0028 63.8004 24.2059C64.0057 24.4091 64.2887 24.5362 64.597 24.5362H72.2798V27.3841H64.1087C62.4902 27.3841 61.0255 26.3158 60.691 24.7401C60.6395 24.4859 60.588 24.2318 60.588 24.0028C60.588 23.3165 60.8194 22.6553 61.1793 22.1211C61.5391 21.587 62.0789 21.1548 62.7209 20.8756L63.8773 20.4175C61.9243 19.5022 60.588 17.5445 60.588 15.3068C60.588 12.1796 63.2091 9.63672 66.4208 9.63672C66.6007 9.63672 66.7545 9.63672 66.9344 9.66184C67.3197 9.68695 67.7056 9.71281 68.0647 9.71281H72.279V10.1708H72.2798ZM66.4216 18.4598C68.0401 18.4598 69.3764 17.0613 69.3764 15.3068C69.3764 13.5522 68.0401 12.1537 66.4216 12.1537C64.803 12.1537 63.4921 13.5773 63.4921 15.3068C63.4921 17.0362 64.8023 18.4598 66.4216 18.4598Z" fill="white"/>
<path d="M76.2111 16.6801C76.391 18.5618 77.6758 20.0363 79.269 20.0363C80.3224 20.0363 81.2735 19.35 81.8386 18.3327L84.4851 19.401C83.4833 21.4607 81.5303 22.8333 79.269 22.8333C76.1088 22.8333 73.5392 20.1124 73.3331 16.6801C73.3078 16.5272 73.3078 16.375 73.3078 16.2479C73.3078 15.7138 73.3593 15.2307 73.4623 14.7475C74.0789 11.8235 76.4425 9.63672 79.269 9.63672C82.0954 9.63672 84.459 11.8235 85.0503 14.7475C85.1533 15.2307 85.2048 15.7138 85.2048 16.2479V16.6801H76.2118H76.2111ZM82.0954 14.7475C81.6587 13.298 80.5538 12.1796 79.269 12.1796C77.9842 12.1796 76.8793 13.298 76.4171 14.7475H82.0954Z" fill="white"/>
<path d="M98 15.8931V22.7584H95.122V16.2492C95.122 13.6051 94.0425 12.0286 92.3725 12.0286C90.7024 12.0286 89.443 13.478 89.3661 15.995V22.7584H86.4882V9.71476H87.3616C88.4665 9.71476 89.34 10.605 89.3661 11.6725C90.3165 10.4269 91.6274 9.63867 93.1176 9.63867C95.8671 9.63867 97.9993 12.3847 97.9993 15.8938L98 15.8931Z" fill="white"/>
<path d="M8.66375 20.8961C5.85298 20.8961 3.56628 18.6333 3.56628 15.8518V7.35527C3.56628 3.63779 6.62267 0.613281 10.3793 0.613281C14.136 0.613281 17.1924 3.63779 17.1924 7.35527V15.741H14.9803V7.35527C14.9803 4.8442 12.9161 2.80225 10.3793 2.80225C7.84254 2.80225 5.77832 4.84494 5.77832 7.35527V15.8518C5.77832 17.4261 7.07284 18.7072 8.66375 18.7072C10.2547 18.7072 11.5492 17.4261 11.5492 15.8518V7.95219C11.5492 7.35453 11.0579 6.86842 10.454 6.86842C9.85002 6.86842 9.35879 7.35453 9.35879 7.95219V16.0365H7.14675V7.95219C7.14675 6.14812 8.63015 4.68019 10.4532 4.68019C12.2763 4.68019 13.7597 6.14812 13.7597 7.95219V15.8518C13.7597 18.6333 11.473 20.8961 8.66225 20.8961H8.66375Z" fill="#EFB253"/>
<path d="M7.19976 31.8857V26.5333C3.14224 25.943 0 22.0837 0 17.4258H2.21204C2.21204 21.2836 4.93621 24.4226 8.28375 24.4226H9.41179V26.5429L12.9639 22.9724C14.2457 21.5149 14.9811 19.4951 14.9811 17.4258H17.1931C17.1931 20.0683 16.2741 22.5587 14.6063 24.4389L14.563 24.4847L7.2005 31.8849L7.19976 31.8857Z" fill="#EFB253"/>
</g>
<defs>
<clipPath id="clip0_19275_20549">
<rect width="98" height="31.2727" fill="white" transform="translate(0 0.613281)"/>
</clipPath>
</defs>
</svg>
